<svg width="48" height="24" viewBox="0 0 48 24" fill="none" xmlns="http://www.w3.org/2000/svg">
<path d="M21.829 10.6308C21.829 10.5119 21.7937 10.3957 21.7277 10.2969C21.6617 10.1981 21.5678 10.121 21.458 10.0755C21.3481 10.03 21.2273 10.0181 21.1107 10.0413C20.9941 10.0645 20.887 10.1218 20.803 10.2058C20.7189 10.2899 20.6617 10.397 20.6385 10.5135C20.6153 10.6301 20.6272 10.751 20.6727 10.8608C20.7182 10.9706 20.7952 11.0645 20.8941 11.1305C20.9929 11.1966 21.1091 11.2318 21.228 11.2318C21.3874 11.2318 21.5402 11.1685 21.653 11.0558C21.7657 10.9431 21.829 10.7902 21.829 10.6308Z" fill="#204C83"/>
<path d="M7.43142 15.2036C6.99288 15.2015 6.56212 15.0875 6.17996 14.8724C5.7978 14.6573 5.47689 14.3482 5.24764 13.9743C5.01839 13.6004 4.88839 13.1742 4.86996 12.7361C4.85152 12.2979 4.94527 11.8623 5.1423 11.4705C5.33934 11.0787 5.63315 10.7437 5.99589 10.4973C6.35863 10.2508 6.77829 10.1011 7.21512 10.0622C7.65194 10.0233 8.09145 10.0966 8.49202 10.2751C8.89258 10.4536 9.24093 10.7315 9.50407 11.0823L10.2579 10.3216C9.8038 9.7601 9.19335 9.34588 8.50379 9.13135C7.81424 8.91683 7.07654 8.91163 6.38403 9.11642C5.69152 9.32121 5.0753 9.72678 4.61331 10.2818C4.15133 10.8369 3.86435 11.5165 3.78866 12.2347C3.71298 12.9529 3.85199 13.6774 4.18811 14.3165C4.52424 14.9557 5.04238 15.4808 5.67699 15.8254C6.3116 16.1701 7.03417 16.3188 7.7533 16.2527C8.47243 16.1867 9.15581 15.9088 9.717 15.4543C9.78569 15.3993 9.85094 15.3427 9.91448 15.2826L9.15891 14.527C8.68667 14.9586 8.07114 15.1996 7.43142 15.2036Z" fill="#204C83"/>
<path d="M24.6674 11.5823H24.6382C24.3375 11.5841 24.0399 11.6424 23.7607 11.754V11.7145H22.6943V15.8924H23.7246V12.9732C24.2553 12.4769 25.0228 12.4083 25.4418 12.8015C25.6599 13.0127 25.72 13.3922 25.7183 13.8318V15.8924H26.7486V13.7665C26.7486 13.0436 26.5529 12.4821 26.1648 12.0992C25.9633 11.9159 25.7266 11.7756 25.4692 11.6868C25.2118 11.5979 24.939 11.5624 24.6674 11.5823Z" fill="#204C83"/>
<path d="M13.4787 12.0046C13.1485 11.7918 12.7671 11.6719 12.3746 11.6575C11.9821 11.6431 11.5929 11.7347 11.248 11.9227C10.9032 12.1107 10.6153 12.3882 10.4148 12.7259C10.2142 13.0637 10.1084 13.4492 10.1084 13.842C10.1084 14.2348 10.2142 14.6203 10.4148 14.9581C10.6153 15.2958 10.9032 15.5733 11.248 15.7613C11.5929 15.9493 11.9821 16.0409 12.3746 16.0265C12.7671 16.0121 13.1485 15.8922 13.4787 15.6794V15.8906H14.5502V11.7161H13.4787V12.0046ZM12.3007 14.9599C12.0792 14.9602 11.8627 14.8949 11.6784 14.7721C11.494 14.6494 11.3503 14.4748 11.2652 14.2703C11.1802 14.0659 11.1577 13.8408 11.2005 13.6235C11.2434 13.4063 11.3497 13.2066 11.5061 13.0498C11.6624 12.893 11.8617 12.786 12.0788 12.7425C12.296 12.699 12.5211 12.7208 12.7258 12.8052C12.9305 12.8897 13.1056 13.0329 13.2289 13.2168C13.3522 13.4008 13.4182 13.6171 13.4186 13.8386C13.4181 14.1352 13.3003 14.4196 13.0908 14.6297C12.8814 14.8398 12.5973 14.9585 12.3007 14.9599Z" fill="#204C83"/>
<path d="M30.7697 11.9621C30.4153 11.7375 30.0044 11.6184 29.5848 11.6187C29.2386 11.6179 28.8969 11.6977 28.5868 11.8518C28.2767 12.0058 28.0067 12.2299 27.7982 12.5062C27.5896 12.7826 27.4481 13.1037 27.385 13.4441C27.3219 13.7846 27.3389 14.135 27.4346 14.4678C27.5302 14.8006 27.702 15.1065 27.9363 15.3615C28.1706 15.6164 28.4609 15.8134 28.7844 15.9368C29.1079 16.0602 29.4557 16.1066 29.8003 16.0724C30.1448 16.0383 30.4767 15.9244 30.7697 15.7399V15.9116C30.7581 16.2129 30.6303 16.498 30.4131 16.707C30.1958 16.9161 29.9061 17.0329 29.6046 17.0329C29.3031 17.0329 29.0133 16.9161 28.7961 16.707C28.5789 16.498 28.451 16.2129 28.4395 15.9116H27.3731C27.3692 16.5037 27.6007 17.073 28.0166 17.4944C28.4325 17.9158 28.9988 18.1547 29.5908 18.1586C30.1829 18.1624 30.7522 17.931 31.1736 17.515C31.595 17.0991 31.8339 16.5329 31.8378 15.9408V11.7165H30.7714L30.7697 11.9621ZM29.5848 15.0135C29.3542 15.0135 29.1288 14.9452 28.9371 14.817C28.7453 14.6889 28.5959 14.5068 28.5076 14.2938C28.4194 14.0807 28.3963 13.8463 28.4413 13.6201C28.4863 13.3939 28.5973 13.1862 28.7604 13.0231C28.9234 12.86 29.1312 12.749 29.3574 12.704C29.5835 12.659 29.818 12.6821 30.031 12.7704C30.2441 12.8586 30.4262 13.008 30.5543 13.1998C30.6824 13.3915 30.7508 13.617 30.7508 13.8476C30.7504 14.1565 30.6273 14.4526 30.4087 14.6709C30.1901 14.8892 29.8938 15.0118 29.5848 15.0118V15.0135Z" fill="#204C83"/>
<path d="M19.8105 9.56836H18.7441V15.891H19.8105V9.56836Z" fill="#204C83"/>
<path d="M21.7627 11.7144H20.6963V15.8888H21.7627V11.7144Z" fill="#204C83"/>
<path d="M34.2234 10.2498H33.157V11.6767H32.5371V12.7431H33.157V15.8924H34.2234V12.7431H34.8433V11.6767H34.2234V10.2498Z" fill="#204C83"/>
<path d="M16.5127 11.7144H15.4463V15.8906H16.5127V11.7144Z" fill="#204C83"/>
<path d="M17.4238 13.2551C17.8714 13.2551 18.2343 12.8922 18.2343 12.4445C18.2343 11.9969 17.8714 11.634 17.4238 11.634C16.9762 11.634 16.6133 11.9969 16.6133 12.4445C16.6133 12.8922 16.9762 13.2551 17.4238 13.2551Z" fill="#204C83"/>
<path d="M37.37 11.5981C36.9285 11.5981 36.4969 11.7291 36.1298 11.9744C35.7627 12.2197 35.4766 12.5683 35.3076 12.9762C35.1387 13.3841 35.0945 13.833 35.1806 14.266C35.2667 14.699 35.4793 15.0968 35.7915 15.409C36.1037 15.7212 36.5015 15.9338 36.9345 16.0199C37.3676 16.1061 37.8164 16.0619 38.2243 15.8929C38.6322 15.7239 38.9809 15.4378 39.2262 15.0707C39.4715 14.7036 39.6024 14.272 39.6024 13.8305C39.6024 13.2384 39.3672 12.6706 38.9485 12.252C38.5299 11.8333 37.9621 11.5981 37.37 11.5981ZM37.37 14.9947C37.1394 14.9947 36.914 14.9264 36.7223 14.7982C36.5305 14.6701 36.3811 14.488 36.2928 14.275C36.2046 14.0619 36.1815 13.8275 36.2265 13.6013C36.2715 13.3751 36.3825 13.1674 36.5456 13.0043C36.7086 12.8412 36.9164 12.7302 37.1426 12.6852C37.3687 12.6402 37.6032 12.6633 37.8162 12.7516C38.0293 12.8398 38.2114 12.9892 38.3395 13.181C38.4676 13.3727 38.536 13.5982 38.536 13.8288C38.5356 14.1379 38.4126 14.4342 38.194 14.6527C37.9754 14.8713 37.6791 14.9943 37.37 14.9947Z" fill="#204C83"/>
<path d="M43.6337 12.1151C43.0962 11.5844 42.3921 11.5999 42.162 11.5999H42.1328C41.832 11.5999 41.534 11.6582 41.2554 11.7716V11.715H40.1855V15.8929H41.2159V12.9943C41.7465 12.498 42.5141 12.4276 42.933 12.8225C43.1494 13.032 43.2112 13.4133 43.2095 13.8529V15.8894H44.2312V13.7824C44.2175 13.0509 44.02 12.4963 43.6337 12.1151Z" fill="#204C83"/>
<path d="M25.806 0L24.9629 5.32328C25.284 5.30954 25.6068 5.30096 25.9314 5.30096C26.2216 5.30096 26.5084 5.30096 26.79 5.31985L26.031 0H25.806Z" fill="#5971A8"/>
<path d="M14.7949 2.5762L16.4881 7.57837C16.9397 7.34655 17.4033 7.1319 17.8738 6.93271L15.0027 2.46802L14.7949 2.5762Z" fill="#5971A8"/>
<path d="M20.6416 2.87624L20.906 5.92081C21.2781 5.82808 21.6542 5.74566 22.0342 5.67354L20.858 2.82129L20.6416 2.87624Z" fill="#5971A8"/>
<path d="M11.3604 7.3686L12.9505 9.86883C13.2161 9.6559 13.4925 9.44697 13.7799 9.24205L11.5355 7.22607L11.3604 7.3686Z" fill="#5971A8"/>
<path d="M33.8516 6.86834C34.3564 7.07784 34.8504 7.30679 35.3335 7.55521L37.1177 2.59254L36.9219 2.48779L33.8516 6.86834Z" fill="#5971A8"/>
<path d="M38.0918 9.24534C38.3751 9.4514 38.6516 9.66434 38.9246 9.88242L40.5062 7.353L40.3344 7.20532L38.0918 9.24534Z" fill="#5971A8"/>
<path d="M29.7969 5.66621C30.1798 5.73833 30.561 5.82075 30.9371 5.9152L31.2153 2.87062L30.992 2.81567L29.7969 5.66621Z" fill="#5971A8"/>
<path d="M1.31537 21.9609C0.686876 21.9609 0.255859 21.456 0.255859 20.8275C0.255859 20.199 0.686876 19.6907 1.31537 19.6907C1.46136 19.6908 1.60589 19.7198 1.74059 19.7761C1.87529 19.8324 1.9975 19.9149 2.10012 20.0187L2.28558 19.8367C2.16041 19.7069 2.01017 19.6039 1.84397 19.5339C1.67778 19.464 1.49911 19.4285 1.3188 19.4297C0.547782 19.4297 0 20.0548 0 20.8275C0 21.6002 0.547782 22.2253 1.3188 22.2253C1.49902 22.2259 1.67752 22.1902 1.84363 22.1203C2.00974 22.0503 2.16004 21.9476 2.28558 21.8183L2.11386 21.6329C2.00979 21.7386 1.8854 21.8222 1.74816 21.8785C1.61093 21.9349 1.46371 21.9629 1.31537 21.9609Z" fill="#5971A8"/>
<path d="M3.60088 22.2251C3.72444 22.2287 3.84751 22.2079 3.96299 22.1638C4.07848 22.1197 4.18411 22.0532 4.2738 21.9682C4.3635 21.8831 4.43548 21.7811 4.48562 21.6682C4.53575 21.5552 4.56305 21.4334 4.56594 21.3098V21.2548C4.56594 20.9994 4.46445 20.7543 4.28379 20.5737C4.10312 20.393 3.8581 20.2915 3.6026 20.2915C3.34711 20.2915 3.10207 20.393 2.92141 20.5737C2.74075 20.7543 2.63926 20.9994 2.63926 21.2548C2.6349 21.3781 2.65492 21.5011 2.69815 21.6166C2.74139 21.7321 2.80701 21.838 2.89123 21.9281C2.97546 22.0183 3.07665 22.0909 3.18899 22.1418C3.30134 22.1928 3.42264 22.2211 3.54593 22.2251H3.60088ZM3.60088 20.5628C3.68952 20.5591 3.77802 20.573 3.86131 20.6035C3.9446 20.6341 4.02105 20.6808 4.08628 20.7409C4.15151 20.801 4.20425 20.8734 4.24147 20.9539C4.2787 21.0345 4.29968 21.1216 4.30321 21.2102V21.2497C4.30321 21.436 4.22922 21.6146 4.0975 21.7463C3.96579 21.878 3.78715 21.952 3.60088 21.952C3.41461 21.952 3.23597 21.878 3.10426 21.7463C2.97255 21.6146 2.89855 21.436 2.89855 21.2497C2.89696 21.1611 2.91284 21.073 2.94529 20.9905C2.97774 20.908 3.02613 20.8327 3.08768 20.7689C3.14923 20.7052 3.22275 20.6541 3.30403 20.6188C3.38531 20.5834 3.47276 20.5644 3.56139 20.5628H3.60088Z" fill="#5971A8"/>
<path d="M7.3135 20.2984C7.17207 20.291 7.03157 20.3252 6.90946 20.397C6.78735 20.4687 6.689 20.5748 6.62663 20.7019C6.57637 20.5755 6.48727 20.4683 6.37215 20.3957C6.25703 20.3232 6.12186 20.2891 5.98611 20.2984C5.8637 20.3003 5.74371 20.3327 5.63697 20.3927C5.53024 20.4526 5.44013 20.5383 5.37479 20.6418V20.3361H5.11035V22.1821H5.37308V21.1793C5.36173 21.0272 5.41124 20.8768 5.51074 20.7612C5.61025 20.6456 5.75159 20.5742 5.90369 20.5628H5.9844C6.26945 20.5628 6.43086 20.7723 6.43086 21.1123V22.1856H6.69531V21.1793C6.68396 21.0272 6.73348 20.8768 6.83298 20.7612C6.93248 20.6456 7.07382 20.5742 7.22592 20.5628H7.3135C7.59684 20.5628 7.75997 20.7723 7.75997 21.1123V22.1856H8.02442V21.1089C8.03129 20.6075 7.76684 20.2984 7.3135 20.2984Z" fill="#5971A8"/>
<path d="M10.883 20.2988C10.7416 20.2914 10.6011 20.3257 10.479 20.3974C10.3569 20.4692 10.2585 20.5752 10.1962 20.7024C10.1462 20.5761 10.0574 20.4689 9.94261 20.3964C9.82779 20.3238 9.69288 20.2897 9.55737 20.2988C9.43464 20.3003 9.31424 20.3325 9.20715 20.3925C9.10007 20.4525 9.00971 20.5384 8.94434 20.6423V20.3366H8.68848V22.1826H8.95292V21.1797C8.94157 21.0276 8.99109 20.8772 9.09059 20.7616C9.19009 20.646 9.33143 20.5747 9.48354 20.5633H9.56596C9.85101 20.5633 10.0124 20.7728 10.0124 21.1128V22.186H10.2769V21.1797C10.2655 21.0276 10.315 20.8772 10.4145 20.7616C10.514 20.646 10.6554 20.5747 10.8075 20.5633H10.8882C11.1732 20.5633 11.3347 20.7728 11.3347 21.1128V22.186H11.5991V21.1093C11.6077 20.6079 11.3329 20.2988 10.883 20.2988Z" fill="#5971A8"/>
<path d="M13.5473 21.8821V22.1861H13.8118V20.3367H13.5473V21.3498C13.5572 21.5014 13.5066 21.6508 13.4064 21.7651C13.3063 21.8794 13.1649 21.9493 13.0133 21.9594C12.9864 21.9611 12.9595 21.9611 12.9326 21.9594C12.6475 21.9594 12.4861 21.7499 12.4861 21.4116V20.3367H12.2217V21.4116C12.2217 21.913 12.4827 22.2204 12.9326 22.2204C13.056 22.2245 13.1782 22.1952 13.2864 22.1357C13.3946 22.0762 13.4847 21.9886 13.5473 21.8821Z" fill="#5971A8"/>
<path d="M15.8134 21.1093V22.1826H16.071V21.1093C16.071 20.6079 15.8117 20.2988 15.3618 20.2988C15.2382 20.2956 15.116 20.3258 15.0081 20.3862C14.9002 20.4467 14.8106 20.5351 14.7488 20.6423V20.3366H14.4912V22.1826H14.7557V21.1797C14.7443 21.0276 14.7938 20.8772 14.8933 20.7616C14.9928 20.646 15.1342 20.5747 15.2863 20.5633H15.3687C15.652 20.5598 15.8134 20.7693 15.8134 21.1093Z" fill="#5971A8"/>
<path d="M16.9954 20.3379H16.7344V22.1822H16.9954V20.3379Z" fill="#5971A8"/>
<path d="M16.8688 19.8401C16.918 19.8357 16.9635 19.8122 16.9956 19.7747C17.0277 19.7371 17.0438 19.6885 17.0405 19.6392C17.0381 19.6021 17.0248 19.5666 17.0024 19.537C16.9799 19.5075 16.9493 19.4852 16.9142 19.473C16.8792 19.4607 16.8413 19.4591 16.8054 19.4682C16.7694 19.4774 16.7369 19.497 16.712 19.5245C16.6871 19.552 16.6708 19.5862 16.6652 19.6229C16.6597 19.6596 16.665 19.6971 16.6806 19.7308C16.6963 19.7645 16.7215 19.7928 16.7531 19.8122C16.7847 19.8317 16.8214 19.8413 16.8585 19.8401H16.8688Z" fill="#5971A8"/>
<path d="M18.0617 22.1825V20.5752H18.4532V20.3383H18.0617V19.6462H17.7972V20.3383H17.4658V20.5752H17.7972V22.1825H18.0617Z" fill="#5971A8"/>
<path d="M19.0949 23.0751H19.3679L20.5133 20.3379H20.2334L19.6049 21.8387L18.9798 20.3379H18.7051L19.4624 22.1787L19.0949 23.0751Z" fill="#5971A8"/>
<path d="M23.7218 20.7997H22.2278V19.553H21.9668V22.273H22.2278V21.0452H23.7218V22.273H23.9811V19.553H23.7218V20.7997Z" fill="#5971A8"/>
<path d="M25.4973 20.3896C25.2578 20.3822 25.0252 20.47 24.8504 20.6339C24.6756 20.7977 24.5729 21.0242 24.5648 21.2636C24.5648 21.2911 24.5648 21.3186 24.5648 21.3461C24.5517 21.5873 24.6347 21.8239 24.7956 22.0042C24.9565 22.1844 25.1822 22.2935 25.4234 22.3077H25.4921C25.6674 22.3135 25.8405 22.2679 25.9901 22.1763C26.1396 22.0847 26.259 21.9513 26.3335 21.7925C26.2511 21.7719 26.1481 21.753 26.0691 21.7324C25.9948 21.8474 25.8874 21.9369 25.7609 21.9892C25.6345 22.0415 25.4952 22.054 25.3614 22.0251C25.2277 21.9962 25.106 21.9272 25.0124 21.8274C24.9189 21.7276 24.858 21.6016 24.8379 21.4663H26.4022V21.3443C26.4057 20.7639 26.0262 20.3896 25.4973 20.3896ZM24.8344 21.2241C24.8529 21.0628 24.9312 20.9144 25.054 20.8081C25.1768 20.7019 25.335 20.6457 25.4973 20.6506C25.6564 20.647 25.8108 20.7044 25.9289 20.8111C26.0471 20.9177 26.1199 21.0655 26.1326 21.2241H24.8344Z" fill="#5971A8"/>
<path d="M28.4483 20.7331C28.3714 20.6232 28.2684 20.5343 28.1484 20.4743C28.0285 20.4143 27.8954 20.3852 27.7614 20.3897C27.5198 20.3814 27.2848 20.4693 27.108 20.6341C26.9313 20.799 26.8272 21.0273 26.8187 21.2689C26.817 21.2946 26.817 21.3204 26.8187 21.3462C26.8079 21.5904 26.8945 21.8289 27.0592 22.0095C27.224 22.1901 27.4537 22.2979 27.6979 22.3095H27.7528C27.8878 22.312 28.0213 22.2809 28.1413 22.2188C28.2612 22.1567 28.3638 22.0657 28.4397 21.9541V22.27H28.7127V20.4361H28.4483V20.7331ZM27.7614 22.0485C27.5836 22.0527 27.4114 21.9861 27.2827 21.8634C27.1539 21.7408 27.079 21.572 27.0745 21.3943C27.0737 21.3782 27.0737 21.3622 27.0745 21.3462C27.0661 21.1724 27.1271 21.0025 27.244 20.8737C27.3609 20.7449 27.5241 20.6678 27.6979 20.6593H27.7614C27.9436 20.6593 28.1183 20.7317 28.2471 20.8605C28.3759 20.9893 28.4483 21.164 28.4483 21.3462C28.4581 21.5221 28.3979 21.6948 28.2808 21.8264C28.1636 21.958 27.9991 22.0379 27.8232 22.0485C27.7998 22.0502 27.7763 22.0502 27.7528 22.0485H27.7614Z" fill="#5971A8"/>
<path d="M29.6516 19.4297H29.3906V22.2734H29.6516V19.4297Z" fill="#5971A8"/>
<path d="M30.7189 19.7388H30.4545V20.4291H30.123V20.6661H30.4545V22.2733H30.7189V20.6661H31.1104V20.4291H30.7189V19.7388Z" fill="#5971A8"/>
<path d="M32.4627 20.3896C32.3393 20.3867 32.2175 20.417 32.1099 20.4774C32.0023 20.5379 31.913 20.6262 31.8514 20.733V19.4297H31.5869V22.2734H31.8514V21.2671C31.84 21.115 31.8895 20.9646 31.989 20.849C32.0885 20.7334 32.2299 20.662 32.382 20.6506C32.4088 20.6489 32.4358 20.6489 32.4627 20.6506C32.7477 20.6506 32.9092 20.8601 32.9092 21.2001V22.2734H33.177V21.2001C33.177 20.6987 32.9143 20.3896 32.4627 20.3896Z" fill="#5971A8"/>
<path d="M36.1303 22.0515C35.5018 22.0515 35.0708 21.5466 35.0708 20.9181C35.0708 20.2896 35.5018 19.7813 36.1303 19.7813C36.2763 19.7814 36.4208 19.8104 36.5555 19.8667C36.6902 19.923 36.8125 20.0055 36.9151 20.1093L37.0971 19.9204C36.9719 19.7906 36.8217 19.6876 36.6555 19.6177C36.4893 19.5477 36.3106 19.5123 36.1303 19.5135C35.3593 19.5135 34.8115 20.1385 34.8115 20.9112C34.8115 21.684 35.3593 22.3022 36.1303 22.3022C36.3111 22.3033 36.4903 22.2679 36.6571 22.1979C36.8238 22.128 36.9747 22.025 37.1005 21.8952L36.9202 21.7097C36.8183 21.8169 36.6958 21.9024 36.5601 21.9611C36.4244 22.0199 36.2782 22.0506 36.1303 22.0515Z" fill="#5971A8"/>
<path d="M38.3867 20.3896C38.1468 20.3822 37.9137 20.4702 37.7386 20.6344C37.5635 20.7986 37.4606 21.0255 37.4525 21.2654C37.4525 21.2928 37.4525 21.3186 37.4525 21.3461C37.4394 21.5873 37.5224 21.8239 37.6833 22.0042C37.8442 22.1844 38.0699 22.2935 38.3111 22.3077H38.3815C38.5565 22.3134 38.7294 22.2677 38.8787 22.1761C39.0279 22.0845 39.147 21.9512 39.2212 21.7925C39.1388 21.7719 39.0358 21.753 38.9568 21.7324C38.883 21.8486 38.7754 21.9394 38.6484 21.9925C38.5214 22.0456 38.3812 22.0586 38.2467 22.0296C38.1122 22.0006 37.9898 21.931 37.896 21.8303C37.8022 21.7296 37.7415 21.6025 37.7221 21.4663H39.2865V21.3443C39.2899 20.7639 38.9121 20.3896 38.3867 20.3896ZM37.7221 21.2241C37.7406 21.0625 37.8192 20.9138 37.9423 20.8075C38.0655 20.7013 38.2241 20.6452 38.3867 20.6506C38.5458 20.647 38.7002 20.7044 38.8184 20.8111C38.9365 20.9177 39.0094 21.0655 39.022 21.2241H37.7221Z" fill="#5971A8"/>
<path d="M40.6968 20.3896C40.5732 20.3864 40.451 20.4166 40.3431 20.477C40.2352 20.5375 40.1456 20.6259 40.0838 20.7331V20.436H39.8193V22.2734H40.0838V21.2671C40.0724 21.1158 40.1212 20.9662 40.2196 20.8507C40.318 20.7353 40.4581 20.6634 40.6092 20.6507C40.6367 20.6489 40.6642 20.6489 40.6917 20.6507C40.975 20.6507 41.1381 20.8601 41.1381 21.2002V22.2734H41.4026V21.2002C41.4198 20.6987 41.1467 20.3896 40.6968 20.3896Z" fill="#5971A8"/>
<path d="M42.4504 19.7388H42.1859V20.4291H41.8545V20.6661H42.1859V22.2733H42.4504V20.6661H42.8419V20.4291H42.4504V19.7388Z" fill="#5971A8"/>
<path d="M43.5828 20.8481V20.436H43.3184V22.2734H43.5828V21.5865C43.5828 21.0971 43.7356 20.6541 44.1117 20.6541C44.2044 20.657 44.2955 20.6786 44.3796 20.7176L44.4122 20.4618C44.3202 20.4116 44.2165 20.3867 44.1117 20.3896C43.8421 20.3896 43.6721 20.5322 43.5828 20.8481Z" fill="#5971A8"/>
<path d="M46.4999 21.3461C46.4999 20.7605 46.1204 20.3896 45.5949 20.3896C45.3555 20.3822 45.1228 20.47 44.948 20.6339C44.7732 20.7977 44.6706 21.0242 44.6625 21.2636C44.6625 21.2911 44.6625 21.3186 44.6625 21.3461C44.6494 21.5873 44.7323 21.8239 44.8932 22.0042C45.0541 22.1844 45.2799 22.2935 45.5211 22.3077H45.5898C45.7649 22.3129 45.9378 22.2669 46.0872 22.1754C46.2366 22.0839 46.3562 21.9509 46.4312 21.7925C46.3488 21.7719 46.2457 21.753 46.1667 21.7324C46.093 21.8486 45.9853 21.9394 45.8584 21.9925C45.7314 22.0456 45.5912 22.0586 45.4567 22.0296C45.3221 22.0006 45.1997 21.931 45.1059 21.8303C45.0121 21.7296 44.9515 21.6025 44.9321 21.4663H46.4964C46.4999 21.4319 46.4999 21.3856 46.4999 21.3461ZM44.9321 21.2241C44.9504 21.0641 45.0278 20.9166 45.1491 20.8105C45.2704 20.7044 45.4269 20.6474 45.5881 20.6506C45.7466 20.6479 45.9002 20.7057 46.0176 20.8123C46.1349 20.9188 46.2073 21.0661 46.22 21.2241H44.9321Z" fill="#5971A8"/>
</svg>
