<svg width="216" height="102" viewBox="0 0 216 102" fill="none" xmlns="http://www.w3.org/2000/svg">
<g filter="url(#filter0_d_368_118400)">
<rect x="20" y="18" width="174" height="64" rx="16" fill="white" shape-rendering="crispEdges"/>
<path d="M44.0478 71.1065C43.7576 71.2344 43.4673 71.3624 43.177 71.4903C43.1618 71.4802 43.1465 71.47 43.1313 71.4598C43.1791 71.3885 43.2166 71.307 43.2761 71.2473C45.3922 69.1219 47.0586 66.6917 48.2221 63.9247C49.2371 61.5109 49.7241 58.9961 49.5906 56.3745C49.4877 54.3515 48.9921 52.4128 48.2422 50.5398C46.5914 46.4164 43.9153 43.0554 40.5248 40.232C39.4797 39.3618 38.3803 38.5679 37.2025 37.885C37.1261 37.8407 37.0568 37.784 36.9272 37.6931C37.0861 37.7048 37.1813 37.7019 37.2723 37.7201C38.7641 38.0197 40.2494 38.3572 41.7485 38.615C43.7122 38.9526 45.6936 39.1086 47.691 39.0508C50.0627 38.9821 52.0812 38.0728 53.8459 36.5351C54.128 36.2893 54.3882 36.0183 54.6902 35.7603C54.761 35.9385 54.8218 36.1138 54.8355 36.2927C54.8976 37.1012 54.9588 37.9101 54.9953 38.72C55.0191 39.2475 54.9999 39.7768 54.9999 40.3053C54.9999 41.2541 55.0001 42.2028 54.9994 43.1515C54.9993 43.2345 54.9894 43.3177 54.9919 43.4005C54.9943 43.4753 54.9841 43.5946 55.0214 43.614C55.0798 43.6445 55.1801 43.6243 55.2509 43.596C55.5652 43.4702 55.8661 43.303 56.1886 43.2075C56.9275 42.9888 57.6807 42.8311 58.4589 42.8466C61.7279 42.741 64.8176 44.8976 65.8671 48.0175C67.2646 52.1721 65.0905 56.5276 60.925 57.8882C59.3408 58.4057 57.747 58.3646 56.1253 57.8565C54.9546 57.4116 53.9144 56.8297 53.0826 55.9222C52.9883 55.8193 52.9041 55.8293 52.859 55.9602C52.7837 56.1784 52.73 56.4042 52.6522 56.6214C52.3002 57.6031 51.977 58.597 51.5779 59.5594C51.1855 60.5056 50.7485 61.4374 50.2687 62.3424C49.6792 63.4541 49.0524 64.5486 48.3894 65.618C47.9151 66.383 47.37 67.1061 46.828 67.8266C46.3457 68.4677 45.8288 69.0831 45.3178 69.7021C45.1334 69.9255 44.918 70.123 44.7232 70.3382C44.4944 70.591 44.2726 70.8501 44.0478 71.1065ZM57.1428 47.8949C57.1428 47.8949 57.1368 47.8946 57.12 47.9012C57.1093 47.9078 57.102 47.9171 57.0806 47.9459C57.0806 47.9459 57.0587 47.9562 57.0247 47.955C57.0041 47.9778 56.9836 48.0005 56.9504 48.0393C56.9403 48.0488 56.9286 48.0556 56.8868 48.0652C56.8768 48.0809 56.8668 48.0967 56.8376 48.1335C56.7991 48.1606 56.7606 48.1877 56.6911 48.2189C56.682 48.2365 56.6729 48.2542 56.6443 48.2957C56.6052 48.3278 56.5661 48.3599 56.5017 48.3989C56.4867 48.4189 56.4717 48.4388 56.4544 48.4496C56.4544 48.4496 56.4579 48.4584 56.4226 48.4564C56.3655 48.5215 56.3083 48.5866 56.2498 48.6499C56.2498 48.6499 56.2515 48.6512 56.2192 48.6546C56.1968 48.6868 56.1744 48.7191 56.1499 48.7503C56.1499 48.7503 56.1515 48.7522 56.1183 48.7562C56.0978 48.7909 56.0774 48.8255 56.0465 48.8796C56.0374 48.8916 56.026 48.9007 55.9843 48.9149C55.9717 48.9398 55.9592 48.9648 55.9297 49.0098C55.9106 49.0278 55.8915 49.0457 55.8375 49.0671C55.8095 49.1128 55.7815 49.1586 55.7389 49.2346C55.2325 49.8916 54.8251 50.5987 54.5682 51.3945C54.3527 52.0616 54.5306 52.6251 54.9626 53.1283C55.4857 53.7377 56.1904 54.0652 56.9368 54.29C58.3763 54.7234 59.8439 54.8169 61.3281 54.5565C62.0151 54.4359 62.6718 54.2242 63.2377 53.8009C63.8077 53.3745 64.1497 52.8198 64.0337 52.0833C63.869 51.0368 63.4298 50.1005 62.817 49.2412C62.3783 48.626 61.8396 48.1105 61.252 47.6106C61.2534 47.5793 61.2548 47.5481 61.2921 47.5129C61.3281 47.5117 61.3641 47.5104 61.4206 47.5277C61.4446 47.4996 61.4686 47.4716 61.499 47.4494C61.499 47.4494 61.4923 47.4435 61.5107 47.4421C61.5154 47.4383 61.5245 47.4336 61.524 47.4309C61.5216 47.4201 61.5163 47.4099 61.5117 47.3622C61.4758 47.3011 61.4399 47.2399 61.39 47.1467C61.2873 47.1107 61.1846 47.0746 61.0851 47.0376C61.0851 47.0376 61.0883 47.0383 61.1166 47.0316C61.123 47.0143 61.1294 46.997 61.1415 46.9548C61.1537 46.9326 61.166 46.9104 61.2147 46.8822C61.2382 46.8315 61.2617 46.7808 61.2888 46.7136C61.2888 46.7136 61.298 46.6995 61.3224 46.684C61.3273 46.666 61.3322 46.648 61.3411 46.6139C61.3411 46.6139 61.351 46.6005 61.3737 46.5862C61.3796 46.5698 61.3855 46.5534 61.3966 46.5181C61.3966 46.5181 61.4064 46.5009 61.4276 46.4869C61.4332 46.4714 61.4388 46.4558 61.45 46.4212C61.45 46.4212 61.4604 46.4042 61.4909 46.3966C61.5027 46.371 61.5146 46.3454 61.5323 46.2955C61.5404 46.2809 61.5485 46.2663 61.59 46.2439C61.6046 46.205 61.6191 46.1662 61.6372 46.1115C61.6372 46.1115 61.647 46.0987 61.6822 46.0937C61.7201 46.0112 61.758 45.9287 61.8001 45.8489C61.8001 45.8489 61.7955 45.8471 61.8205 45.8345C61.8267 45.8177 61.833 45.8008 61.8435 45.7661C61.8435 45.7661 61.8525 45.7501 61.8752 45.7346C61.8799 45.7175 61.8846 45.7004 61.8955 45.6661C61.8955 45.6661 61.9074 45.6523 61.9407 45.6445C61.9401 45.5813 61.9396 45.5181 61.9095 45.4493C61.8913 45.4411 61.8731 45.4328 61.842 45.3945C61.7285 45.3778 61.6151 45.3611 61.457 45.346C61.3378 45.3447 61.2187 45.3433 61.0691 45.3177C60.861 45.3523 60.6529 45.3868 60.4138 45.434C60.3916 45.436 60.3695 45.438 60.3211 45.419C60.0874 45.4692 59.8545 45.5237 59.6196 45.568C59.4939 45.5916 59.3649 45.5977 59.2484 45.6116C59.2484 45.6116 59.2376 45.6137 59.232 45.5787C59.1655 45.5396 59.0989 45.5006 59.0155 45.4566C59.0155 45.4566 59.001 45.4467 58.9941 45.4126C58.9441 45.3933 58.8941 45.374 58.8223 45.3477C58.8223 45.3477 58.8024 45.3364 58.7923 45.3035C58.703 45.2763 58.6136 45.2492 58.4986 45.2189C58.4823 45.213 58.4661 45.2072 58.4291 45.1742C58.3366 45.1644 58.2442 45.1547 58.1114 45.1481C58.0576 45.1461 58.0038 45.1442 57.9405 45.1275C57.9268 45.1327 57.9132 45.1379 57.8661 45.1474C57.8437 45.1462 57.8214 45.145 57.7694 45.1189C57.628 45.1378 57.4865 45.1566 57.3115 45.1891C57.3002 45.1936 57.2889 45.198 57.2582 45.2284C57.2948 45.2988 57.3315 45.3692 57.3834 45.453C57.3834 45.453 57.394 45.4703 57.3956 45.5038C57.4295 45.5526 57.4634 45.6015 57.5082 45.6652C57.5082 45.6652 57.5139 45.6828 57.5087 45.7163C57.5281 45.7394 57.5476 45.7624 57.563 45.7982C57.563 45.7982 57.569 45.7864 57.5609 45.8192C57.5896 45.8466 57.6182 45.874 57.656 45.9174C57.656 45.9174 57.6596 45.9355 57.654 45.9736C57.7239 46.0784 57.7938 46.1831 57.8569 46.2917C57.8569 46.2917 57.8646 46.2908 57.8593 46.3242C57.8813 46.3445 57.9032 46.3648 57.9404 46.4001C57.9491 46.4117 57.9549 46.4247 57.9549 46.4717C57.9748 46.4936 57.9947 46.5155 58.0057 46.537C58.0057 46.537 58.0143 46.5385 58.0155 46.5651C58.0286 46.5764 58.0416 46.5876 58.0628 46.6115C58.0628 46.6115 58.0647 46.6264 58.0651 46.6611C58.0957 46.7068 58.1263 46.7525 58.1623 46.8158C58.1623 46.8158 58.1649 46.834 58.1415 46.8649C58.0608 46.8922 57.9802 46.9195 57.8645 46.9497C57.8181 46.9557 57.7717 46.9616 57.6928 46.9695C57.6792 46.9965 57.6656 47.0236 57.648 47.0877C57.6517 47.1372 57.6554 47.1868 57.6698 47.2641C57.6881 47.2691 57.7064 47.2742 57.7507 47.283C57.7673 47.2886 57.7839 47.2943 57.7994 47.3361C57.7375 47.4126 57.6757 47.4892 57.6021 47.5571C57.6021 47.5571 57.6124 47.5673 57.5764 47.5594C57.5006 47.6214 57.4248 47.6834 57.3343 47.7564C57.3343 47.7564 57.3169 47.7623 57.2824 47.7585C57.2545 47.7885 57.2266 47.8185 57.1998 47.8499C57.1998 47.8499 57.1983 47.8489 57.1761 47.8557C57.1619 47.8634 57.1518 47.8747 57.1428 47.8949Z" fill="#2CA7BF"/>
<path d="M48.0832 59.4045C47.3165 56.2434 45.8126 53.4685 43.6744 51.0317C40.9744 47.9545 37.6161 45.8376 33.8349 44.3549C32.9307 44.0003 31.999 43.7159 31.08 43.3991C31.0424 43.3861 31.0055 43.3713 30.9365 43.3455C31.5881 43.1203 32.2128 42.9211 32.8253 42.6893C34.3973 42.0944 35.9504 41.4595 37.3056 40.4304C37.3708 40.3808 37.5247 40.3919 37.6094 40.4326C38.5086 40.8652 39.3082 41.4511 40.0568 42.1019C43.7577 45.3191 46.2868 49.2782 47.5636 54.0231C48.0861 55.9648 48.3043 57.9451 48.2763 59.9797C48.1985 59.8058 48.1409 59.6052 48.0832 59.4045Z" fill="#020202"/>
<path d="M47.8862 59.5637C47.4481 58.9887 47.0366 58.3911 46.5674 57.8427C44.5338 55.4654 42.049 53.6968 39.1859 52.4525C36.9933 51.4997 34.7002 50.9263 32.3299 50.6385C30.6295 50.4321 28.9245 50.4063 27.2161 50.4602C26.8431 50.472 26.4708 50.5048 26.0454 50.5312C26.3093 50.3176 26.5418 50.1344 26.7689 49.9448C28.1708 48.7737 29.5355 47.5654 30.6189 46.0771C30.6777 45.9964 30.7567 45.9215 30.7877 45.8307C30.9461 45.3666 31.2917 45.405 31.6701 45.4678C32.6852 45.6361 33.6656 45.9272 34.6224 46.2963C37.6294 47.456 40.2931 49.1588 42.6216 51.3861C44.8044 53.474 46.4993 55.9028 47.7007 58.6745C47.7983 58.8998 47.8679 59.1372 47.9496 59.4061C47.9278 59.4834 47.907 59.5235 47.8862 59.5637Z" fill="#2DA7BF"/>
<path d="M47.5036 28.6501C49.4085 28.6096 51.1429 29.8661 51.5319 31.8906C51.7989 33.2801 51.4018 34.5156 50.374 35.5069C48.7806 37.0437 46.2845 37.0013 44.7445 35.412C44.0872 34.7338 43.7254 33.9135 43.6428 32.9592C43.4672 30.9311 44.866 29.1131 46.8624 28.7137C47.0642 28.6733 47.2736 28.6704 47.5036 28.6501Z" fill="#000101"/>
<path d="M44.0664 71.1042C44.2729 70.8503 44.4946 70.5912 44.7234 70.3384C44.9182 70.1232 45.1336 69.9257 45.3181 69.7023C45.8291 69.0833 46.3459 68.4679 46.8282 67.8267C47.3702 67.1063 47.9153 66.3832 48.3896 65.6182C49.0527 64.5488 49.6794 63.4543 50.2689 62.3426C50.7488 61.4376 51.1857 60.5058 51.5781 59.5596C51.9772 58.5972 52.3004 57.6033 52.6524 56.6216C52.7303 56.4044 52.7839 56.1786 52.8592 55.9603C52.9044 55.8295 52.9885 55.8195 53.0828 55.9224C53.9147 56.8299 54.9549 57.4118 56.1087 57.8533C54.7268 61.4438 52.7236 64.6269 49.8729 67.2417C48.1444 68.8272 46.2126 70.1127 44.0664 71.1042Z" fill="#2B9EB5"/>
<path d="M58.454 42.8266C57.6808 42.8311 56.9277 42.9889 56.1888 43.2076C55.8662 43.303 55.5653 43.4702 55.2511 43.596C55.1803 43.6243 55.0799 43.6445 55.0215 43.6141C54.9843 43.5946 54.9944 43.4753 54.9921 43.4005C54.9895 43.3177 54.9995 43.2346 54.9996 43.1516C55.0002 42.2029 55.0001 41.2541 55.0001 40.3054C55.0001 39.7769 55.0193 39.2475 54.9955 38.7201C54.959 37.9102 54.8977 37.1012 54.8357 36.2928C54.822 36.1138 54.7612 35.9385 54.7051 35.753C55.2858 35.0393 55.8602 34.3166 56.2871 33.4913C56.4814 33.1157 56.6536 32.7286 56.8493 32.3186C56.8861 32.4284 56.9328 32.528 56.9525 32.6327C57.2531 34.2321 57.5836 35.8269 57.8377 37.4337C58.0505 38.7786 58.1766 40.1374 58.3336 41.4909C58.3843 41.928 58.4111 42.3679 58.454 42.8266Z" fill="#2B9EB5"/>
<path d="M47.8911 59.5802C47.9072 59.5234 47.928 59.4833 47.9497 59.4253C47.9801 59.4082 48.0096 59.4088 48.0611 59.407C48.1409 59.6051 48.1986 59.8057 48.277 60.003C48.2441 59.998 48.1614 60.0178 48.1418 59.9912C48.0503 59.8668 47.9762 59.7295 47.8911 59.5802Z" fill="#68A7B3"/>
<path d="M56.0123 48.907C56.026 48.9008 56.0374 48.8917 56.0665 48.8654C56.1082 48.8182 56.1299 48.7852 56.1515 48.7523C56.1515 48.7523 56.1499 48.7505 56.1656 48.7467C56.2048 48.7124 56.2282 48.6819 56.2515 48.6513C56.2515 48.6513 56.2498 48.6501 56.2662 48.6467C56.3411 48.5817 56.3995 48.5201 56.4579 48.4585C56.4579 48.4585 56.4544 48.4497 56.4686 48.4517C56.4976 48.4331 56.5123 48.4126 56.527 48.3921C56.5661 48.36 56.6052 48.3279 56.6664 48.2773C56.6997 48.2442 56.7109 48.2295 56.7221 48.2149C56.7606 48.1878 56.7991 48.1607 56.8603 48.1187C56.8938 48.0892 56.9046 48.0746 56.9154 48.0601C56.9286 48.0558 56.9402 48.0489 56.9711 48.0269C57.0141 47.995 57.0364 47.9757 57.0586 47.9563C57.0586 47.9563 57.0806 47.946 57.099 47.9366C57.1305 47.9203 57.1369 47.9094 57.1368 47.8947C57.1368 47.8947 57.1427 47.895 57.1567 47.8918C57.1872 47.8804 57.1964 47.8673 57.1983 47.849C57.1983 47.849 57.1998 47.85 57.2146 47.8471C57.2586 47.8169 57.2877 47.7897 57.3169 47.7624C57.3169 47.7624 57.3342 47.7565 57.3583 47.7497C57.459 47.6843 57.5357 47.6259 57.6124 47.5674C57.6124 47.5674 57.6021 47.5572 57.625 47.5591C57.8414 47.4279 58.0503 47.4161 58.2821 47.4346C58.9503 47.4878 59.6209 47.5118 60.2901 47.5546C60.6112 47.5752 60.9314 47.6124 61.252 47.642C61.8395 48.1106 62.3783 48.6261 62.8169 49.2413C63.4298 50.1006 63.869 51.0369 64.0337 52.0834C64.1497 52.8199 63.8077 53.3746 63.2377 53.801C62.6718 54.2243 62.0151 54.436 61.3281 54.5566C59.8439 54.817 58.3763 54.7235 56.9368 54.2901C56.1904 54.0653 55.4857 53.7378 54.9626 53.1284C54.5306 52.6252 54.3527 52.0618 54.5682 51.3946C54.8251 50.5989 55.2325 49.8917 55.7617 49.2149C55.8137 49.1513 55.843 49.1075 55.8723 49.0638C55.8914 49.0458 55.9106 49.0279 55.9516 48.9953C55.9865 48.9562 55.9994 48.9316 56.0123 48.907ZM60.2706 52.1383C60.5693 51.6284 60.424 51.1505 59.8947 50.8978C59.6546 50.7832 59.4097 50.6767 59.1785 50.546C58.9864 50.4373 58.9041 50.2539 58.961 50.0343C59.0175 49.8163 59.1898 49.7168 59.3959 49.7373C59.6388 49.7614 59.8776 49.83 60.1171 49.8841C60.1776 49.8978 60.2338 49.9297 60.2929 49.9537C60.4001 49.6458 60.3612 49.5567 60.0262 49.459C59.8555 49.4092 59.8148 49.3275 59.8516 49.173C59.867 49.1083 59.8974 49.0381 59.8844 48.9784C59.8716 48.9198 59.8155 48.8314 59.7725 48.8279C59.7054 48.8223 59.6169 48.8614 59.5684 48.9115C59.5291 48.9521 59.5209 49.0376 59.5242 49.1018C59.5356 49.3174 59.4226 49.3758 59.2271 49.4025C58.89 49.4487 58.6371 49.6203 58.552 49.9766C58.446 50.4207 58.6375 50.7657 59.1124 50.989C59.3301 51.0914 59.5522 51.1869 59.7605 51.3063C59.9479 51.4137 60.0293 51.6129 59.9494 51.8007C59.8894 51.9415 59.7395 52.1168 59.6071 52.1383C59.3558 52.1791 59.0853 52.1391 58.8289 52.0962C58.6825 52.0718 58.5482 51.9754 58.4089 51.9115C58.2868 52.182 58.301 52.3205 58.5218 52.3692C58.8909 52.4506 59.0073 52.6274 58.9032 52.9822C58.8919 53.0205 58.973 53.1295 59.0099 53.1288C59.0791 53.1276 59.1685 53.0862 59.2099 53.0315C59.2497 52.979 59.245 52.8888 59.2497 52.8146C59.2613 52.6329 59.3278 52.5387 59.5358 52.5287C59.8169 52.5152 60.0697 52.4041 60.2706 52.1383Z" fill="#EBF7F9"/>
<path d="M57.9502 45.1423C58.004 45.1443 58.0578 45.1463 58.1458 45.1593C58.27 45.1807 58.36 45.1911 58.45 45.2015C58.4663 45.2074 58.4825 45.2132 58.5222 45.2337C58.6314 45.2778 58.717 45.3072 58.8026 45.3366C58.8026 45.3366 58.8225 45.3479 58.8414 45.3652C58.9072 45.4039 58.9542 45.4254 59.0011 45.4468C59.0011 45.4468 59.0157 45.4568 59.0304 45.4748C59.1094 45.5332 59.1736 45.5735 59.2378 45.6138C59.2378 45.6138 59.2486 45.6118 59.2504 45.6292C59.3121 45.6647 59.3787 45.7094 59.4305 45.6963C59.7381 45.6183 60.0422 45.527 60.3475 45.4401C60.3696 45.4381 60.3918 45.4362 60.4496 45.4329C60.69 45.4018 60.8948 45.3719 61.0997 45.3421C61.2188 45.3434 61.338 45.3448 61.4927 45.3577C61.6372 45.3877 61.7461 45.4062 61.8551 45.4247C61.8733 45.433 61.8915 45.4412 61.9281 45.4692C61.9336 45.5434 61.9206 45.5979 61.9076 45.6524C61.9076 45.6524 61.8957 45.6662 61.8815 45.6827C61.8624 45.7162 61.8576 45.7332 61.8527 45.7502C61.8527 45.7502 61.8437 45.7662 61.83 45.7822C61.8094 45.8145 61.8025 45.8309 61.7957 45.8472C61.7957 45.8472 61.8003 45.849 61.784 45.8562C61.7275 45.9419 61.6873 46.0204 61.6472 46.0988C61.6472 46.0988 61.6374 46.1117 61.6222 46.1276C61.5902 46.1797 61.5735 46.2158 61.5568 46.2519C61.5487 46.2665 61.5406 46.2811 61.5171 46.3147C61.488 46.3573 61.4743 46.3808 61.4606 46.4044C61.4606 46.4044 61.4502 46.4213 61.4362 46.4374C61.417 46.4694 61.4118 46.4852 61.4066 46.5011C61.4066 46.5011 61.3968 46.5182 61.3829 46.5349C61.3631 46.5679 61.3571 46.5843 61.3512 46.6007C61.3512 46.6007 61.3413 46.6141 61.3282 46.6308C61.3095 46.6649 61.3039 46.6823 61.2982 46.6997C61.2982 46.6997 61.289 46.7138 61.2731 46.7305C61.231 46.7942 61.2047 46.8413 61.1784 46.8883C61.1662 46.9105 61.1539 46.9327 61.1277 46.9743C61.1053 47.0086 61.0969 47.0235 61.0885 47.0385C61.0885 47.0385 61.0853 47.0378 61.064 47.0383C60.8277 47.0254 60.6125 47.0138 60.3976 46.9982C59.6534 46.9443 58.9093 46.8889 58.1651 46.8342C58.1651 46.8342 58.1625 46.8159 58.1592 46.7901C58.1256 46.7184 58.0952 46.6725 58.0649 46.6265C58.0649 46.6265 58.063 46.6116 58.0574 46.5923C58.0394 46.5615 58.0269 46.5501 58.0145 46.5386C58.0145 46.5386 58.0059 46.5372 58.0078 46.5229C57.9924 46.4855 57.9751 46.4623 57.9578 46.4391C57.955 46.4249 57.9493 46.4119 57.9291 46.3788C57.9 46.3351 57.8824 46.313 57.8648 46.2909C57.8648 46.2909 57.8571 46.2919 57.8581 46.2728C57.7927 46.1477 57.7262 46.0417 57.6598 45.9356C57.6598 45.9356 57.6562 45.9176 57.6512 45.8946C57.6206 45.8433 57.5949 45.8149 57.5692 45.7865C57.5692 45.7865 57.5632 45.7983 57.5636 45.7771C57.5473 45.7315 57.5307 45.7073 57.5141 45.683C57.5141 45.683 57.5084 45.6653 57.5016 45.6421C57.4612 45.5694 57.4277 45.52 57.3942 45.4705C57.3942 45.4705 57.3836 45.4532 57.373 45.4285C57.3342 45.3368 57.306 45.2697 57.2778 45.2027C57.2891 45.1982 57.3004 45.1937 57.349 45.1887C57.5239 45.1734 57.6615 45.1587 57.7992 45.144C57.8215 45.1452 57.8439 45.1464 57.8957 45.1487C57.9334 45.1473 57.9418 45.1448 57.9502 45.1423Z" fill="#E8F6F9"/>
<path d="M57.659 47.2363C57.6553 47.1868 57.6516 47.1373 57.6623 47.0622C57.6928 47.0137 57.709 46.9907 57.7252 46.9677C57.7716 46.9617 57.818 46.9557 57.9007 46.9573C58.2257 46.9848 58.5143 47.0068 58.8032 47.0243C59.67 47.0768 60.537 47.1274 61.404 47.1788C61.4399 47.2399 61.4757 47.3011 61.5043 47.3907C61.497 47.4192 61.4923 47.4435 61.4923 47.4435C61.4923 47.4435 61.4989 47.4495 61.4825 47.452C61.4441 47.4727 61.4221 47.491 61.4001 47.5092C61.3641 47.5105 61.3281 47.5117 61.2534 47.5072C60.8522 47.4749 60.49 47.4435 60.1272 47.4229C59.3518 47.379 58.576 47.3407 57.8004 47.3C57.7838 47.2943 57.7673 47.2887 57.7292 47.2706C57.6915 47.251 57.6753 47.2437 57.659 47.2363Z" fill="#DDF5FA"/>
<path d="M57.7999 47.3181C58.5761 47.3407 59.3518 47.379 60.1273 47.423C60.4901 47.4435 60.8523 47.475 61.2355 47.5092C61.2548 47.5482 61.2534 47.5794 61.252 47.6263C60.9314 47.6123 60.6113 47.5751 60.2901 47.5546C59.6209 47.5118 58.9504 47.4878 58.2821 47.4345C58.0503 47.4161 57.8415 47.4278 57.6309 47.5634C57.6757 47.4892 57.7375 47.4127 57.7999 47.3181Z" fill="#66B1C0"/>
<path d="M61.3972 47.1629C60.5373 47.1275 59.6703 47.0769 58.8034 47.0244C58.5145 47.007 58.2259 46.9849 57.9185 46.956C57.9804 46.9197 58.0611 46.8924 58.1534 46.8496C58.9093 46.8889 59.6534 46.9443 60.3977 46.9982C60.6126 47.0138 60.8278 47.0254 61.0625 47.0388C61.1848 47.0748 61.2875 47.1108 61.3972 47.1629Z" fill="#64B1C1"/>
<path d="M60.3345 45.4294C60.0423 45.5268 59.7382 45.6182 59.4307 45.6961C59.3788 45.7093 59.3122 45.6645 59.2451 45.6291C59.3653 45.5977 59.4943 45.5916 59.62 45.5679C59.8548 45.5237 60.0877 45.4692 60.3345 45.4294Z" fill="#64B1C1"/>
<path d="M61.0843 45.3298C60.8946 45.3718 60.6897 45.4017 60.4648 45.4265C60.6529 45.3869 60.861 45.3523 61.0843 45.3298Z" fill="#64B1C1"/>
<path d="M57.7843 45.1316C57.6615 45.1587 57.5238 45.1734 57.3657 45.1818C57.4867 45.1568 57.6281 45.1379 57.7843 45.1316Z" fill="#64B1C1"/>
<path d="M61.8488 45.4097C61.7463 45.4063 61.6373 45.3878 61.5151 45.3569C61.6154 45.3613 61.7288 45.378 61.8488 45.4097Z" fill="#64B1C1"/>
<path d="M57.6572 45.9546C57.7265 46.0416 57.7929 46.1476 57.8617 46.2708C57.7942 46.1832 57.7243 46.0784 57.6572 45.9546Z" fill="#64B1C1"/>
<path d="M57.5945 47.5635C57.5358 47.6259 57.4591 47.6844 57.3657 47.7442C57.4249 47.6836 57.5007 47.6216 57.5945 47.5635Z" fill="#66B1C0"/>
<path d="M56.4404 48.4575C56.3997 48.5201 56.3413 48.5817 56.2671 48.6475C56.3085 48.5867 56.3656 48.5216 56.4404 48.4575Z" fill="#66B1C0"/>
<path d="M58.4398 45.188C58.3601 45.1911 58.2701 45.1808 58.166 45.1577C58.2444 45.1548 58.3369 45.1646 58.4398 45.188Z" fill="#64B1C1"/>
<path d="M61.6646 46.0962C61.6871 46.0202 61.7273 45.9417 61.7817 45.8547C61.758 45.9287 61.7201 46.0112 61.6646 46.0962Z" fill="#64B1C1"/>
<path d="M58.7976 45.32C58.717 45.307 58.6314 45.2776 58.5352 45.2351C58.6139 45.2492 58.7032 45.2764 58.7976 45.32Z" fill="#64B1C1"/>
<path d="M59.2352 45.5963C59.1738 45.5735 59.1096 45.5332 59.0391 45.4773C59.0993 45.5007 59.1658 45.5398 59.2352 45.5963Z" fill="#64B1C1"/>
<path d="M57.2681 45.2156C57.306 45.2697 57.3341 45.3368 57.3653 45.4218C57.3316 45.3693 57.295 45.2989 57.2681 45.2156Z" fill="#64B1C1"/>
<path d="M57.395 45.4871C57.4277 45.5198 57.4612 45.5692 57.4961 45.6345C57.4636 45.6014 57.4297 45.5526 57.395 45.4871Z" fill="#64B1C1"/>
<path d="M61.9245 45.6485C61.9208 45.5979 61.9338 45.5433 61.9431 45.4719C61.94 45.5182 61.9405 45.5814 61.9245 45.6485Z" fill="#64B1C1"/>
<path d="M55.855 49.0654C55.8431 49.1075 55.8138 49.1512 55.769 49.1997C55.7815 49.1587 55.8096 49.1129 55.855 49.0654Z" fill="#66B1C0"/>
<path d="M61.1968 46.8852C61.2048 46.8411 61.2311 46.794 61.2715 46.7385C61.2621 46.7808 61.2385 46.8315 61.1968 46.8852Z" fill="#64B1C1"/>
<path d="M58.9975 45.4298C58.9539 45.4254 58.9069 45.4039 58.8521 45.3687C58.8941 45.3741 58.9441 45.3934 58.9975 45.4298Z" fill="#64B1C1"/>
<path d="M57.5649 45.803C57.5947 45.8149 57.6204 45.8433 57.6465 45.8867C57.6182 45.8742 57.5895 45.8468 57.5649 45.803Z" fill="#64B1C1"/>
<path d="M58.0649 46.6438C58.0951 46.6724 58.1254 46.7183 58.1563 46.7813C58.1263 46.7526 58.0957 46.7069 58.0649 46.6438Z" fill="#64B1C1"/>
<path d="M56.2356 48.6531C56.2284 48.6819 56.205 48.7125 56.167 48.7473C56.1747 48.7193 56.1971 48.687 56.2356 48.6531Z" fill="#66B1C0"/>
<path d="M57.2999 47.7605C57.288 47.7897 57.2589 47.8169 57.2144 47.8464C57.2269 47.8186 57.2547 47.7886 57.2999 47.7605Z" fill="#66B1C0"/>
<path d="M56.1349 48.7544C56.1299 48.7853 56.1082 48.8183 56.0718 48.8558C56.0774 48.8257 56.0978 48.7911 56.1349 48.7544Z" fill="#66B1C0"/>
<path d="M61.5737 46.248C61.5737 46.2158 61.5905 46.1797 61.6206 46.1355C61.6195 46.1663 61.605 46.2052 61.5737 46.248Z" fill="#64B1C1"/>
<path d="M61.4106 47.5186C61.4224 47.4911 61.4444 47.4729 61.4796 47.4492C61.4688 47.4718 61.4448 47.4999 61.4106 47.5186Z" fill="#64B1C1"/>
<path d="M56.5143 48.3955C56.5123 48.4126 56.4975 48.4331 56.4697 48.4562C56.4716 48.4389 56.4866 48.4189 56.5143 48.3955Z" fill="#66B1C0"/>
<path d="M57.0417 47.9556C57.0365 47.9755 57.0142 47.9949 56.9775 48.0188C56.9837 48.0005 57.0042 47.9777 57.0417 47.9556Z" fill="#66B1C0"/>
<path d="M57.9565 46.4553C57.9752 46.4621 57.9925 46.4853 58.0124 46.5229C57.995 46.5155 57.9751 46.4936 57.9565 46.4553Z" fill="#64B1C1"/>
<path d="M57.8623 46.3076C57.8826 46.313 57.9002 46.3351 57.9217 46.3712C57.9036 46.3649 57.8816 46.3446 57.8623 46.3076Z" fill="#64B1C1"/>
<path d="M55.9988 48.9109C55.9998 48.9315 55.9869 48.956 55.9605 48.9851C55.9596 48.9647 55.9722 48.9398 55.9988 48.9109Z" fill="#66B1C0"/>
<path d="M61.4757 46.4006C61.4742 46.3809 61.4879 46.3573 61.5141 46.3269C61.5147 46.3456 61.5028 46.3712 61.4757 46.4006Z" fill="#64B1C1"/>
<path d="M57.7092 46.9688C57.7093 46.9908 57.6931 47.0138 57.6646 47.0438C57.6658 47.0238 57.6794 46.9967 57.7092 46.9688Z" fill="#64B1C1"/>
<path d="M57.5117 45.6997C57.5309 45.7073 57.5475 45.7316 57.5658 45.7708C57.548 45.7626 57.5286 45.7395 57.5117 45.6997Z" fill="#64B1C1"/>
<path d="M61.8641 45.7425C61.8576 45.7332 61.8625 45.7161 61.8785 45.6912C61.885 45.7004 61.8802 45.7176 61.8641 45.7425Z" fill="#64B1C1"/>
<path d="M57.9458 45.135C57.9421 45.1448 57.9337 45.1473 57.9126 45.1466C57.9136 45.1381 57.9273 45.1329 57.9458 45.135Z" fill="#64B1C1"/>
<path d="M61.8081 45.841C61.8024 45.8309 61.8093 45.8145 61.8278 45.791C61.8332 45.8009 61.8269 45.8178 61.8081 45.841Z" fill="#64B1C1"/>
<path d="M56.707 48.2168C56.7113 48.2294 56.7001 48.2441 56.6764 48.2654C56.6731 48.2543 56.6822 48.2366 56.707 48.2168Z" fill="#66B1C0"/>
<path d="M56.9015 48.0627C56.905 48.0747 56.8942 48.0894 56.8702 48.1084C56.8671 48.097 56.8771 48.0812 56.9015 48.0627Z" fill="#66B1C0"/>
<path d="M57.1286 47.8979C57.1372 47.9094 57.1308 47.9203 57.1079 47.9281C57.1021 47.9172 57.1095 47.9079 57.1286 47.8979Z" fill="#66B1C0"/>
<path d="M57.1877 47.8523C57.1969 47.8672 57.1877 47.8804 57.1586 47.8892C57.1522 47.8748 57.1623 47.8634 57.1877 47.8523Z" fill="#66B1C0"/>
<path d="M61.5017 47.443C61.4924 47.4437 61.4972 47.4193 61.5047 47.4094C61.5165 47.41 61.5218 47.4202 61.5242 47.4311C61.5248 47.4338 61.5156 47.4385 61.5017 47.443Z" fill="#64B1C1"/>
<path d="M57.6646 47.2502C57.6755 47.2436 57.6918 47.2509 57.7166 47.2688C57.7067 47.2743 57.6883 47.2692 57.6646 47.2502Z" fill="#66B1C0"/>
<path d="M61.1029 47.0351C61.0971 47.0235 61.1055 47.0085 61.1251 46.9866C61.1299 46.997 61.1235 47.0144 61.1029 47.0351Z" fill="#64B1C1"/>
<path d="M61.3103 46.692C61.3037 46.6823 61.3094 46.6649 61.3261 46.6387C61.3323 46.648 61.3274 46.6661 61.3103 46.692Z" fill="#64B1C1"/>
<path d="M61.3628 46.5937C61.3574 46.5845 61.3634 46.5681 61.3807 46.5444C61.3861 46.5537 61.3801 46.5701 61.3628 46.5937Z" fill="#64B1C1"/>
<path d="M58.0151 46.552C58.027 46.5501 58.0395 46.5616 58.0535 46.5861C58.0419 46.5879 58.0288 46.5766 58.0151 46.552Z" fill="#64B1C1"/>
<path d="M61.4171 46.4941C61.4117 46.4852 61.4169 46.4693 61.4334 46.4468C61.439 46.4558 61.4334 46.4714 61.4171 46.4941Z" fill="#64B1C1"/>
<path d="M60.2599 52.1533C60.07 52.4042 59.8171 52.5152 59.536 52.5287C59.328 52.5387 59.2615 52.6329 59.2499 52.8146C59.2452 52.8889 59.2499 52.979 59.2101 53.0316C59.1688 53.0862 59.0793 53.1276 59.0101 53.1289C58.9732 53.1295 58.8922 53.0205 58.9034 52.9823C59.0076 52.6274 58.8911 52.4506 58.522 52.3693C58.3012 52.3206 58.287 52.1821 58.4091 51.9116C58.5485 51.9754 58.6828 52.0718 58.8291 52.0963C59.0855 52.1392 59.356 52.1791 59.6073 52.1383C59.7397 52.1168 59.8897 51.9415 59.9496 51.8007C60.0295 51.613 59.9481 51.4137 59.7607 51.3063C59.5525 51.187 59.3304 51.0915 59.1127 50.9891C58.6377 50.7657 58.4462 50.4208 58.5523 49.9766C58.6373 49.6203 58.8903 49.4487 59.2273 49.4026C59.4229 49.3758 59.5358 49.3175 59.5245 49.1019C59.5211 49.0377 59.5294 48.9522 59.5686 48.9116C59.6171 48.8615 59.7056 48.8223 59.7727 48.8279C59.8158 48.8315 59.8718 48.9199 59.8846 48.9784C59.8977 49.0381 59.8672 49.1084 59.8518 49.1731C59.8151 49.3275 59.8557 49.4092 60.0264 49.459C60.3614 49.5568 60.4003 49.6458 60.2932 49.9537C60.2341 49.9298 60.1778 49.8978 60.1174 49.8842C59.8779 49.83 59.6391 49.7614 59.3961 49.7373C59.1901 49.7169 59.0177 49.8164 58.9612 50.0343C58.9043 50.254 58.9867 50.4374 59.1788 50.546C59.4099 50.6768 59.6548 50.7832 59.8949 50.8978C60.4242 51.1505 60.5696 51.6284 60.2599 52.1533Z" fill="#3CAABF"/>
<path d="M80.408 58.5V43.692H74.672V41.22H89.264V43.692H83.528V58.5H80.408ZM96.3416 58.5C96.2616 58.18 96.1976 57.828 96.1496 57.444C96.1176 57.06 96.1016 56.596 96.1016 56.052H96.0056V50.244C96.0056 49.604 95.8216 49.124 95.4536 48.804C95.1016 48.468 94.5576 48.3 93.8216 48.3C93.1016 48.3 92.5256 48.436 92.0936 48.708C91.6776 48.964 91.4216 49.34 91.3256 49.836H88.4216C88.5496 48.7 89.0936 47.78 90.0536 47.076C91.0136 46.372 92.3016 46.02 93.9176 46.02C95.5976 46.02 96.8696 46.404 97.7336 47.172C98.5976 47.924 99.0296 49.036 99.0296 50.508V56.052C99.0296 56.436 99.0536 56.828 99.1016 57.228C99.1656 57.628 99.2536 58.052 99.3656 58.5H96.3416ZM92.0936 58.74C90.8616 58.74 89.8776 58.436 89.1416 57.828C88.4216 57.204 88.0616 56.372 88.0616 55.332C88.0616 54.212 88.4696 53.324 89.2856 52.668C90.1016 52.012 91.2536 51.572 92.7416 51.348L96.5576 50.772V52.692L93.2456 53.196C92.5256 53.308 91.9816 53.508 91.6136 53.796C91.2616 54.084 91.0856 54.484 91.0856 54.996C91.0856 55.46 91.2536 55.82 91.5896 56.076C91.9256 56.316 92.3896 56.436 92.9816 56.436C93.8456 56.436 94.5656 56.22 95.1416 55.788C95.7176 55.356 96.0056 54.828 96.0056 54.204L96.3416 56.052C96.0216 56.932 95.4936 57.604 94.7576 58.068C94.0376 58.516 93.1496 58.74 92.0936 58.74ZM109.906 58.5L106.138 53.028L101.05 46.26H104.482L107.89 51.228L113.338 58.5H109.906ZM106.378 51.132L109.81 46.26H113.17L107.842 53.244L106.378 51.132ZM107.578 53.388L103.882 58.5H100.546L106.138 51.252L107.578 53.388ZM115.1 58.5V46.26H118.124V58.5H115.1ZM114.956 44.244V40.908H118.244V44.244H114.956ZM121.335 58.5V46.26H124.287V49.14H124.359V58.5H121.335ZM129.927 58.5V50.772C129.927 50.02 129.735 49.452 129.351 49.068C128.967 48.684 128.407 48.492 127.671 48.492C127.031 48.492 126.455 48.636 125.943 48.924C125.447 49.212 125.055 49.612 124.767 50.124C124.495 50.636 124.359 51.228 124.359 51.9L124.047 48.972C124.463 48.076 125.071 47.364 125.871 46.836C126.671 46.292 127.631 46.02 128.751 46.02C130.079 46.02 131.111 46.396 131.847 47.148C132.599 47.9 132.975 48.9 132.975 50.148V58.5H129.927ZM135.936 58.5V46.26H138.96V58.5H135.936ZM135.792 44.244V40.908H139.08V44.244H135.792ZM147.428 58.74C146.196 58.74 145.108 58.468 144.164 57.924C143.236 57.38 142.5 56.628 141.956 55.668C141.428 54.692 141.164 53.588 141.164 52.356C141.164 51.124 141.428 50.036 141.956 49.092C142.5 48.132 143.236 47.38 144.164 46.836C145.108 46.292 146.196 46.02 147.428 46.02C148.436 46.02 149.348 46.212 150.164 46.596C150.98 46.964 151.652 47.492 152.18 48.18C152.708 48.852 153.044 49.636 153.188 50.532H150.284C150.108 49.876 149.772 49.364 149.276 48.996C148.78 48.628 148.18 48.444 147.476 48.444C146.82 48.444 146.252 48.604 145.772 48.924C145.308 49.244 144.948 49.7 144.692 50.292C144.436 50.884 144.308 51.572 144.308 52.356C144.308 53.156 144.436 53.852 144.692 54.444C144.948 55.036 145.316 55.5 145.796 55.836C146.276 56.156 146.836 56.316 147.476 56.316C148.18 56.316 148.78 56.132 149.276 55.764C149.772 55.396 150.108 54.884 150.284 54.228H153.188C153.044 55.124 152.7 55.916 152.156 56.604C151.628 57.276 150.956 57.804 150.14 58.188C149.34 58.556 148.436 58.74 147.428 58.74ZM160.046 58.74C158.35 58.74 156.998 58.388 155.99 57.684C154.982 56.964 154.43 55.972 154.334 54.708H157.094C157.174 55.332 157.47 55.804 157.982 56.124C158.494 56.444 159.182 56.604 160.046 56.604C160.83 56.604 161.414 56.484 161.798 56.244C162.198 55.988 162.398 55.628 162.398 55.164C162.398 54.828 162.286 54.556 162.062 54.348C161.838 54.124 161.414 53.94 160.79 53.796L158.822 53.34C157.478 53.052 156.478 52.604 155.822 51.996C155.182 51.372 154.862 50.596 154.862 49.668C154.862 48.532 155.294 47.644 156.158 47.004C157.038 46.348 158.246 46.02 159.782 46.02C161.302 46.02 162.518 46.348 163.43 47.004C164.358 47.644 164.87 48.532 164.966 49.668H162.206C162.126 49.172 161.87 48.796 161.438 48.54C161.022 48.284 160.446 48.156 159.71 48.156C159.022 48.156 158.502 48.268 158.15 48.492C157.798 48.7 157.622 49.012 157.622 49.428C157.622 49.748 157.758 50.02 158.03 50.244C158.302 50.452 158.758 50.636 159.398 50.796L161.51 51.276C162.71 51.548 163.614 52.02 164.222 52.692C164.846 53.364 165.158 54.156 165.158 55.068C165.158 56.236 164.71 57.14 163.814 57.78C162.918 58.42 161.662 58.74 160.046 58.74Z" fill="#2B2B2B"/>
</g>
<defs>
<filter id="filter0_d_368_118400" x="-2" y="0" width="218" height="108" filterUnits="userSpaceOnUse" color-interpolation-filters="sRGB">
<feFlood flood-opacity="0" result="BackgroundImageFix"/>
<feColorMatrix in="SourceAlpha" type="matrix" values="0 0 0 0 0 0 0 0 0 0 0 0 0 0 0 0 0 0 127 0" result="hardAlpha"/>
<feOffset dy="4"/>
<feGaussianBlur stdDeviation="11"/>
<feComposite in2="hardAlpha" operator="out"/>
<feColorMatrix type="matrix" values="0 0 0 0 0 0 0 0 0 0 0 0 0 0 0 0 0 0 0.02 0"/>
<feBlend mode="normal" in2="BackgroundImageFix" result="effect1_dropShadow_368_118400"/>
<feBlend mode="normal" in="SourceGraphic" in2="effect1_dropShadow_368_118400" result="shape"/>
</filter>
</defs>
</svg>
