<svg width="268" height="148" viewBox="0 0 268 148" fill="none" xmlns="http://www.w3.org/2000/svg">
<g filter="url(#filter0_d_368_118399)">
<rect x="20" y="18" width="228" height="104" rx="16" fill="white" shape-rendering="crispEdges"/>
<path d="M66.3148 110.65C65.7557 110.896 65.1967 111.143 64.6376 111.389C64.6083 111.369 64.579 111.35 64.5496 111.33C64.6416 111.193 64.714 111.036 64.8284 110.921C68.9039 106.828 72.1133 102.147 74.3541 96.818C76.3089 92.1693 77.2468 87.3259 76.9898 82.277C76.7916 78.3809 75.837 74.647 74.3928 71.0398C71.2134 63.0984 66.0595 56.6253 59.5297 51.1878C57.517 49.5117 55.3995 47.9828 53.1313 46.6676C52.984 46.5822 52.8505 46.473 52.6011 46.2979C52.907 46.3206 53.0904 46.3148 53.2655 46.35C56.1388 46.927 58.9994 47.577 61.8864 48.0734C65.6684 48.7237 69.4844 49.0241 73.3313 48.9127C77.899 48.7805 81.7865 47.0293 85.1851 44.0678C85.7284 43.5943 86.2295 43.0725 86.8112 42.5754C86.9476 42.9187 87.0647 43.2563 87.0911 43.6009C87.2106 45.158 87.3286 46.7159 87.3989 48.2757C87.4446 49.2915 87.4077 50.3111 87.4077 51.3289C87.4077 53.1561 87.408 54.9833 87.4067 56.8105C87.4066 56.9704 87.3874 57.1305 87.3923 57.29C87.3969 57.434 87.3773 57.6638 87.449 57.7012C87.5615 57.7598 87.7548 57.721 87.8911 57.6665C88.4963 57.4242 89.0758 57.1022 89.697 56.9184C91.1202 56.4972 92.5706 56.1933 94.0695 56.2232C100.365 56.0198 106.316 60.1733 108.337 66.182C111.029 74.1834 106.841 82.5718 98.8189 85.1923C95.7679 86.1888 92.6985 86.1098 89.5751 85.1311C87.3204 84.2743 85.3171 83.1537 83.7151 81.4058C83.5335 81.2077 83.3713 81.227 83.2844 81.479C83.1394 81.8993 83.0361 82.3342 82.8861 82.7525C82.2082 84.6432 81.5857 86.5574 80.8171 88.4108C80.0614 90.2332 79.2198 92.0277 78.2956 93.7707C77.1603 95.9118 75.9533 98.0196 74.6763 100.079C73.7629 101.553 72.713 102.945 71.6692 104.333C70.7403 105.568 69.7449 106.753 68.7607 107.945C68.4055 108.375 67.9907 108.756 67.6155 109.17C67.1749 109.657 66.7478 110.156 66.3148 110.65ZM91.5347 65.9459C91.5347 65.9459 91.5232 65.9452 91.4908 65.9581C91.4702 65.9707 91.4561 65.9885 91.415 66.0441C91.415 66.0441 91.3727 66.0639 91.3072 66.0616C91.2677 66.1055 91.2281 66.1493 91.1642 66.224C91.1446 66.2422 91.1222 66.2555 91.0417 66.2738C91.0224 66.3041 91.0031 66.3345 90.9469 66.4055C90.8728 66.4576 90.7987 66.5098 90.6647 66.5698C90.6472 66.6038 90.6298 66.6378 90.5747 66.7178C90.4994 66.7796 90.4241 66.8414 90.3 66.9165C90.2711 66.955 90.2422 66.9934 90.2089 67.0141C90.2089 67.0141 90.2157 67.0311 90.1477 67.0273C90.0377 67.1527 89.9276 67.278 89.8148 67.4C89.8148 67.4 89.8183 67.4025 89.7559 67.4089C89.7128 67.4711 89.6697 67.5333 89.6225 67.5934C89.6225 67.5934 89.6256 67.5969 89.5615 67.6047C89.5222 67.6714 89.4828 67.7382 89.4233 67.8423C89.4058 67.8654 89.384 67.8829 89.3036 67.9103C89.2794 67.9583 89.2552 68.0063 89.1985 68.0931C89.1616 68.1277 89.1247 68.1622 89.0208 68.2034C88.9668 68.2915 88.9129 68.3797 88.8309 68.526C87.8557 69.7913 87.0711 71.1533 86.5762 72.6858C86.1613 73.9707 86.5039 75.0558 87.3359 76.025C88.3433 77.1987 89.7004 77.8294 91.138 78.2623C93.9103 79.097 96.7369 79.2772 99.5953 78.7756C100.919 78.5434 102.183 78.1356 103.273 77.3203C104.371 76.4991 105.029 75.4309 104.806 74.0123C104.489 71.9969 103.643 70.1937 102.463 68.5387C101.618 67.3539 100.58 66.361 99.4488 65.3983C99.4515 65.3381 99.4542 65.2779 99.5259 65.2102C99.5953 65.2078 99.6647 65.2054 99.7735 65.2386C99.8197 65.1846 99.8658 65.1307 99.9244 65.088C99.9244 65.088 99.9116 65.0765 99.9469 65.0739C99.956 65.0666 99.9736 65.0574 99.9725 65.0523C99.968 65.0314 99.9577 65.0118 99.9488 64.92C99.8797 64.8022 99.8106 64.6844 99.7145 64.505C99.5167 64.4355 99.3189 64.3661 99.1273 64.2948C99.1273 64.2948 99.1336 64.2961 99.188 64.2832C99.2003 64.2499 99.2126 64.2166 99.2359 64.1353C99.2595 64.0925 99.2831 64.0497 99.3768 63.9955C99.4221 63.8978 99.4675 63.8001 99.5197 63.6708C99.5197 63.6708 99.5374 63.6437 99.5843 63.6139C99.5937 63.5791 99.6032 63.5444 99.6204 63.4787C99.6204 63.4787 99.6394 63.453 99.6831 63.4253C99.6945 63.3938 99.7059 63.3623 99.7272 63.2942C99.7272 63.2942 99.7461 63.2612 99.7869 63.2342C99.7977 63.2042 99.8085 63.1743 99.8302 63.1076C99.8302 63.1076 99.8502 63.0749 99.9088 63.0603C99.9317 63.011 99.9545 62.9617 99.9887 62.8655C100.004 62.8374 100.02 62.8094 100.1 62.7662C100.128 62.6913 100.156 62.6164 100.191 62.5112C100.191 62.5112 100.209 62.4864 100.277 62.4769C100.35 62.318 100.423 62.1591 100.504 62.0054C100.504 62.0054 100.496 62.0019 100.544 61.9778C100.556 61.9453 100.568 61.9128 100.588 61.8459C100.588 61.8459 100.605 61.8151 100.649 61.7853C100.658 61.7524 100.667 61.7194 100.688 61.6533C100.688 61.6533 100.711 61.6267 100.775 61.6117C100.774 61.49 100.773 61.3683 100.715 61.2359C100.68 61.22 100.645 61.204 100.585 61.1304C100.366 61.0981 100.148 61.0659 99.8435 61.037C99.614 61.0343 99.3845 61.0316 99.0965 60.9824C98.6957 61.049 98.295 61.1155 97.8345 61.2064C97.7918 61.2102 97.749 61.214 97.6559 61.1775C97.2058 61.2742 96.7572 61.3791 96.305 61.4644C96.0629 61.51 95.8144 61.5217 95.5899 61.5484C95.5899 61.5484 95.5692 61.5524 95.5584 61.485C95.4303 61.4098 95.3021 61.3346 95.1414 61.2499C95.1414 61.2499 95.1134 61.2307 95.1001 61.1651C95.0039 61.1279 94.9077 61.0908 94.7694 61.0402C94.7694 61.0402 94.731 61.0185 94.7116 60.955C94.5395 60.9027 94.3675 60.8504 94.1458 60.792C94.1145 60.7808 94.0833 60.7695 94.0121 60.706C93.834 60.6872 93.6559 60.6684 93.4002 60.6558C93.2966 60.652 93.193 60.6481 93.071 60.6161C93.0447 60.6261 93.0184 60.6361 92.9278 60.6544C92.8847 60.6521 92.8416 60.6498 92.7414 60.5996C92.4691 60.6358 92.1968 60.6721 91.8596 60.7348C91.8379 60.7433 91.8161 60.7519 91.7569 60.8104C91.8275 60.946 91.8981 61.0816 91.9981 61.243C91.9981 61.243 92.0186 61.2763 92.0216 61.3408C92.0869 61.4348 92.1521 61.5289 92.2385 61.6516C92.2385 61.6516 92.2494 61.6856 92.2395 61.75C92.2769 61.7944 92.3143 61.8389 92.344 61.9077C92.344 61.9077 92.3556 61.885 92.34 61.9482C92.3952 62.001 92.4503 62.0538 92.5231 62.1374C92.5231 62.1374 92.5301 62.1721 92.5193 62.2455C92.6539 62.4473 92.7885 62.6492 92.91 62.8582C92.91 62.8582 92.9248 62.8564 92.9146 62.9208C92.957 62.9599 92.9993 62.999 93.0709 63.067C93.0877 63.0894 93.0987 63.1144 93.0987 63.205C93.1371 63.2471 93.1755 63.2893 93.1966 63.3307C93.1966 63.3307 93.2132 63.3335 93.2155 63.3848C93.2407 63.4065 93.2658 63.4281 93.3066 63.4741C93.3066 63.4741 93.3103 63.5028 93.311 63.5696C93.3699 63.6576 93.4289 63.7457 93.4983 63.8676C93.4983 63.8676 93.5033 63.9026 93.4582 63.9622C93.3028 64.0148 93.1474 64.0673 92.9246 64.1254C92.8352 64.137 92.7459 64.1485 92.594 64.1636C92.5679 64.2157 92.5417 64.2677 92.5077 64.3913C92.5148 64.4867 92.5219 64.5821 92.5497 64.731C92.585 64.7407 92.6202 64.7504 92.7056 64.7673C92.7375 64.7782 92.7694 64.7892 92.7993 64.8697C92.6801 65.0171 92.561 65.1644 92.4193 65.2952C92.4193 65.2952 92.4392 65.3148 92.3699 65.2998C92.2239 65.4192 92.0779 65.5386 91.9035 65.6791C91.9035 65.6791 91.87 65.6904 91.8035 65.6831C91.7498 65.7409 91.6961 65.7986 91.6445 65.8592C91.6445 65.8592 91.6417 65.8573 91.599 65.8704C91.5716 65.8852 91.5521 65.907 91.5347 65.9459Z" fill="#2CA7BF"/>
<path d="M74.0862 88.1123C72.6097 82.0243 69.7132 76.68 65.5952 71.9868C60.3952 66.0604 53.9273 61.9835 46.6451 59.1278C44.9037 58.4449 43.1092 57.8972 41.3393 57.287C41.267 57.2621 41.1959 57.2336 41.063 57.1837C42.3179 56.75 43.5211 56.3665 44.7005 55.9201C47.7281 54.7743 50.7193 53.5516 53.3293 51.5695C53.455 51.4741 53.7512 51.4953 53.9144 51.5738C55.6462 52.4069 57.1862 53.5353 58.6279 54.7887C65.7556 60.9848 70.6265 68.6098 73.0856 77.748C74.0919 81.4876 74.5121 85.3015 74.4582 89.22C74.3083 88.8852 74.1973 88.4988 74.0862 88.1123Z" fill="#020202"/>
<path d="M73.7068 88.4189C72.8631 87.3115 72.0704 86.1606 71.167 85.1044C67.2503 80.5259 62.4648 77.1197 56.9507 74.7233C52.728 72.8882 48.3115 71.7839 43.7464 71.2297C40.4717 70.8321 37.1879 70.7825 33.8978 70.8862C33.1794 70.9089 32.4623 70.9721 31.6431 71.023C32.1514 70.6115 32.5991 70.2588 33.0364 69.8935C35.7364 67.6381 38.3648 65.311 40.4513 62.4448C40.5646 62.2892 40.7167 62.145 40.7763 61.9702C41.0813 61.0763 41.747 61.1503 42.4758 61.2712C44.4308 61.5953 46.319 62.1561 48.1618 62.8668C53.953 65.1004 59.0831 68.3798 63.5676 72.6694C67.7715 76.6907 71.0358 81.3683 73.3495 86.7063C73.5375 87.1402 73.6716 87.5975 73.8288 88.1154C73.7869 88.2642 73.7469 88.3415 73.7068 88.4189Z" fill="#2DA7BF"/>
<path d="M72.9696 28.8815C76.6383 28.8034 79.9786 31.2234 80.7278 35.1224C81.242 37.7985 80.4773 40.178 78.4978 42.0871C75.4291 45.0469 70.6218 44.9651 67.6557 41.9044C66.3898 40.5981 65.6931 39.0183 65.534 37.1804C65.1959 33.2745 67.8899 29.7732 71.7347 29.0039C72.1235 28.9261 72.5266 28.9205 72.9696 28.8815Z" fill="#000101"/>
<path d="M66.3501 110.645C66.7478 110.156 67.1749 109.657 67.6155 109.17C67.9907 108.756 68.4055 108.375 68.7607 107.945C69.7449 106.753 70.7403 105.568 71.6692 104.333C72.713 102.945 73.7629 101.553 74.6763 100.079C75.9533 98.0198 77.1603 95.912 78.2956 93.7708C79.2198 92.0279 80.0614 90.2334 80.8171 88.411C81.5857 86.5576 82.2082 84.6433 82.8861 82.7527C83.0361 82.3343 83.1394 81.8994 83.2844 81.4791C83.3713 81.2272 83.5335 81.2078 83.7151 81.406C85.3171 83.1539 87.3204 84.2745 89.5427 85.1248C86.8812 92.0399 83.0232 98.1703 77.5329 103.206C74.204 106.26 70.4835 108.735 66.3501 110.645Z" fill="#2B9EB5"/>
<path d="M94.0595 56.1846C92.5704 56.1934 91.12 56.4972 89.6968 56.9184C89.0756 57.1022 88.4961 57.4242 87.8909 57.6665C87.7546 57.7211 87.5613 57.7599 87.4488 57.7012C87.3771 57.6638 87.3967 57.4341 87.3922 57.29C87.3872 57.1305 87.4064 56.9704 87.4065 56.8106C87.4078 54.9834 87.4075 53.1562 87.4075 51.329C87.4075 50.3111 87.4445 49.2916 87.3987 48.2758C87.3284 46.716 87.2104 45.158 87.0909 43.601C87.0645 43.2564 86.9474 42.9187 86.8394 42.5614C87.9578 41.1869 89.064 39.7951 89.8861 38.2056C90.2603 37.4821 90.5921 36.7367 90.9689 35.947C91.0397 36.1585 91.1298 36.3503 91.1677 36.552C91.7466 39.6323 92.3831 42.7037 92.8726 45.7983C93.2824 48.3885 93.5253 51.0054 93.8276 53.6121C93.9252 54.454 93.977 55.3012 94.0595 56.1846Z" fill="#2B9EB5"/>
<path d="M73.7158 88.4509C73.7468 88.3415 73.7869 88.2641 73.8287 88.1525C73.8873 88.1195 73.9439 88.1208 74.0433 88.1172C74.1969 88.4987 74.3079 88.8852 74.459 89.265C74.3957 89.2554 74.2364 89.2936 74.1987 89.2423C74.0224 89.0027 73.8796 88.7384 73.7158 88.4509Z" fill="#68A7B3"/>
<path d="M89.3577 67.8949C89.384 67.8829 89.4059 67.8654 89.462 67.8147C89.5424 67.7238 89.584 67.6604 89.6257 67.5969C89.6257 67.5969 89.6226 67.5934 89.6529 67.5861C89.7283 67.5201 89.7733 67.4613 89.8183 67.4025C89.8183 67.4025 89.8149 67.4 89.8467 67.3935C89.9909 67.2683 90.1034 67.1497 90.2158 67.0311C90.2158 67.0311 90.209 67.0141 90.2364 67.0179C90.2922 66.9822 90.3205 66.9427 90.3489 66.9032C90.4242 66.8414 90.4995 66.7796 90.6174 66.6822C90.6816 66.6183 90.7031 66.5901 90.7247 66.5619C90.7988 66.5098 90.8729 66.4576 90.9907 66.3766C91.0553 66.3198 91.0761 66.2918 91.0969 66.2638C91.1223 66.2554 91.1447 66.2422 91.2042 66.1999C91.287 66.1384 91.3299 66.1012 91.3728 66.0639C91.3728 66.0639 91.4151 66.0441 91.4506 66.0259C91.5112 65.9945 91.5236 65.9736 91.5233 65.9452C91.5233 65.9452 91.5348 65.9459 91.5617 65.9396C91.6204 65.9178 91.6381 65.8924 91.6417 65.8572C91.6417 65.8572 91.6446 65.8592 91.6732 65.8536C91.7579 65.7955 91.814 65.7429 91.8701 65.6904C91.8701 65.6904 91.9036 65.6791 91.9498 65.6659C92.1438 65.5401 92.2916 65.4275 92.4393 65.3148C92.4393 65.3148 92.4194 65.2952 92.4635 65.2989C92.8804 65.0462 93.2826 65.0235 93.7291 65.0591C95.0161 65.1616 96.3075 65.2078 97.5962 65.2903C98.2148 65.3299 98.8313 65.4015 99.4488 65.4586C100.58 66.361 101.618 67.3539 102.463 68.5386C103.643 70.1937 104.489 71.9969 104.806 74.0123C105.03 75.4309 104.371 76.4991 103.273 77.3203C102.183 78.1356 100.919 78.5434 99.5954 78.7756C96.737 79.2771 93.9104 79.097 91.1381 78.2623C89.7005 77.8294 88.3434 77.1987 87.336 76.025C86.504 75.0558 86.1614 73.9707 86.5763 72.6857C87.0712 71.1533 87.8558 69.7913 88.8749 68.4878C88.9752 68.3653 89.0316 68.2811 89.088 68.1968C89.1248 68.1622 89.1617 68.1276 89.2407 68.065C89.3078 67.9896 89.3328 67.9422 89.3577 67.8949ZM97.5588 74.1182C98.1341 73.136 97.8541 72.2156 96.8348 71.729C96.3724 71.5082 95.9007 71.3032 95.4556 71.0514C95.0856 70.8421 94.927 70.4889 95.0366 70.0659C95.1453 69.6461 95.4773 69.4545 95.8741 69.4939C96.342 69.5403 96.802 69.6724 97.2633 69.7767C97.3796 69.803 97.488 69.8646 97.6018 69.9106C97.8081 69.3177 97.7333 69.1462 97.0881 68.9579C96.7593 68.862 96.681 68.7047 96.7518 68.4072C96.7815 68.2826 96.8401 68.1473 96.815 68.0323C96.7903 67.9196 96.6824 67.7493 96.5995 67.7425C96.4702 67.7317 96.2998 67.8071 96.2064 67.9036C96.1308 67.9818 96.1149 68.1464 96.1214 68.2701C96.1432 68.6853 95.9257 68.7976 95.549 68.8492C94.8999 68.9381 94.4128 69.2686 94.2489 69.9548C94.0447 70.8102 94.4136 71.4746 95.3282 71.9047C95.7475 72.1019 96.1753 72.2858 96.5763 72.5157C96.9372 72.7225 97.094 73.1063 96.9401 73.4679C96.8247 73.739 96.5359 74.0767 96.2809 74.1181C95.797 74.1966 95.276 74.1197 94.7821 74.0371C94.5003 73.99 94.2416 73.8043 93.9733 73.6814C93.7382 74.2023 93.7654 74.469 94.1907 74.5628C94.9016 74.7196 95.1258 75.06 94.9252 75.7434C94.9036 75.8171 95.0597 76.027 95.1308 76.0258C95.2641 76.0234 95.4363 75.9437 95.516 75.8383C95.5925 75.7371 95.5835 75.5635 95.5926 75.4205C95.615 75.0706 95.743 74.8892 96.1436 74.8699C96.685 74.8439 97.172 74.6301 97.5588 74.1182Z" fill="#EBF7F9"/>
<path d="M93.0893 60.6443C93.193 60.6481 93.2966 60.6519 93.466 60.677C93.7053 60.7183 93.8786 60.7383 94.052 60.7583C94.0833 60.7695 94.1145 60.7807 94.1911 60.8202C94.4012 60.9051 94.5661 60.9618 94.731 61.0185C94.731 61.0185 94.7694 61.0402 94.8057 61.0735C94.9324 61.1481 95.0229 61.1894 95.1134 61.2307C95.1134 61.2307 95.1414 61.2499 95.1698 61.2847C95.3219 61.3971 95.4456 61.4747 95.5692 61.5523C95.5692 61.5523 95.5899 61.5484 95.5935 61.582C95.7123 61.6503 95.8405 61.7365 95.9404 61.7112C96.5327 61.561 97.1184 61.385 97.7063 61.2177C97.749 61.2139 97.7918 61.2102 97.903 61.204C98.3659 61.1441 98.7605 61.0865 99.1551 61.0289C99.3845 61.0316 99.614 61.0343 99.9119 61.0591C100.19 61.1169 100.4 61.1525 100.61 61.1881C100.645 61.204 100.68 61.2199 100.751 61.2738C100.761 61.4167 100.736 61.5217 100.711 61.6267C100.711 61.6267 100.688 61.6533 100.661 61.685C100.624 61.7495 100.615 61.7823 100.605 61.815C100.605 61.815 100.588 61.8459 100.561 61.8766C100.522 61.9389 100.509 61.9704 100.496 62.0019C100.496 62.0019 100.504 62.0053 100.473 62.0192C100.364 62.1842 100.287 62.3353 100.209 62.4864C100.209 62.4864 100.191 62.5112 100.161 62.5419C100.1 62.6421 100.068 62.7117 100.035 62.7813C100.02 62.8093 100.004 62.8374 99.959 62.9021C99.903 62.9842 99.8766 63.0295 99.8502 63.0749C99.8502 63.0749 99.8302 63.1075 99.8032 63.1385C99.7661 63.2001 99.7561 63.2306 99.7461 63.2612C99.7461 63.2612 99.7272 63.2941 99.7006 63.3262C99.6624 63.3899 99.6509 63.4215 99.6394 63.453C99.6394 63.453 99.6204 63.4787 99.5952 63.511C99.5592 63.5767 99.5483 63.6102 99.5374 63.6436C99.5374 63.6436 99.5197 63.6708 99.4891 63.7029C99.4078 63.8257 99.3572 63.9163 99.3066 64.0069C99.2831 64.0497 99.2595 64.0925 99.2089 64.1725C99.1658 64.2385 99.1497 64.2673 99.1336 64.2961C99.1336 64.2961 99.1273 64.2947 99.0864 64.2958C98.6313 64.271 98.2168 64.2486 97.8029 64.2186C96.3696 64.1147 94.9365 64.0081 93.5033 63.9026C93.5033 63.9026 93.4983 63.8675 93.4919 63.8178C93.4271 63.6796 93.3687 63.5912 93.3103 63.5027C93.3103 63.5027 93.3066 63.4741 93.2958 63.4368C93.2611 63.3776 93.2371 63.3555 93.2132 63.3335C93.2132 63.3335 93.1966 63.3306 93.2002 63.3032C93.1706 63.2311 93.1373 63.1864 93.104 63.1418C93.0987 63.1143 93.0877 63.0894 93.0488 63.0256C92.9927 62.9416 92.9588 62.899 92.9248 62.8564C92.9248 62.8564 92.91 62.8582 92.912 62.8215C92.786 62.5806 92.658 62.3764 92.5301 62.1721C92.5301 62.1721 92.5231 62.1374 92.5136 62.0931C92.4546 61.9943 92.4051 61.9396 92.3556 61.885C92.3556 61.885 92.344 61.9077 92.3447 61.8668C92.3134 61.7791 92.2814 61.7323 92.2494 61.6855C92.2494 61.6855 92.2386 61.6516 92.2253 61.6068C92.1476 61.4668 92.0831 61.3716 92.0186 61.2763C92.0186 61.2763 91.9981 61.243 91.9776 61.1955C91.9029 61.0188 91.8487 60.8897 91.7944 60.7605C91.8162 60.7519 91.8379 60.7433 91.9314 60.7335C92.2683 60.7041 92.5334 60.6758 92.7985 60.6476C92.8416 60.6498 92.8847 60.6521 92.9844 60.6565C93.0571 60.6539 93.0732 60.6491 93.0893 60.6443Z" fill="#E8F6F9"/>
<path d="M92.5287 64.6776C92.5216 64.5822 92.5145 64.4868 92.535 64.3422C92.5938 64.2488 92.625 64.2044 92.6562 64.1601C92.7456 64.1486 92.8349 64.1371 92.9941 64.1401C93.62 64.1932 94.1759 64.2356 94.7322 64.2692C96.4018 64.3702 98.0715 64.4678 99.7412 64.5667C99.8103 64.6845 99.8794 64.8023 99.9345 64.9749C99.9204 65.0298 99.9112 65.0766 99.9112 65.0766C99.9112 65.0766 99.9241 65.0881 99.8924 65.0929C99.8185 65.1328 99.7762 65.168 99.7338 65.2031C99.6644 65.2055 99.595 65.208 99.4511 65.1993C98.6786 65.1371 97.981 65.0766 97.2823 65.037C95.7888 64.9523 94.2948 64.8785 92.8009 64.8002C92.7691 64.7893 92.7372 64.7784 92.664 64.7436C92.5913 64.7058 92.56 64.6917 92.5287 64.6776Z" fill="#DDF5FA"/>
<path d="M92.8002 64.835C94.295 64.8784 95.7891 64.9522 97.2825 65.0369C97.9813 65.0765 98.6788 65.137 99.4168 65.203C99.4541 65.278 99.4514 65.3382 99.4487 65.4285C98.8312 65.4016 98.2147 65.33 97.5961 65.2904C96.3073 65.2079 95.0159 65.1617 93.7289 65.0592C93.2824 65.0236 92.8802 65.0463 92.4746 65.3073C92.5609 65.1645 92.6801 65.0171 92.8002 64.835Z" fill="#66B1C0"/>
<path d="M99.7281 64.5357C98.072 64.4677 96.4022 64.3701 94.7327 64.2691C94.1763 64.2354 93.6205 64.193 93.0283 64.1372C93.1476 64.0673 93.303 64.0147 93.4809 63.9324C94.9366 64.0081 96.3698 64.1147 97.8031 64.2186C98.217 64.2486 98.6314 64.271 99.0835 64.2968C99.3191 64.366 99.5168 64.4355 99.7281 64.5357Z" fill="#64B1C1"/>
<path d="M97.6811 61.1978C97.1184 61.3852 96.5327 61.5612 95.9404 61.7113C95.8405 61.7367 95.7123 61.6504 95.583 61.5823C95.8144 61.5218 96.0629 61.5101 96.305 61.4645C96.7572 61.3793 97.2058 61.2743 97.6811 61.1978Z" fill="#64B1C1"/>
<path d="M99.1256 61.0056C98.7603 61.0865 98.3657 61.144 97.9326 61.1918C98.2948 61.1155 98.6955 61.0489 99.1256 61.0056Z" fill="#64B1C1"/>
<path d="M92.77 60.6235C92.5334 60.6758 92.2684 60.7041 91.9639 60.7203C92.1968 60.672 92.4691 60.6358 92.77 60.6235Z" fill="#64B1C1"/>
<path d="M100.598 61.1593C100.4 61.1526 100.19 61.1171 99.9551 61.0576C100.148 61.066 100.367 61.0982 100.598 61.1593Z" fill="#64B1C1"/>
<path d="M92.5244 62.209C92.6578 62.3765 92.7857 62.5808 92.9182 62.8181C92.7882 62.6493 92.6536 62.4475 92.5244 62.209Z" fill="#64B1C1"/>
<path d="M92.4045 65.3074C92.2914 65.4276 92.1437 65.5402 91.9639 65.6555C92.0778 65.5387 92.2238 65.4193 92.4045 65.3074Z" fill="#66B1C0"/>
<path d="M90.1814 67.0293C90.103 67.1498 89.9905 67.2684 89.8477 67.3952C89.9273 67.2781 90.0374 67.1527 90.1814 67.0293Z" fill="#66B1C0"/>
<path d="M94.0321 60.7323C93.8787 60.7384 93.7053 60.7184 93.5049 60.674C93.6559 60.6685 93.834 60.6873 94.0321 60.7323Z" fill="#64B1C1"/>
<path d="M100.243 62.4816C100.287 62.3353 100.364 62.1841 100.469 62.0166C100.423 62.1591 100.35 62.318 100.243 62.4816Z" fill="#64B1C1"/>
<path d="M94.7213 60.9867C94.5661 60.9618 94.4012 60.9051 94.2158 60.8232C94.3674 60.8504 94.5395 60.9027 94.7213 60.9867Z" fill="#64B1C1"/>
<path d="M95.5637 61.5188C95.4455 61.4749 95.3218 61.3972 95.186 61.2896C95.302 61.3347 95.4302 61.4099 95.5637 61.5188Z" fill="#64B1C1"/>
<path d="M91.7754 60.7854C91.8484 60.8896 91.9026 61.0188 91.9626 61.1825C91.8978 61.0815 91.8272 60.9459 91.7754 60.7854Z" fill="#64B1C1"/>
<path d="M92.02 61.3086C92.083 61.3716 92.1475 61.4669 92.2147 61.5925C92.1521 61.5289 92.0868 61.4349 92.02 61.3086Z" fill="#64B1C1"/>
<path d="M100.743 61.6193C100.736 61.5218 100.761 61.4168 100.779 61.2793C100.773 61.3684 100.774 61.4901 100.743 61.6193Z" fill="#64B1C1"/>
<path d="M89.0542 68.2002C89.0313 68.2812 88.975 68.3654 88.8887 68.4588C88.9127 68.3798 88.9667 68.2916 89.0542 68.2002Z" fill="#66B1C0"/>
<path d="M99.3418 64.0012C99.3573 63.9163 99.4079 63.8257 99.4857 63.7188C99.4675 63.8001 99.4222 63.8978 99.3418 64.0012Z" fill="#64B1C1"/>
<path d="M95.1068 61.198C95.0229 61.1895 94.9324 61.1482 94.8267 61.0803C94.9077 61.0909 95.0039 61.128 95.1068 61.198Z" fill="#64B1C1"/>
<path d="M92.3477 61.9167C92.4049 61.9398 92.4545 61.9944 92.5047 62.0779C92.4502 62.054 92.395 62.0012 92.3477 61.9167Z" fill="#64B1C1"/>
<path d="M93.3105 63.5361C93.3686 63.5912 93.427 63.6796 93.4865 63.8009C93.4288 63.7456 93.3698 63.6576 93.3105 63.5361Z" fill="#64B1C1"/>
<path d="M89.7869 67.4058C89.7731 67.4614 89.7281 67.5202 89.6548 67.5873C89.6696 67.5333 89.7127 67.4712 89.7869 67.4058Z" fill="#66B1C0"/>
<path d="M91.8366 65.6868C91.8137 65.7429 91.7576 65.7955 91.6719 65.8522C91.6959 65.7986 91.7497 65.7409 91.8366 65.6868Z" fill="#66B1C0"/>
<path d="M89.5937 67.6008C89.584 67.6604 89.5424 67.7238 89.4722 67.7961C89.4829 67.7382 89.5223 67.6715 89.5937 67.6008Z" fill="#66B1C0"/>
<path d="M100.067 62.7739C100.067 62.7118 100.1 62.6422 100.158 62.5571C100.156 62.6165 100.128 62.6914 100.067 62.7739Z" fill="#64B1C1"/>
<path d="M99.7539 65.2208C99.7766 65.1679 99.8189 65.1327 99.8867 65.0872C99.8659 65.1307 99.8198 65.1847 99.7539 65.2208Z" fill="#64B1C1"/>
<path d="M90.3241 66.9099C90.3202 66.9427 90.2919 66.9822 90.2383 67.0268C90.2419 66.9934 90.2709 66.955 90.3241 66.9099Z" fill="#66B1C0"/>
<path d="M91.3399 66.0627C91.3298 66.1012 91.2869 66.1384 91.2163 66.1844C91.2281 66.1493 91.2676 66.1055 91.3399 66.0627Z" fill="#66B1C0"/>
<path d="M93.1011 63.1733C93.137 63.1864 93.1703 63.231 93.2086 63.3036C93.1752 63.2893 93.1368 63.2471 93.1011 63.1733Z" fill="#64B1C1"/>
<path d="M92.9194 62.8887C92.9585 62.899 92.9924 62.9416 93.0338 63.0112C92.999 62.9991 92.9567 62.96 92.9194 62.8887Z" fill="#64B1C1"/>
<path d="M89.3306 67.9026C89.3327 67.9422 89.3078 67.9895 89.2569 68.0456C89.2552 68.0063 89.2794 67.9583 89.3306 67.9026Z" fill="#66B1C0"/>
<path d="M99.8796 63.0677C99.8767 63.0297 99.9031 62.9843 99.9535 62.9258C99.9547 62.9619 99.9318 63.0111 99.8796 63.0677Z" fill="#64B1C1"/>
<path d="M92.6251 64.1619C92.6252 64.2044 92.594 64.2487 92.5391 64.3064C92.5415 64.2678 92.5677 64.2157 92.6251 64.1619Z" fill="#64B1C1"/>
<path d="M92.2441 61.7178C92.2811 61.7323 92.3131 61.7791 92.3483 61.8546C92.314 61.8389 92.2766 61.7945 92.2441 61.7178Z" fill="#64B1C1"/>
<path d="M100.627 61.8006C100.614 61.7826 100.624 61.7498 100.655 61.7017C100.667 61.7195 100.658 61.7526 100.627 61.8006Z" fill="#64B1C1"/>
<path d="M93.0805 60.6303C93.0735 60.6493 93.0573 60.6541 93.0166 60.6526C93.0185 60.6362 93.0449 60.6262 93.0805 60.6303Z" fill="#64B1C1"/>
<path d="M100.519 61.9903C100.508 61.9709 100.522 61.9392 100.557 61.894C100.568 61.913 100.556 61.9456 100.519 61.9903Z" fill="#64B1C1"/>
<path d="M90.6948 66.5659C90.7032 66.5903 90.6816 66.6186 90.636 66.6596C90.6297 66.6381 90.6472 66.604 90.6948 66.5659Z" fill="#66B1C0"/>
<path d="M91.0692 66.2688C91.076 66.2919 91.0551 66.32 91.0089 66.3567C91.0029 66.3347 91.0222 66.3043 91.0692 66.2688Z" fill="#66B1C0"/>
<path d="M91.507 65.9517C91.5236 65.9737 91.5112 65.9946 91.4671 66.0098C91.4559 65.9887 91.4701 65.9708 91.507 65.9517Z" fill="#66B1C0"/>
<path d="M91.6207 65.8638C91.6384 65.8925 91.6207 65.918 91.5647 65.9349C91.5522 65.9071 91.5718 65.8852 91.6207 65.8638Z" fill="#66B1C0"/>
<path d="M99.9292 65.0755C99.9114 65.0768 99.9206 65.0298 99.9351 65.0107C99.9578 65.0118 99.968 65.0316 99.9726 65.0525C99.9737 65.0576 99.956 65.0668 99.9292 65.0755Z" fill="#64B1C1"/>
<path d="M92.5391 64.7043C92.5601 64.6916 92.5915 64.7057 92.6393 64.7402C92.6202 64.7507 92.5848 64.741 92.5391 64.7043Z" fill="#66B1C0"/>
<path d="M99.1607 64.29C99.1495 64.2676 99.1657 64.2387 99.2035 64.1965C99.2127 64.2167 99.2003 64.2501 99.1607 64.29Z" fill="#64B1C1"/>
<path d="M99.5608 63.6293C99.5482 63.6106 99.5591 63.577 99.5913 63.5266C99.6032 63.5446 99.5938 63.5795 99.5608 63.6293Z" fill="#64B1C1"/>
<path d="M99.6609 63.4397C99.6505 63.4219 99.6621 63.3902 99.6954 63.3447C99.7058 63.3625 99.6943 63.3941 99.6609 63.4397Z" fill="#64B1C1"/>
<path d="M93.2144 63.3593C93.2372 63.3557 93.2613 63.3778 93.2883 63.4251C93.266 63.4285 93.2408 63.4068 93.2144 63.3593Z" fill="#64B1C1"/>
<path d="M99.7666 63.2481C99.7562 63.231 99.7663 63.2003 99.798 63.157C99.8088 63.1744 99.798 63.2045 99.7666 63.2481Z" fill="#64B1C1"/>
<path d="M97.5377 74.1469C97.1719 74.6301 96.685 74.8439 96.1435 74.87C95.743 74.8892 95.6149 75.0706 95.5926 75.4205C95.5834 75.5636 95.5924 75.7372 95.5159 75.8384C95.4362 75.9437 95.264 76.0234 95.1307 76.0258C95.0597 76.027 94.9035 75.8171 94.9252 75.7434C95.1258 75.0601 94.9015 74.7196 94.1907 74.5628C93.7654 74.469 93.7381 74.2023 93.9733 73.6814C94.2416 73.8043 94.5002 73.99 94.7821 74.0371C95.2759 74.1197 95.7969 74.1966 96.2809 74.1181C96.5358 74.0767 96.8246 73.7391 96.94 73.4679C97.0939 73.1063 96.9371 72.7225 96.5762 72.5157C96.1752 72.2858 95.7474 72.1019 95.3282 71.9047C94.4135 71.4746 94.0446 70.8102 94.2489 69.9548C94.4128 69.2686 94.8999 68.9381 95.549 68.8492C95.9256 68.7977 96.1432 68.6853 96.1213 68.2701C96.1148 68.1464 96.1307 67.9818 96.2063 67.9036C96.2997 67.8071 96.4702 67.7317 96.5994 67.7425C96.6823 67.7494 96.7902 67.9196 96.8149 68.0323C96.84 68.1473 96.7814 68.2827 96.7518 68.4072C96.681 68.7047 96.7593 68.862 97.088 68.9579C97.7333 69.1462 97.808 69.3177 97.6017 69.9107C97.4879 69.8646 97.3796 69.803 97.2632 69.7767C96.8019 69.6725 96.342 69.5403 95.8741 69.4939C95.4773 69.4545 95.1453 69.6461 95.0365 70.0659C94.9269 70.4889 95.0855 70.8421 95.4555 71.0514C95.9006 71.3032 96.3724 71.5082 96.8347 71.729C97.8541 72.2156 98.1341 73.136 97.5377 74.1469Z" fill="#3CAABF"/>
<path d="M130.408 78.5V63.692H124.672V61.22H139.264V63.692H133.528V78.5H130.408ZM146.342 78.5C146.262 78.18 146.198 77.828 146.15 77.444C146.118 77.06 146.102 76.596 146.102 76.052H146.006V70.244C146.006 69.604 145.822 69.124 145.454 68.804C145.102 68.468 144.558 68.3 143.822 68.3C143.102 68.3 142.526 68.436 142.094 68.708C141.678 68.964 141.422 69.34 141.326 69.836H138.422C138.55 68.7 139.094 67.78 140.054 67.076C141.014 66.372 142.302 66.02 143.918 66.02C145.598 66.02 146.87 66.404 147.734 67.172C148.598 67.924 149.03 69.036 149.03 70.508V76.052C149.03 76.436 149.054 76.828 149.102 77.228C149.166 77.628 149.254 78.052 149.366 78.5H146.342ZM142.094 78.74C140.862 78.74 139.878 78.436 139.142 77.828C138.422 77.204 138.062 76.372 138.062 75.332C138.062 74.212 138.47 73.324 139.286 72.668C140.102 72.012 141.254 71.572 142.742 71.348L146.558 70.772V72.692L143.246 73.196C142.526 73.308 141.982 73.508 141.614 73.796C141.262 74.084 141.086 74.484 141.086 74.996C141.086 75.46 141.254 75.82 141.59 76.076C141.926 76.316 142.39 76.436 142.982 76.436C143.846 76.436 144.566 76.22 145.142 75.788C145.718 75.356 146.006 74.828 146.006 74.204L146.342 76.052C146.022 76.932 145.494 77.604 144.758 78.068C144.038 78.516 143.15 78.74 142.094 78.74ZM159.906 78.5L156.138 73.028L151.05 66.26H154.482L157.89 71.228L163.338 78.5H159.906ZM156.378 71.132L159.81 66.26H163.17L157.842 73.244L156.378 71.132ZM157.578 73.388L153.882 78.5H150.546L156.138 71.252L157.578 73.388ZM165.1 78.5V66.26H168.124V78.5H165.1ZM164.956 64.244V60.908H168.244V64.244H164.956ZM171.335 78.5V66.26H174.287V69.14H174.359V78.5H171.335ZM179.927 78.5V70.772C179.927 70.02 179.735 69.452 179.351 69.068C178.967 68.684 178.407 68.492 177.671 68.492C177.031 68.492 176.455 68.636 175.943 68.924C175.447 69.212 175.055 69.612 174.767 70.124C174.495 70.636 174.359 71.228 174.359 71.9L174.047 68.972C174.463 68.076 175.071 67.364 175.871 66.836C176.671 66.292 177.631 66.02 178.751 66.02C180.079 66.02 181.111 66.396 181.847 67.148C182.599 67.9 182.975 68.9 182.975 70.148V78.5H179.927ZM185.936 78.5V66.26H188.96V78.5H185.936ZM185.792 64.244V60.908H189.08V64.244H185.792ZM197.428 78.74C196.196 78.74 195.108 78.468 194.164 77.924C193.236 77.38 192.5 76.628 191.956 75.668C191.428 74.692 191.164 73.588 191.164 72.356C191.164 71.124 191.428 70.036 191.956 69.092C192.5 68.132 193.236 67.38 194.164 66.836C195.108 66.292 196.196 66.02 197.428 66.02C198.436 66.02 199.348 66.212 200.164 66.596C200.98 66.964 201.652 67.492 202.18 68.18C202.708 68.852 203.044 69.636 203.188 70.532H200.284C200.108 69.876 199.772 69.364 199.276 68.996C198.78 68.628 198.18 68.444 197.476 68.444C196.82 68.444 196.252 68.604 195.772 68.924C195.308 69.244 194.948 69.7 194.692 70.292C194.436 70.884 194.308 71.572 194.308 72.356C194.308 73.156 194.436 73.852 194.692 74.444C194.948 75.036 195.316 75.5 195.796 75.836C196.276 76.156 196.836 76.316 197.476 76.316C198.18 76.316 198.78 76.132 199.276 75.764C199.772 75.396 200.108 74.884 200.284 74.228H203.188C203.044 75.124 202.7 75.916 202.156 76.604C201.628 77.276 200.956 77.804 200.14 78.188C199.34 78.556 198.436 78.74 197.428 78.74ZM210.046 78.74C208.35 78.74 206.998 78.388 205.99 77.684C204.982 76.964 204.43 75.972 204.334 74.708H207.094C207.174 75.332 207.47 75.804 207.982 76.124C208.494 76.444 209.182 76.604 210.046 76.604C210.83 76.604 211.414 76.484 211.798 76.244C212.198 75.988 212.398 75.628 212.398 75.164C212.398 74.828 212.286 74.556 212.062 74.348C211.838 74.124 211.414 73.94 210.79 73.796L208.822 73.34C207.478 73.052 206.478 72.604 205.822 71.996C205.182 71.372 204.862 70.596 204.862 69.668C204.862 68.532 205.294 67.644 206.158 67.004C207.038 66.348 208.246 66.02 209.782 66.02C211.302 66.02 212.518 66.348 213.43 67.004C214.358 67.644 214.87 68.532 214.966 69.668H212.206C212.126 69.172 211.87 68.796 211.438 68.54C211.022 68.284 210.446 68.156 209.71 68.156C209.022 68.156 208.502 68.268 208.15 68.492C207.798 68.7 207.622 69.012 207.622 69.428C207.622 69.748 207.758 70.02 208.03 70.244C208.302 70.452 208.758 70.636 209.398 70.796L211.51 71.276C212.71 71.548 213.614 72.02 214.222 72.692C214.846 73.364 215.158 74.156 215.158 75.068C215.158 76.236 214.71 77.14 213.814 77.78C212.918 78.42 211.662 78.74 210.046 78.74Z" fill="#2B2B2B"/>
</g>
<defs>
<filter id="filter0_d_368_118399" x="-2" y="0" width="272" height="148" filterUnits="userSpaceOnUse" color-interpolation-filters="sRGB">
<feFlood flood-opacity="0" result="BackgroundImageFix"/>
<feColorMatrix in="SourceAlpha" type="matrix" values="0 0 0 0 0 0 0 0 0 0 0 0 0 0 0 0 0 0 127 0" result="hardAlpha"/>
<feOffset dy="4"/>
<feGaussianBlur stdDeviation="11"/>
<feComposite in2="hardAlpha" operator="out"/>
<feColorMatrix type="matrix" values="0 0 0 0 0 0 0 0 0 0 0 0 0 0 0 0 0 0 0.02 0"/>
<feBlend mode="normal" in2="BackgroundImageFix" result="effect1_dropShadow_368_118399"/>
<feBlend mode="normal" in="SourceGraphic" in2="effect1_dropShadow_368_118399" result="shape"/>
</filter>
</defs>
</svg>
