<svg width="272" height="148" viewBox="0 0 272 148" fill="none" xmlns="http://www.w3.org/2000/svg">
<g filter="url(#filter0_d_368_118402)">
<rect x="22" y="18" width="228" height="104" rx="16" fill="white" shape-rendering="crispEdges"/>
<path d="M68.3143 110.65C67.7552 110.896 67.1962 111.143 66.6371 111.389C66.6078 111.369 66.5785 111.35 66.5491 111.33C66.6411 111.193 66.7135 111.036 66.8279 110.921C70.9035 106.828 74.1128 102.147 76.3536 96.818C78.3084 92.1693 79.2463 87.3259 78.9894 82.277C78.7911 78.3809 77.8365 74.647 76.3923 71.0398C73.2129 63.0984 68.059 56.6253 61.5293 51.1878C59.5165 49.5117 57.3991 47.9828 55.1308 46.6676C54.9835 46.5822 54.85 46.473 54.6006 46.2979C54.9065 46.3206 55.0899 46.3148 55.265 46.35C58.1383 46.927 60.9989 47.577 63.8859 48.0734C67.6679 48.7237 71.4839 49.0241 75.3308 48.9127C79.8985 48.7805 83.786 47.0293 87.1846 44.0678C87.7279 43.5943 88.229 43.0725 88.8107 42.5754C88.9471 42.9187 89.0642 43.2563 89.0906 43.6009C89.2101 45.158 89.3281 46.7159 89.3984 48.2757C89.4442 49.2915 89.4072 50.3111 89.4072 51.3289C89.4072 53.1561 89.4075 54.9833 89.4062 56.8105C89.4061 56.9704 89.3869 57.1305 89.3919 57.29C89.3964 57.434 89.3768 57.6638 89.4485 57.7012C89.561 57.7598 89.7543 57.721 89.8906 57.6665C90.4958 57.4242 91.0753 57.1022 91.6965 56.9184C93.1197 56.4972 94.5701 56.1933 96.069 56.2232C102.365 56.0198 108.315 60.1733 110.337 66.182C113.028 74.1834 108.841 82.5718 100.818 85.1923C97.7674 86.1888 94.698 86.1098 91.5747 85.1311C89.32 84.2743 87.3166 83.1537 85.7146 81.4058C85.533 81.2077 85.3708 81.227 85.2839 81.479C85.1389 81.8993 85.0356 82.3342 84.8856 82.7525C84.2077 84.6432 83.5852 86.5574 82.8166 88.4108C82.0609 90.2332 81.2193 92.0277 80.2952 93.7707C79.1598 95.9118 77.9528 98.0196 76.6758 100.079C75.7624 101.553 74.7125 102.945 73.6687 104.333C72.7398 105.568 71.7444 106.753 70.7602 107.945C70.405 108.375 69.9902 108.756 69.615 109.17C69.1744 109.657 68.7473 110.156 68.3143 110.65ZM93.5342 65.9459C93.5342 65.9459 93.5227 65.9452 93.4903 65.9581C93.4697 65.9707 93.4556 65.9885 93.4145 66.0441C93.4145 66.0441 93.3722 66.0639 93.3067 66.0616C93.2672 66.1055 93.2277 66.1493 93.1637 66.224C93.1442 66.2422 93.1217 66.2555 93.0412 66.2738C93.0219 66.3041 93.0026 66.3345 92.9464 66.4055C92.8723 66.4576 92.7982 66.5098 92.6642 66.5698C92.6467 66.6038 92.6293 66.6378 92.5742 66.7178C92.4989 66.7796 92.4236 66.8414 92.2995 66.9165C92.2706 66.955 92.2417 66.9934 92.2084 67.0141C92.2084 67.0141 92.2153 67.0311 92.1472 67.0273C92.0372 67.1527 91.9271 67.278 91.8144 67.4C91.8144 67.4 91.8178 67.4025 91.7554 67.4089C91.7123 67.4711 91.6692 67.5333 91.622 67.5934C91.622 67.5934 91.6251 67.5969 91.561 67.6047C91.5217 67.6714 91.4823 67.7382 91.4228 67.8423C91.4053 67.8654 91.3835 67.8829 91.3031 67.9103C91.2789 67.9583 91.2547 68.0063 91.198 68.0931C91.1611 68.1277 91.1242 68.1622 91.0203 68.2034C90.9664 68.2915 90.9124 68.3797 90.8304 68.526C89.8552 69.7913 89.0706 71.1533 88.5757 72.6858C88.1608 73.9707 88.5034 75.0558 89.3354 76.025C90.3428 77.1987 91.7 77.8294 93.1375 78.2623C95.9098 79.097 98.7364 79.2772 101.595 78.7756C102.918 78.5434 104.183 78.1356 105.273 77.3203C106.37 76.4991 107.029 75.4309 106.806 74.0123C106.488 71.9969 105.643 70.1937 104.462 68.5387C103.617 67.3539 102.58 66.361 101.448 65.3983C101.451 65.3381 101.454 65.2779 101.525 65.2102C101.595 65.2078 101.664 65.2054 101.773 65.2386C101.819 65.1846 101.865 65.1307 101.924 65.088C101.924 65.088 101.911 65.0765 101.946 65.0739C101.955 65.0666 101.973 65.0574 101.972 65.0523C101.967 65.0314 101.957 65.0118 101.948 64.92C101.879 64.8022 101.81 64.6844 101.714 64.505C101.516 64.4355 101.318 64.3661 101.127 64.2948C101.127 64.2948 101.133 64.2961 101.188 64.2832C101.2 64.2499 101.212 64.2166 101.235 64.1353C101.259 64.0925 101.283 64.0497 101.376 63.9955C101.422 63.8978 101.467 63.8001 101.519 63.6708C101.519 63.6708 101.537 63.6437 101.584 63.6139C101.593 63.5791 101.603 63.5444 101.62 63.4787C101.62 63.4787 101.639 63.453 101.683 63.4253C101.694 63.3938 101.705 63.3623 101.727 63.2942C101.727 63.2942 101.746 63.2612 101.786 63.2342C101.797 63.2042 101.808 63.1743 101.83 63.1076C101.83 63.1076 101.85 63.0749 101.908 63.0603C101.931 63.011 101.954 62.9617 101.988 62.8655C102.004 62.8374 102.019 62.8094 102.099 62.7662C102.127 62.6913 102.155 62.6164 102.19 62.5112C102.19 62.5112 102.209 62.4864 102.277 62.4769C102.35 62.318 102.423 62.1591 102.504 62.0054C102.504 62.0054 102.495 62.0019 102.543 61.9778C102.555 61.9453 102.567 61.9128 102.587 61.8459C102.587 61.8459 102.605 61.8151 102.648 61.7853C102.658 61.7524 102.667 61.7194 102.688 61.6533C102.688 61.6533 102.711 61.6267 102.775 61.6117C102.774 61.49 102.773 61.3683 102.715 61.2359C102.68 61.22 102.645 61.204 102.584 61.1304C102.366 61.0981 102.147 61.0659 101.843 61.037C101.614 61.0343 101.384 61.0316 101.096 60.9824C100.695 61.049 100.295 61.1155 99.834 61.2064C99.7913 61.2102 99.7486 61.214 99.6554 61.1775C99.2053 61.2742 98.7567 61.3791 98.3045 61.4644C98.0624 61.51 97.8139 61.5217 97.5894 61.5484C97.5894 61.5484 97.5687 61.5524 97.5579 61.485C97.4298 61.4098 97.3016 61.3346 97.1409 61.2499C97.1409 61.2499 97.1129 61.2307 97.0996 61.1651C97.0034 61.1279 96.9072 61.0908 96.7689 61.0402C96.7689 61.0402 96.7305 61.0185 96.7111 60.955C96.539 60.9027 96.367 60.8504 96.1453 60.792C96.1141 60.7808 96.0828 60.7695 96.0116 60.706C95.8335 60.6872 95.6554 60.6684 95.3997 60.6558C95.2961 60.652 95.1925 60.6481 95.0705 60.6161C95.0442 60.6261 95.0179 60.6361 94.9273 60.6544C94.8842 60.6521 94.8411 60.6498 94.7409 60.5996C94.4686 60.6358 94.1963 60.6721 93.8591 60.7348C93.8374 60.7433 93.8157 60.7519 93.7564 60.8104C93.827 60.946 93.8976 61.0816 93.9977 61.243C93.9977 61.243 94.0181 61.2763 94.0211 61.3408C94.0864 61.4348 94.1516 61.5289 94.2381 61.6516C94.2381 61.6516 94.2489 61.6856 94.239 61.75C94.2764 61.7944 94.3138 61.8389 94.3435 61.9077C94.3435 61.9077 94.3551 61.885 94.3395 61.9482C94.3947 62.001 94.4498 62.0538 94.5226 62.1374C94.5226 62.1374 94.5296 62.1721 94.5188 62.2455C94.6534 62.4473 94.788 62.6492 94.9095 62.8582C94.9095 62.8582 94.9243 62.8564 94.9141 62.9208C94.9565 62.9599 94.9988 62.999 95.0704 63.067C95.0872 63.0894 95.0982 63.1144 95.0982 63.205C95.1366 63.2471 95.175 63.2893 95.1961 63.3307C95.1961 63.3307 95.2127 63.3335 95.2151 63.3848C95.2402 63.4065 95.2653 63.4281 95.3061 63.4741C95.3061 63.4741 95.3098 63.5028 95.3105 63.5696C95.3694 63.6576 95.4284 63.7457 95.4978 63.8676C95.4978 63.8676 95.5028 63.9026 95.4577 63.9622C95.3023 64.0148 95.1469 64.0673 94.9241 64.1254C94.8347 64.137 94.7454 64.1485 94.5935 64.1636C94.5674 64.2157 94.5412 64.2677 94.5072 64.3913C94.5143 64.4867 94.5214 64.5821 94.5492 64.731C94.5845 64.7407 94.6198 64.7504 94.7051 64.7673C94.737 64.7782 94.7689 64.7892 94.7988 64.8697C94.6796 65.0171 94.5605 65.1644 94.4188 65.2952C94.4188 65.2952 94.4387 65.3148 94.3694 65.2998C94.2234 65.4192 94.0774 65.5386 93.903 65.6791C93.903 65.6791 93.8695 65.6904 93.803 65.6831C93.7493 65.7409 93.6956 65.7986 93.644 65.8592C93.644 65.8592 93.6412 65.8573 93.5985 65.8704C93.5711 65.8852 93.5516 65.907 93.5342 65.9459Z" fill="#2CA7BF"/>
<path d="M76.0858 88.1123C74.6092 82.0243 71.7127 76.68 67.5947 71.9868C62.3947 66.0604 55.9268 61.9835 48.6446 59.1278C46.9032 58.4449 45.1087 57.8972 43.3388 57.287C43.2665 57.2621 43.1954 57.2336 43.0625 57.1837C44.3174 56.75 45.5206 56.3665 46.7001 55.9201C49.7277 54.7743 52.7188 53.5516 55.3288 51.5695C55.4545 51.4741 55.7508 51.4953 55.9139 51.5738C57.6457 52.4069 59.1857 53.5353 60.6275 54.7887C67.7551 60.9848 72.626 68.6098 75.0851 77.748C76.0914 81.4876 76.5116 85.3015 76.4577 89.22C76.3078 88.8852 76.1968 88.4988 76.0858 88.1123Z" fill="#020202"/>
<path d="M75.7073 88.4189C74.8636 87.3115 74.0709 86.1606 73.1674 85.1044C69.2508 80.5259 64.4653 77.1197 58.9512 74.7233C54.7284 72.8882 50.312 71.7839 45.7469 71.2297C42.4722 70.8321 39.1884 70.7825 35.8983 70.8862C35.1799 70.9089 34.4628 70.9721 33.6436 71.023C34.1519 70.6115 34.5996 70.2588 35.0369 69.8935C37.7369 67.6381 40.3653 65.311 42.4518 62.4448C42.565 62.2892 42.7172 62.145 42.7768 61.9702C43.0818 61.0763 43.7475 61.1503 44.4763 61.2712C46.4313 61.5953 48.3195 62.1561 50.1623 62.8668C55.9535 65.1004 61.0835 68.3798 65.5681 72.6694C69.7719 76.6907 73.0363 81.3683 75.3499 86.7063C75.538 87.1402 75.672 87.5975 75.8293 88.1154C75.7874 88.2642 75.7474 88.3415 75.7073 88.4189Z" fill="#2DA7BF"/>
<path d="M74.9691 28.8815C78.6378 28.8034 81.9781 31.2234 82.7273 35.1224C83.2415 37.7985 82.4768 40.178 80.4973 42.0871C77.4286 45.0469 72.6213 44.9651 69.6552 41.9044C68.3893 40.5981 67.6926 39.0183 67.5335 37.1804C67.1954 33.2745 69.8894 29.7732 73.7343 29.0039C74.123 28.9261 74.5261 28.9205 74.9691 28.8815Z" fill="#000101"/>
<path d="M68.3496 110.645C68.7473 110.156 69.1744 109.657 69.615 109.17C69.9902 108.756 70.405 108.375 70.7602 107.945C71.7444 106.753 72.7398 105.568 73.6687 104.333C74.7125 102.945 75.7624 101.553 76.6758 100.079C77.9528 98.0198 79.1598 95.912 80.2951 93.7708C81.2193 92.0279 82.0609 90.2334 82.8166 88.411C83.5852 86.5576 84.2077 84.6433 84.8856 82.7527C85.0356 82.3343 85.1389 81.8994 85.2839 81.4791C85.3708 81.2272 85.533 81.2078 85.7146 81.406C87.3166 83.1539 89.32 84.2745 91.5422 85.1248C88.8807 92.0399 85.0227 98.1703 79.5324 103.206C76.2035 106.26 72.483 108.735 68.3496 110.645Z" fill="#2B9EB5"/>
<path d="M96.06 56.1846C94.5709 56.1934 93.1205 56.4972 91.6973 56.9184C91.0761 57.1022 90.4966 57.4242 89.8914 57.6665C89.7551 57.7211 89.5618 57.7599 89.4493 57.7012C89.3776 57.6638 89.3972 57.4341 89.3926 57.29C89.3877 57.1305 89.4069 56.9704 89.407 56.8106C89.4083 54.9834 89.408 53.1562 89.408 51.329C89.408 50.3111 89.4449 49.2916 89.3992 48.2758C89.3289 46.716 89.2109 45.158 89.0914 43.601C89.065 43.2564 88.9479 42.9187 88.8398 42.5614C89.9583 41.1869 91.0645 39.7951 91.8866 38.2056C92.2608 37.4821 92.5925 36.7367 92.9694 35.947C93.0402 36.1585 93.1303 36.3503 93.1682 36.552C93.7471 39.6323 94.3836 42.7037 94.8731 45.7983C95.2829 48.3885 95.5258 51.0054 95.8281 53.6121C95.9257 54.454 95.9774 55.3012 96.06 56.1846Z" fill="#2B9EB5"/>
<path d="M75.7158 88.4509C75.7468 88.3415 75.7869 88.2641 75.8287 88.1525C75.8873 88.1195 75.9439 88.1208 76.0433 88.1172C76.1969 88.4987 76.3079 88.8852 76.459 89.265C76.3957 89.2554 76.2364 89.2936 76.1987 89.2423C76.0224 89.0027 75.8796 88.7384 75.7158 88.4509Z" fill="#68A7B3"/>
<path d="M91.3572 67.8949C91.3836 67.8829 91.4054 67.8654 91.4616 67.8147C91.5419 67.7238 91.5835 67.6604 91.6252 67.5969C91.6252 67.5969 91.6221 67.5934 91.6524 67.5861C91.7278 67.5201 91.7728 67.4613 91.8179 67.4025C91.8179 67.4025 91.8144 67.4 91.8462 67.3935C91.9904 67.2683 92.1029 67.1497 92.2153 67.0311C92.2153 67.0311 92.2085 67.0141 92.2359 67.0179C92.2917 66.9822 92.32 66.9427 92.3484 66.9032C92.4237 66.8414 92.499 66.7796 92.6169 66.6822C92.6811 66.6183 92.7027 66.5901 92.7242 66.5619C92.7983 66.5098 92.8724 66.4576 92.9902 66.3766C93.0548 66.3198 93.0756 66.2918 93.0965 66.2638C93.1218 66.2554 93.1442 66.2422 93.2037 66.1999C93.2865 66.1384 93.3294 66.1012 93.3723 66.0639C93.3723 66.0639 93.4146 66.0441 93.4501 66.0259C93.5107 65.9945 93.5231 65.9736 93.5228 65.9452C93.5228 65.9452 93.5343 65.9459 93.5612 65.9396C93.6199 65.9178 93.6376 65.8924 93.6413 65.8572C93.6413 65.8572 93.6441 65.8592 93.6727 65.8536C93.7574 65.7955 93.8135 65.7429 93.8696 65.6904C93.8696 65.6904 93.9031 65.6791 93.9493 65.6659C94.1433 65.5401 94.2911 65.4275 94.4388 65.3148C94.4388 65.3148 94.4189 65.2952 94.463 65.2989C94.8799 65.0462 95.2821 65.0235 95.7286 65.0591C97.0156 65.1616 98.307 65.2078 99.5958 65.2903C100.214 65.3299 100.831 65.4015 101.448 65.4586C102.58 66.361 103.618 67.3539 104.462 68.5386C105.643 70.1937 106.489 71.9969 106.806 74.0123C107.029 75.4309 106.37 76.4991 105.273 77.3203C104.183 78.1356 102.918 78.5434 101.595 78.7756C98.7365 79.2771 95.9099 79.097 93.1376 78.2623C91.7001 77.8294 90.3429 77.1987 89.3355 76.025C88.5035 75.0558 88.1609 73.9707 88.5758 72.6857C89.0707 71.1533 89.8553 69.7913 90.8744 68.4878C90.9747 68.3653 91.0311 68.2811 91.0875 68.1968C91.1243 68.1622 91.1612 68.1276 91.2402 68.065C91.3074 67.9896 91.3323 67.9422 91.3572 67.8949ZM99.5583 74.1182C100.134 73.136 99.8537 72.2156 98.8343 71.729C98.3719 71.5082 97.9002 71.3032 97.4551 71.0514C97.0851 70.8421 96.9265 70.4889 97.0361 70.0659C97.1448 69.6461 97.4768 69.4545 97.8736 69.4939C98.3415 69.5403 98.8015 69.6724 99.2628 69.7767C99.3791 69.803 99.4875 69.8646 99.6013 69.9106C99.8076 69.3177 99.7328 69.1462 99.0876 68.9579C98.7589 68.862 98.6805 68.7047 98.7513 68.4072C98.781 68.2826 98.8396 68.1473 98.8145 68.0323C98.7898 67.9196 98.6819 67.7493 98.599 67.7425C98.4698 67.7317 98.2993 67.8071 98.2059 67.9036C98.1303 67.9818 98.1144 68.1464 98.1209 68.2701C98.1427 68.6853 97.9252 68.7976 97.5485 68.8492C96.8995 68.9381 96.4123 69.2686 96.2485 69.9548C96.0442 70.8102 96.4131 71.4746 97.3277 71.9047C97.747 72.1019 98.1748 72.2858 98.5758 72.5157C98.9367 72.7225 99.0935 73.1063 98.9396 73.4679C98.8242 73.739 98.5354 74.0767 98.2804 74.1181C97.7965 74.1966 97.2755 74.1197 96.7817 74.0371C96.4998 73.99 96.2412 73.8043 95.9728 73.6814C95.7377 74.2023 95.7649 74.469 96.1902 74.5628C96.9011 74.7196 97.1253 75.06 96.9247 75.7434C96.9031 75.8171 97.0592 76.027 97.1303 76.0258C97.2636 76.0234 97.4358 75.9437 97.5155 75.8383C97.592 75.7371 97.583 75.5635 97.5921 75.4205C97.6145 75.0706 97.7425 74.8892 98.1431 74.8699C98.6845 74.8439 99.1715 74.6301 99.5583 74.1182Z" fill="#EBF7F9"/>
<path d="M95.0888 60.6443C95.1925 60.6481 95.2961 60.6519 95.4656 60.677C95.7048 60.7183 95.8782 60.7383 96.0515 60.7583C96.0828 60.7695 96.1141 60.7807 96.1906 60.8202C96.4007 60.9051 96.5656 60.9618 96.7305 61.0185C96.7305 61.0185 96.7689 61.0402 96.8052 61.0735C96.9319 61.1481 97.0224 61.1894 97.1129 61.2307C97.1129 61.2307 97.1409 61.2499 97.1694 61.2847C97.3214 61.3971 97.4451 61.4747 97.5687 61.5523C97.5687 61.5523 97.5894 61.5484 97.593 61.582C97.7118 61.6503 97.84 61.7365 97.9399 61.7112C98.5322 61.561 99.1179 61.385 99.7058 61.2177C99.7486 61.2139 99.7913 61.2102 99.9025 61.204C100.365 61.1441 100.76 61.0865 101.155 61.0289C101.384 61.0316 101.614 61.0343 101.911 61.0591C102.19 61.1169 102.4 61.1525 102.609 61.1881C102.645 61.204 102.68 61.2199 102.75 61.2738C102.761 61.4167 102.736 61.5217 102.711 61.6267C102.711 61.6267 102.688 61.6533 102.66 61.685C102.624 61.7495 102.614 61.7823 102.605 61.815C102.605 61.815 102.587 61.8459 102.561 61.8766C102.521 61.9389 102.508 61.9704 102.495 62.0019C102.495 62.0019 102.504 62.0053 102.472 62.0192C102.364 62.1842 102.286 62.3353 102.209 62.4864C102.209 62.4864 102.19 62.5112 102.161 62.5419C102.099 62.6421 102.067 62.7117 102.035 62.7813C102.019 62.8093 102.004 62.8374 101.959 62.9021C101.902 62.9842 101.876 63.0295 101.85 63.0749C101.85 63.0749 101.83 63.1075 101.803 63.1385C101.766 63.2001 101.756 63.2306 101.746 63.2612C101.746 63.2612 101.727 63.2941 101.7 63.3262C101.662 63.3899 101.65 63.4215 101.639 63.453C101.639 63.453 101.62 63.4787 101.595 63.511C101.559 63.5767 101.548 63.6102 101.537 63.6436C101.537 63.6436 101.519 63.6708 101.489 63.7029C101.407 63.8257 101.357 63.9163 101.306 64.0069C101.283 64.0497 101.259 64.0925 101.208 64.1725C101.165 64.2385 101.149 64.2673 101.133 64.2961C101.133 64.2961 101.127 64.2947 101.086 64.2958C100.631 64.271 100.216 64.2486 99.8024 64.2186C98.3691 64.1147 96.936 64.0081 95.5028 63.9026C95.5028 63.9026 95.4978 63.8675 95.4914 63.8178C95.4266 63.6796 95.3682 63.5912 95.3098 63.5027C95.3098 63.5027 95.3061 63.4741 95.2954 63.4368C95.2606 63.3776 95.2366 63.3555 95.2127 63.3335C95.2127 63.3335 95.1961 63.3306 95.1998 63.3032C95.1701 63.2311 95.1368 63.1864 95.1035 63.1418C95.0982 63.1143 95.0872 63.0894 95.0483 63.0256C94.9922 62.9416 94.9583 62.899 94.9243 62.8564C94.9243 62.8564 94.9095 62.8582 94.9115 62.8215C94.7855 62.5806 94.6576 62.3764 94.5296 62.1721C94.5296 62.1721 94.5226 62.1374 94.5131 62.0931C94.4541 61.9943 94.4046 61.9396 94.3551 61.885C94.3551 61.885 94.3435 61.9077 94.3442 61.8668C94.313 61.7791 94.2809 61.7323 94.2489 61.6855C94.2489 61.6855 94.2381 61.6516 94.2248 61.6068C94.1471 61.4668 94.0826 61.3716 94.0181 61.2763C94.0181 61.2763 93.9977 61.243 93.9772 61.1955C93.9024 61.0188 93.8482 60.8897 93.7939 60.7605C93.8157 60.7519 93.8374 60.7433 93.9309 60.7335C94.2679 60.7041 94.5329 60.6758 94.798 60.6476C94.8411 60.6498 94.8842 60.6521 94.9839 60.6565C95.0566 60.6539 95.0727 60.6491 95.0888 60.6443Z" fill="#E8F6F9"/>
<path d="M94.5287 64.6776C94.5216 64.5822 94.5145 64.4868 94.535 64.3422C94.5938 64.2488 94.625 64.2044 94.6562 64.1601C94.7456 64.1486 94.8349 64.1371 94.9941 64.1401C95.62 64.1932 96.1759 64.2356 96.7322 64.2692C98.4018 64.3702 100.072 64.4678 101.741 64.5667C101.81 64.6845 101.879 64.8023 101.934 64.9749C101.92 65.0298 101.911 65.0766 101.911 65.0766C101.911 65.0766 101.924 65.0881 101.892 65.0929C101.818 65.1328 101.776 65.168 101.734 65.2031C101.664 65.2055 101.595 65.208 101.451 65.1993C100.679 65.1371 99.981 65.0766 99.2823 65.037C97.7888 64.9523 96.2948 64.8785 94.8009 64.8002C94.7691 64.7893 94.7372 64.7784 94.664 64.7436C94.5913 64.7058 94.56 64.6917 94.5287 64.6776Z" fill="#DDF5FA"/>
<path d="M94.8002 64.835C96.295 64.8784 97.7891 64.9522 99.2825 65.0369C99.9813 65.0765 100.679 65.137 101.417 65.203C101.454 65.278 101.451 65.3382 101.449 65.4285C100.831 65.4016 100.215 65.33 99.5961 65.2904C98.3073 65.2079 97.0159 65.1617 95.7289 65.0592C95.2824 65.0236 94.8802 65.0463 94.4746 65.3073C94.5609 65.1645 94.6801 65.0171 94.8002 64.835Z" fill="#66B1C0"/>
<path d="M101.728 64.5357C100.072 64.4677 98.4022 64.3701 96.7327 64.2691C96.1763 64.2354 95.6205 64.193 95.0283 64.1372C95.1476 64.0673 95.303 64.0147 95.4809 63.9324C96.9366 64.0081 98.3698 64.1147 99.8031 64.2186C100.217 64.2486 100.631 64.271 101.083 64.2968C101.319 64.366 101.517 64.4355 101.728 64.5357Z" fill="#64B1C1"/>
<path d="M99.6811 61.1978C99.1184 61.3852 98.5327 61.5612 97.9404 61.7113C97.8405 61.7367 97.7123 61.6504 97.583 61.5823C97.8144 61.5218 98.0629 61.5101 98.305 61.4645C98.7572 61.3793 99.2058 61.2743 99.6811 61.1978Z" fill="#64B1C1"/>
<path d="M101.126 61.0056C100.76 61.0865 100.366 61.144 99.9326 61.1918C100.295 61.1155 100.696 61.0489 101.126 61.0056Z" fill="#64B1C1"/>
<path d="M94.77 60.6235C94.5334 60.6758 94.2684 60.7041 93.9639 60.7203C94.1968 60.672 94.4691 60.6358 94.77 60.6235Z" fill="#64B1C1"/>
<path d="M102.598 61.1593C102.4 61.1526 102.19 61.1171 101.955 61.0576C102.148 61.066 102.367 61.0982 102.598 61.1593Z" fill="#64B1C1"/>
<path d="M94.5244 62.209C94.6578 62.3765 94.7857 62.5808 94.9182 62.8181C94.7882 62.6493 94.6536 62.4475 94.5244 62.209Z" fill="#64B1C1"/>
<path d="M94.4045 65.3074C94.2914 65.4276 94.1437 65.5402 93.9639 65.6555C94.0778 65.5387 94.2238 65.4193 94.4045 65.3074Z" fill="#66B1C0"/>
<path d="M92.1814 67.0293C92.103 67.1498 91.9905 67.2684 91.8477 67.3952C91.9273 67.2781 92.0374 67.1527 92.1814 67.0293Z" fill="#66B1C0"/>
<path d="M96.0321 60.7323C95.8787 60.7384 95.7053 60.7184 95.5049 60.674C95.6559 60.6685 95.834 60.6873 96.0321 60.7323Z" fill="#64B1C1"/>
<path d="M102.243 62.4816C102.287 62.3353 102.364 62.1841 102.469 62.0166C102.423 62.1591 102.35 62.318 102.243 62.4816Z" fill="#64B1C1"/>
<path d="M96.7213 60.9867C96.5661 60.9618 96.4012 60.9051 96.2158 60.8232C96.3674 60.8504 96.5395 60.9027 96.7213 60.9867Z" fill="#64B1C1"/>
<path d="M97.5642 61.5188C97.446 61.4749 97.3223 61.3972 97.1865 61.2896C97.3025 61.3347 97.4307 61.4099 97.5642 61.5188Z" fill="#64B1C1"/>
<path d="M93.7754 60.7854C93.8484 60.8896 93.9026 61.0188 93.9626 61.1825C93.8978 61.0815 93.8272 60.9459 93.7754 60.7854Z" fill="#64B1C1"/>
<path d="M94.0195 61.3086C94.0825 61.3716 94.147 61.4669 94.2142 61.5925C94.1516 61.5289 94.0863 61.4349 94.0195 61.3086Z" fill="#64B1C1"/>
<path d="M102.743 61.6193C102.736 61.5218 102.761 61.4168 102.779 61.2793C102.773 61.3684 102.774 61.4901 102.743 61.6193Z" fill="#64B1C1"/>
<path d="M91.0542 68.2002C91.0313 68.2812 90.975 68.3654 90.8887 68.4588C90.9127 68.3798 90.9667 68.2916 91.0542 68.2002Z" fill="#66B1C0"/>
<path d="M101.342 64.0012C101.357 63.9163 101.408 63.8257 101.486 63.7188C101.468 63.8001 101.422 63.8978 101.342 64.0012Z" fill="#64B1C1"/>
<path d="M97.1063 61.198C97.0224 61.1895 96.9319 61.1482 96.8262 61.0803C96.9072 61.0909 97.0034 61.128 97.1063 61.198Z" fill="#64B1C1"/>
<path d="M94.3477 61.9167C94.4049 61.9398 94.4545 61.9944 94.5047 62.0779C94.4502 62.054 94.395 62.0012 94.3477 61.9167Z" fill="#64B1C1"/>
<path d="M95.3105 63.5361C95.3686 63.5912 95.427 63.6796 95.4865 63.8009C95.4288 63.7456 95.3698 63.6576 95.3105 63.5361Z" fill="#64B1C1"/>
<path d="M91.7874 67.4058C91.7736 67.4614 91.7286 67.5202 91.6553 67.5873C91.6701 67.5333 91.7132 67.4712 91.7874 67.4058Z" fill="#66B1C0"/>
<path d="M93.8366 65.6868C93.8137 65.7429 93.7576 65.7955 93.6719 65.8522C93.6959 65.7986 93.7497 65.7409 93.8366 65.6868Z" fill="#66B1C0"/>
<path d="M91.5932 67.6008C91.5836 67.6604 91.5419 67.7238 91.4717 67.7961C91.4824 67.7382 91.5218 67.6715 91.5932 67.6008Z" fill="#66B1C0"/>
<path d="M102.067 62.7739C102.067 62.7118 102.1 62.6422 102.158 62.5571C102.156 62.6165 102.128 62.6914 102.067 62.7739Z" fill="#64B1C1"/>
<path d="M101.754 65.2208C101.777 65.1679 101.819 65.1327 101.887 65.0872C101.866 65.1307 101.82 65.1847 101.754 65.2208Z" fill="#64B1C1"/>
<path d="M92.3241 66.9099C92.3202 66.9427 92.2919 66.9822 92.2383 67.0268C92.2419 66.9934 92.2709 66.955 92.3241 66.9099Z" fill="#66B1C0"/>
<path d="M93.3394 66.0627C93.3293 66.1012 93.2864 66.1384 93.2158 66.1844C93.2276 66.1493 93.2672 66.1055 93.3394 66.0627Z" fill="#66B1C0"/>
<path d="M95.1016 63.1733C95.1375 63.1864 95.1708 63.231 95.2091 63.3036C95.1757 63.2893 95.1373 63.2471 95.1016 63.1733Z" fill="#64B1C1"/>
<path d="M94.9199 62.8887C94.959 62.899 94.9929 62.9416 95.0343 63.0112C94.9995 62.9991 94.9571 62.96 94.9199 62.8887Z" fill="#64B1C1"/>
<path d="M91.3306 67.9026C91.3327 67.9422 91.3078 67.9895 91.2569 68.0456C91.2552 68.0063 91.2794 67.9583 91.3306 67.9026Z" fill="#66B1C0"/>
<path d="M101.879 63.0677C101.876 63.0297 101.903 62.9843 101.953 62.9258C101.954 62.9619 101.931 63.0111 101.879 63.0677Z" fill="#64B1C1"/>
<path d="M94.6251 64.1619C94.6252 64.2044 94.594 64.2487 94.5391 64.3064C94.5415 64.2678 94.5677 64.2157 94.6251 64.1619Z" fill="#64B1C1"/>
<path d="M94.2441 61.7178C94.2811 61.7323 94.3131 61.7791 94.3483 61.8546C94.314 61.8389 94.2766 61.7945 94.2441 61.7178Z" fill="#64B1C1"/>
<path d="M102.627 61.8006C102.615 61.7826 102.624 61.7498 102.655 61.7017C102.668 61.7195 102.658 61.7526 102.627 61.8006Z" fill="#64B1C1"/>
<path d="M95.0805 60.6303C95.0735 60.6493 95.0573 60.6541 95.0166 60.6526C95.0185 60.6362 95.0449 60.6262 95.0805 60.6303Z" fill="#64B1C1"/>
<path d="M102.519 61.9903C102.508 61.9709 102.522 61.9392 102.557 61.894C102.568 61.913 102.556 61.9456 102.519 61.9903Z" fill="#64B1C1"/>
<path d="M92.6948 66.5659C92.7032 66.5903 92.6816 66.6186 92.636 66.6596C92.6297 66.6381 92.6472 66.604 92.6948 66.5659Z" fill="#66B1C0"/>
<path d="M93.0692 66.2688C93.076 66.2919 93.0551 66.32 93.0089 66.3567C93.0029 66.3347 93.0222 66.3043 93.0692 66.2688Z" fill="#66B1C0"/>
<path d="M93.5075 65.9517C93.5241 65.9737 93.5117 65.9946 93.4676 66.0098C93.4564 65.9887 93.4706 65.9708 93.5075 65.9517Z" fill="#66B1C0"/>
<path d="M93.6202 65.8638C93.6379 65.8925 93.6202 65.918 93.5642 65.9349C93.5517 65.9071 93.5713 65.8852 93.6202 65.8638Z" fill="#66B1C0"/>
<path d="M101.93 65.0755C101.912 65.0768 101.921 65.0298 101.936 65.0107C101.958 65.0118 101.969 65.0316 101.973 65.0525C101.974 65.0576 101.956 65.0668 101.93 65.0755Z" fill="#64B1C1"/>
<path d="M94.5391 64.7043C94.5601 64.6916 94.5915 64.7057 94.6393 64.7402C94.6202 64.7507 94.5848 64.741 94.5391 64.7043Z" fill="#66B1C0"/>
<path d="M101.161 64.29C101.15 64.2676 101.166 64.2387 101.203 64.1965C101.213 64.2167 101.2 64.2501 101.161 64.29Z" fill="#64B1C1"/>
<path d="M101.561 63.6293C101.548 63.6106 101.559 63.577 101.591 63.5266C101.603 63.5446 101.594 63.5795 101.561 63.6293Z" fill="#64B1C1"/>
<path d="M101.661 63.4397C101.651 63.4219 101.662 63.3902 101.695 63.3447C101.706 63.3625 101.694 63.3941 101.661 63.4397Z" fill="#64B1C1"/>
<path d="M95.2139 63.3593C95.2367 63.3557 95.2608 63.3778 95.2878 63.4251C95.2655 63.4285 95.2403 63.4068 95.2139 63.3593Z" fill="#64B1C1"/>
<path d="M101.767 63.2481C101.756 63.231 101.766 63.2003 101.798 63.157C101.809 63.1744 101.798 63.2045 101.767 63.2481Z" fill="#64B1C1"/>
<path d="M99.5372 74.1469C99.1714 74.6301 98.6845 74.8439 98.143 74.87C97.7425 74.8892 97.6144 75.0706 97.5921 75.4205C97.5829 75.5636 97.592 75.7372 97.5154 75.8384C97.4357 75.9437 97.2635 76.0234 97.1302 76.0258C97.0592 76.027 96.903 75.8171 96.9247 75.7434C97.1253 75.0601 96.901 74.7196 96.1902 74.5628C95.7649 74.469 95.7376 74.2023 95.9728 73.6814C96.2411 73.8043 96.4998 73.99 96.7816 74.0371C97.2754 74.1197 97.7964 74.1966 98.2804 74.1181C98.5353 74.0767 98.8241 73.7391 98.9396 73.4679C99.0934 73.1063 98.9367 72.7225 98.5757 72.5157C98.1747 72.2858 97.747 72.1019 97.3277 71.9047C96.413 71.4746 96.0441 70.8102 96.2484 69.9548C96.4123 69.2686 96.8994 68.9381 97.5485 68.8492C97.9251 68.7977 98.1427 68.6853 98.1208 68.2701C98.1143 68.1464 98.1302 67.9818 98.2058 67.9036C98.2992 67.8071 98.4697 67.7317 98.5989 67.7425C98.6818 67.7494 98.7898 67.9196 98.8144 68.0323C98.8396 68.1473 98.7809 68.2827 98.7513 68.4072C98.6805 68.7047 98.7588 68.862 99.0875 68.9579C99.7328 69.1462 99.8075 69.3177 99.6012 69.9107C99.4874 69.8646 99.3791 69.803 99.2627 69.7767C98.8014 69.6725 98.3415 69.5403 97.8736 69.4939C97.4768 69.4545 97.1448 69.6461 97.036 70.0659C96.9265 70.4889 97.085 70.8421 97.455 71.0514C97.9001 71.3032 98.3719 71.5082 98.8343 71.729C99.8536 72.2156 100.134 73.136 99.5372 74.1469Z" fill="#3CAABF"/>
<path d="M132.408 78.5V63.692H126.672V61.22H141.264V63.692H135.528V78.5H132.408ZM148.342 78.5C148.262 78.18 148.198 77.828 148.15 77.444C148.118 77.06 148.102 76.596 148.102 76.052H148.006V70.244C148.006 69.604 147.822 69.124 147.454 68.804C147.102 68.468 146.558 68.3 145.822 68.3C145.102 68.3 144.526 68.436 144.094 68.708C143.678 68.964 143.422 69.34 143.326 69.836H140.422C140.55 68.7 141.094 67.78 142.054 67.076C143.014 66.372 144.302 66.02 145.918 66.02C147.598 66.02 148.87 66.404 149.734 67.172C150.598 67.924 151.03 69.036 151.03 70.508V76.052C151.03 76.436 151.054 76.828 151.102 77.228C151.166 77.628 151.254 78.052 151.366 78.5H148.342ZM144.094 78.74C142.862 78.74 141.878 78.436 141.142 77.828C140.422 77.204 140.062 76.372 140.062 75.332C140.062 74.212 140.47 73.324 141.286 72.668C142.102 72.012 143.254 71.572 144.742 71.348L148.558 70.772V72.692L145.246 73.196C144.526 73.308 143.982 73.508 143.614 73.796C143.262 74.084 143.086 74.484 143.086 74.996C143.086 75.46 143.254 75.82 143.59 76.076C143.926 76.316 144.39 76.436 144.982 76.436C145.846 76.436 146.566 76.22 147.142 75.788C147.718 75.356 148.006 74.828 148.006 74.204L148.342 76.052C148.022 76.932 147.494 77.604 146.758 78.068C146.038 78.516 145.15 78.74 144.094 78.74ZM161.906 78.5L158.138 73.028L153.05 66.26H156.482L159.89 71.228L165.338 78.5H161.906ZM158.378 71.132L161.81 66.26H165.17L159.842 73.244L158.378 71.132ZM159.578 73.388L155.882 78.5H152.546L158.138 71.252L159.578 73.388ZM167.1 78.5V66.26H170.124V78.5H167.1ZM166.956 64.244V60.908H170.244V64.244H166.956ZM173.335 78.5V66.26H176.287V69.14H176.359V78.5H173.335ZM181.927 78.5V70.772C181.927 70.02 181.735 69.452 181.351 69.068C180.967 68.684 180.407 68.492 179.671 68.492C179.031 68.492 178.455 68.636 177.943 68.924C177.447 69.212 177.055 69.612 176.767 70.124C176.495 70.636 176.359 71.228 176.359 71.9L176.047 68.972C176.463 68.076 177.071 67.364 177.871 66.836C178.671 66.292 179.631 66.02 180.751 66.02C182.079 66.02 183.111 66.396 183.847 67.148C184.599 67.9 184.975 68.9 184.975 70.148V78.5H181.927ZM187.936 78.5V66.26H190.96V78.5H187.936ZM187.792 64.244V60.908H191.08V64.244H187.792ZM199.428 78.74C198.196 78.74 197.108 78.468 196.164 77.924C195.236 77.38 194.5 76.628 193.956 75.668C193.428 74.692 193.164 73.588 193.164 72.356C193.164 71.124 193.428 70.036 193.956 69.092C194.5 68.132 195.236 67.38 196.164 66.836C197.108 66.292 198.196 66.02 199.428 66.02C200.436 66.02 201.348 66.212 202.164 66.596C202.98 66.964 203.652 67.492 204.18 68.18C204.708 68.852 205.044 69.636 205.188 70.532H202.284C202.108 69.876 201.772 69.364 201.276 68.996C200.78 68.628 200.18 68.444 199.476 68.444C198.82 68.444 198.252 68.604 197.772 68.924C197.308 69.244 196.948 69.7 196.692 70.292C196.436 70.884 196.308 71.572 196.308 72.356C196.308 73.156 196.436 73.852 196.692 74.444C196.948 75.036 197.316 75.5 197.796 75.836C198.276 76.156 198.836 76.316 199.476 76.316C200.18 76.316 200.78 76.132 201.276 75.764C201.772 75.396 202.108 74.884 202.284 74.228H205.188C205.044 75.124 204.7 75.916 204.156 76.604C203.628 77.276 202.956 77.804 202.14 78.188C201.34 78.556 200.436 78.74 199.428 78.74ZM212.046 78.74C210.35 78.74 208.998 78.388 207.99 77.684C206.982 76.964 206.43 75.972 206.334 74.708H209.094C209.174 75.332 209.47 75.804 209.982 76.124C210.494 76.444 211.182 76.604 212.046 76.604C212.83 76.604 213.414 76.484 213.798 76.244C214.198 75.988 214.398 75.628 214.398 75.164C214.398 74.828 214.286 74.556 214.062 74.348C213.838 74.124 213.414 73.94 212.79 73.796L210.822 73.34C209.478 73.052 208.478 72.604 207.822 71.996C207.182 71.372 206.862 70.596 206.862 69.668C206.862 68.532 207.294 67.644 208.158 67.004C209.038 66.348 210.246 66.02 211.782 66.02C213.302 66.02 214.518 66.348 215.43 67.004C216.358 67.644 216.87 68.532 216.966 69.668H214.206C214.126 69.172 213.87 68.796 213.438 68.54C213.022 68.284 212.446 68.156 211.71 68.156C211.022 68.156 210.502 68.268 210.15 68.492C209.798 68.7 209.622 69.012 209.622 69.428C209.622 69.748 209.758 70.02 210.03 70.244C210.302 70.452 210.758 70.636 211.398 70.796L213.51 71.276C214.71 71.548 215.614 72.02 216.222 72.692C216.846 73.364 217.158 74.156 217.158 75.068C217.158 76.236 216.71 77.14 215.814 77.78C214.918 78.42 213.662 78.74 212.046 78.74Z" fill="#2B2B2B"/>
</g>
<defs>
<filter id="filter0_d_368_118402" x="0" y="0" width="272" height="148" filterUnits="userSpaceOnUse" color-interpolation-filters="sRGB">
<feFlood flood-opacity="0" result="BackgroundImageFix"/>
<feColorMatrix in="SourceAlpha" type="matrix" values="0 0 0 0 0 0 0 0 0 0 0 0 0 0 0 0 0 0 127 0" result="hardAlpha"/>
<feOffset dy="4"/>
<feGaussianBlur stdDeviation="11"/>
<feComposite in2="hardAlpha" operator="out"/>
<feColorMatrix type="matrix" values="0 0 0 0 0 0 0 0 0 0 0 0 0 0 0 0 0 0 0.02 0"/>
<feBlend mode="normal" in2="BackgroundImageFix" result="effect1_dropShadow_368_118402"/>
<feBlend mode="normal" in="SourceGraphic" in2="effect1_dropShadow_368_118402" result="shape"/>
</filter>
</defs>
</svg>
