<svg width="74" height="74" viewBox="0 0 74 74" fill="none" xmlns="http://www.w3.org/2000/svg">
<path d="M32.9546 65.9238C32.5568 66.0991 32.159 66.2744 31.7612 66.4498C31.7404 66.4358 31.7195 66.4219 31.6986 66.4079C31.7641 66.3102 31.8156 66.1986 31.897 66.1168C34.7969 63.2042 37.0805 59.8739 38.6749 56.082C40.0658 52.7742 40.7332 49.328 40.5503 45.7355C40.4092 42.9633 39.7301 40.3065 38.7024 37.7398C36.4402 32.0892 32.7729 27.4833 28.1268 23.6143C26.6946 22.4217 25.188 21.3339 23.574 20.3981C23.4692 20.3373 23.3743 20.2596 23.1968 20.135C23.4145 20.1511 23.5449 20.1471 23.6696 20.1721C25.714 20.5827 27.7494 21.0451 29.8036 21.3984C32.4946 21.8611 35.2099 22.0748 37.9471 21.9955C41.1972 21.9015 43.9633 20.6554 46.3815 18.5482C46.7681 18.2113 47.1247 17.84 47.5386 17.4863C47.6356 17.7306 47.7189 17.9708 47.7377 18.216C47.8228 19.3239 47.9067 20.4325 47.9567 21.5423C47.9893 22.2651 47.963 22.9905 47.963 23.7148C47.963 25.0149 47.9632 26.315 47.9623 27.6151C47.9622 27.7289 47.9486 27.8428 47.9521 27.9563C47.9553 28.0588 47.9414 28.2223 47.9924 28.2489C48.0725 28.2906 48.21 28.263 48.307 28.2242C48.7376 28.0518 49.15 27.8227 49.5919 27.6919C50.6046 27.3922 51.6366 27.176 52.7032 27.1972C57.1829 27.0525 61.4169 30.0079 62.8551 34.2833C64.7702 39.9766 61.7908 45.9453 56.0826 47.8098C53.9117 48.5189 51.7276 48.4627 49.5052 47.7663C47.9009 47.1567 46.4755 46.3593 45.3356 45.1156C45.2064 44.9746 45.091 44.9884 45.0292 45.1677C44.926 45.4667 44.8524 45.7762 44.7457 46.0739C44.2634 47.4192 43.8205 48.7812 43.2736 50.1C42.7358 51.3967 42.137 52.6735 41.4794 53.9137C40.6716 55.4372 39.8128 56.937 38.9042 58.4025C38.2542 59.4508 37.5072 60.4418 36.7645 61.4291C36.1036 62.3076 35.3953 63.151 34.695 63.9992C34.4422 64.3054 34.1471 64.5761 33.8801 64.8709C33.5666 65.2173 33.2627 65.5724 32.9546 65.9238ZM50.8995 34.1153C50.8995 34.1153 50.8913 34.1148 50.8683 34.124C50.8537 34.133 50.8436 34.1456 50.8144 34.1852C50.8144 34.1852 50.7843 34.1993 50.7377 34.1976C50.7095 34.2288 50.6814 34.2601 50.6359 34.3132C50.622 34.3261 50.606 34.3356 50.5487 34.3486C50.535 34.3702 50.5213 34.3918 50.4813 34.4423C50.4286 34.4794 50.3759 34.5165 50.2805 34.5592C50.2681 34.5834 50.2556 34.6076 50.2165 34.6646C50.1629 34.7085 50.1093 34.7525 50.021 34.806C50.0005 34.8333 49.9799 34.8606 49.9562 34.8754C49.9562 34.8754 49.9611 34.8875 49.9126 34.8848C49.8343 34.974 49.756 35.0631 49.6758 35.15C49.6758 35.15 49.6782 35.1517 49.6339 35.1563C49.6032 35.2005 49.5726 35.2448 49.5389 35.2875C49.5389 35.2875 49.5411 35.2901 49.4956 35.2956C49.4676 35.3431 49.4396 35.3906 49.3972 35.4646C49.3848 35.4811 49.3692 35.4936 49.312 35.5131C49.2948 35.5472 49.2776 35.5814 49.2372 35.6431C49.211 35.6677 49.1848 35.6923 49.1108 35.7216C49.0724 35.7843 49.034 35.847 48.9757 35.9512C48.2818 36.8515 47.7235 37.8206 47.3714 38.911C47.0762 39.8253 47.3199 40.5974 47.9119 41.287C48.6287 42.1221 49.5944 42.5709 50.6173 42.8789C52.5899 43.4728 54.6011 43.601 56.635 43.2441C57.5765 43.0789 58.4764 42.7887 59.2518 42.2087C60.0329 41.6243 60.5016 40.8643 60.3427 39.8549C60.117 38.4208 59.5151 37.1378 58.6753 35.9602C58.0742 35.1172 57.3359 34.4107 56.5308 33.7256C56.5327 33.6828 56.5346 33.64 56.5856 33.5919C56.635 33.5901 56.6844 33.5884 56.7618 33.612C56.7946 33.5736 56.8275 33.5353 56.8691 33.5049C56.8691 33.5049 56.86 33.4967 56.8852 33.4948C56.8916 33.4896 56.9042 33.4831 56.9034 33.4795C56.9001 33.4646 56.8928 33.4506 56.8865 33.3853C56.8374 33.3015 56.7882 33.2177 56.7198 33.09C56.579 33.0406 56.4383 32.9912 56.302 32.9405C56.302 32.9405 56.3064 32.9414 56.3452 32.9323C56.3539 32.9086 56.3627 32.8849 56.3793 32.827C56.396 32.7966 56.4128 32.7661 56.4795 32.7275C56.5118 32.658 56.544 32.5885 56.5812 32.4965C56.5812 32.4965 56.5938 32.4772 56.6272 32.456C56.6339 32.4313 56.6406 32.4066 56.6528 32.3598C56.6528 32.3598 56.6663 32.3415 56.6974 32.3218C56.7056 32.2994 56.7137 32.277 56.7289 32.2285C56.7289 32.2285 56.7423 32.2051 56.7713 32.1858C56.779 32.1645 56.7867 32.1432 56.8021 32.0957C56.8021 32.0957 56.8163 32.0725 56.858 32.0621C56.8743 32.027 56.8906 31.9919 56.9149 31.9235C56.926 31.9035 56.9371 31.8836 56.9939 31.8529C57.0139 31.7996 57.0338 31.7463 57.0586 31.6714C57.0586 31.6714 57.072 31.6538 57.1202 31.647C57.1721 31.5339 57.2241 31.4209 57.2818 31.3115C57.2818 31.3115 57.2755 31.309 57.3097 31.2918C57.3183 31.2687 57.3269 31.2456 57.3413 31.198C57.3413 31.198 57.3536 31.1761 57.3846 31.1549C57.3911 31.1315 57.3976 31.108 57.4125 31.0609C57.4125 31.0609 57.4289 31.0421 57.4744 31.0314C57.4737 30.9448 57.473 30.8582 57.4318 30.764C57.4068 30.7526 57.3819 30.7413 57.3392 30.6889C57.1837 30.6659 57.0282 30.643 56.8116 30.6224C56.6483 30.6205 56.485 30.6186 56.28 30.5836C55.9949 30.631 55.7098 30.6783 55.3821 30.743C55.3517 30.7457 55.3213 30.7484 55.255 30.7224C54.9347 30.7912 54.6156 30.8659 54.2938 30.9265C54.1215 30.959 53.9447 30.9673 53.785 30.9864C53.785 30.9864 53.7703 30.9891 53.7626 30.9412C53.6714 30.8877 53.5802 30.8342 53.4658 30.7739C53.4658 30.7739 53.4459 30.7603 53.4365 30.7136C53.368 30.6871 53.2996 30.6607 53.2012 30.6247C53.2012 30.6247 53.1738 30.6093 53.16 30.5641C53.0376 30.5269 52.9152 30.4897 52.7575 30.4481C52.7352 30.4401 52.713 30.4321 52.6623 30.3869C52.5356 30.3735 52.4089 30.3602 52.2269 30.3512C52.1532 30.3485 52.0795 30.3457 51.9927 30.323C51.974 30.3301 51.9553 30.3372 51.8908 30.3502C51.8601 30.3486 51.8294 30.347 51.7582 30.3112C51.5644 30.337 51.3706 30.3628 51.1307 30.4074C51.1153 30.4135 51.0998 30.4196 51.0577 30.4612C51.1079 30.5577 51.1581 30.6542 51.2293 30.769C51.2293 30.769 51.2438 30.7927 51.246 30.8386C51.2924 30.9055 51.3389 30.9724 51.4004 31.0597C51.4004 31.0597 51.4081 31.0839 51.401 31.1297C51.4276 31.1614 51.4542 31.193 51.4754 31.242C51.4754 31.242 51.4836 31.2258 51.4726 31.2708C51.5118 31.3084 51.5511 31.3459 51.6028 31.4054C51.6028 31.4054 51.6078 31.4301 51.6001 31.4824C51.6959 31.626 51.7917 31.7695 51.8781 31.9183C51.8781 31.9183 51.8887 31.917 51.8814 31.9629C51.9115 31.9907 51.9417 32.0185 51.9926 32.0669C52.0045 32.0828 52.0124 32.1006 52.0124 32.165C52.0397 32.195 52.067 32.225 52.082 32.2545C52.082 32.2545 52.0938 32.2565 52.0955 32.293C52.1134 32.3084 52.1313 32.3238 52.1603 32.3565C52.1603 32.3565 52.1629 32.3769 52.1634 32.4245C52.2054 32.4871 52.2473 32.5498 52.2967 32.6365C52.2967 32.6365 52.3003 32.6614 52.2682 32.7038C52.1576 32.7412 52.0471 32.7786 51.8885 32.82C51.8249 32.8282 51.7614 32.8364 51.6533 32.8471C51.6347 32.8842 51.6161 32.9212 51.5918 33.0091C51.5969 33.077 51.602 33.1449 51.6218 33.2509C51.6469 33.2578 51.672 33.2647 51.7327 33.2767C51.7554 33.2845 51.7781 33.2922 51.7993 33.3496C51.7146 33.4544 51.6298 33.5593 51.529 33.6523C51.529 33.6523 51.5431 33.6663 51.4938 33.6556C51.3899 33.7405 51.286 33.8255 51.1619 33.9255C51.1619 33.9255 51.1381 33.9335 51.0908 33.9284C51.0526 33.9694 51.0144 34.0105 50.9777 34.0536C50.9777 34.0536 50.9756 34.0522 50.9453 34.0616C50.9258 34.0721 50.9119 34.0877 50.8995 34.1153Z" fill="#2CA7BF"/>
<path d="M38.4841 49.8875C37.4335 45.5557 35.3726 41.753 32.4424 38.4136C28.7424 34.1968 24.1403 31.2959 18.9587 29.264C17.7196 28.7781 16.4428 28.3883 15.1834 27.9541C15.132 27.9364 15.0814 27.9161 14.9868 27.8807C15.8797 27.5721 16.7359 27.2992 17.5751 26.9816C19.7293 26.1663 21.8577 25.2963 23.7148 23.886C23.8042 23.8181 24.015 23.8331 24.1311 23.889C25.3633 24.4818 26.4591 25.2847 27.485 26.1765C32.5566 30.5853 36.0224 36.0108 37.7721 42.513C38.4881 45.1738 38.7871 47.8876 38.7488 50.6757C38.6421 50.4375 38.5631 50.1625 38.4841 49.8875Z" fill="#020202"/>
<path d="M38.2147 50.1058C37.6143 49.3179 37.0503 48.4989 36.4074 47.7474C33.6206 44.4896 30.2155 42.066 26.292 40.3609C23.2874 39.0551 20.1449 38.2694 16.8967 37.875C14.5666 37.5921 12.23 37.5568 9.88898 37.6306C9.37784 37.6467 8.86761 37.6917 8.28467 37.7279C8.64636 37.4351 8.96495 37.1842 9.27607 36.9243C11.1972 35.3195 13.0674 33.6636 14.5521 31.6242C14.6326 31.5135 14.7409 31.4109 14.7833 31.2865C15.0004 30.6505 15.474 30.7032 15.9926 30.7891C17.3836 31.0198 18.7271 31.4188 20.0384 31.9245C24.159 33.5138 27.8093 35.8472 31.0002 38.8994C33.9914 41.7607 36.3141 45.089 37.9604 48.8872C38.0942 49.1959 38.1896 49.5213 38.3015 49.8898C38.2716 49.9957 38.2431 50.0507 38.2147 50.1058Z" fill="#2DA7BF"/>
<path d="M37.69 7.74251C40.3004 7.68698 42.6771 9.40891 43.2102 12.1832C43.5761 14.0873 43.032 15.7804 41.6235 17.1389C39.44 19.2448 36.0194 19.1867 33.909 17.0088C33.0082 16.0793 32.5125 14.9552 32.3993 13.6475C32.1587 10.8684 34.0756 8.377 36.8113 7.82963C37.0879 7.77429 37.3748 7.77032 37.69 7.74251Z" fill="#000101"/>
<path d="M32.98 65.9203C33.2629 65.5724 33.5668 65.2173 33.8804 64.8709C34.1473 64.576 34.4425 64.3053 34.6952 63.9992C35.3955 63.151 36.1038 62.3076 36.7647 61.429C37.5074 60.4418 38.2544 59.4508 38.9044 58.4025C39.813 56.937 40.6719 55.4372 41.4797 53.9137C42.1373 52.6735 42.7361 51.3967 43.2738 50.0999C43.8207 48.7812 44.2636 47.4191 44.746 46.0738C44.8527 45.7762 44.9262 45.4667 45.0294 45.1677C45.0912 44.9884 45.2066 44.9746 45.3358 45.1156C46.4757 46.3593 47.9012 47.1567 49.4824 47.7617C47.5886 52.6821 44.8435 57.0441 40.937 60.6273C38.5683 62.8 35.9211 64.5616 32.98 65.9203Z" fill="#2B9EB5"/>
<path d="M52.6965 27.1698C51.637 27.1761 50.6049 27.3923 49.5923 27.692C49.1503 27.8228 48.7379 28.0519 48.3073 28.2243C48.2103 28.2631 48.0728 28.2907 47.9927 28.249C47.9417 28.2224 47.9556 28.0589 47.9524 27.9564C47.9489 27.8429 47.9626 27.729 47.9626 27.6152C47.9636 26.3151 47.9633 25.015 47.9633 23.7149C47.9634 22.9906 47.9896 22.2652 47.9571 21.5424C47.907 20.4325 47.8231 19.324 47.7381 18.2161C47.7193 17.9709 47.636 17.7307 47.5591 17.4764C48.3549 16.4984 49.142 15.5081 49.727 14.3771C49.9932 13.8623 50.2293 13.3319 50.4974 12.77C50.5478 12.9205 50.6119 13.057 50.6389 13.2005C51.0508 15.3922 51.5037 17.5777 51.852 19.7796C52.1435 21.6226 52.3164 23.4846 52.5315 25.3394C52.601 25.9385 52.6378 26.5413 52.6965 27.1698Z" fill="#2B9EB5"/>
<path d="M38.2212 50.1285C38.2432 50.0507 38.2717 49.9957 38.3015 49.9162C38.3432 49.8927 38.3835 49.8937 38.4542 49.8911C38.5635 50.1626 38.6425 50.4376 38.75 50.7079C38.705 50.701 38.5916 50.7282 38.5648 50.6917C38.4393 50.5212 38.3377 50.3331 38.2212 50.1285Z" fill="#68A7B3"/>
<path d="M49.3507 35.5023C49.3694 35.4937 49.385 35.4813 49.4249 35.4452C49.4821 35.3805 49.5117 35.3354 49.5413 35.2902C49.5413 35.2902 49.5392 35.2877 49.5608 35.2826C49.6144 35.2356 49.6464 35.1937 49.6784 35.1519C49.6784 35.1519 49.676 35.1501 49.6986 35.1455C49.8012 35.0565 49.8812 34.972 49.9613 34.8876C49.9613 34.8876 49.9564 34.8755 49.9759 34.8782C50.0156 34.8528 50.0358 34.8247 50.0559 34.7966C50.1095 34.7527 50.1631 34.7087 50.247 34.6394C50.2927 34.594 50.308 34.5739 50.3234 34.5538C50.3761 34.5167 50.4288 34.4796 50.5126 34.422C50.5586 34.3816 50.5734 34.3616 50.5882 34.3417C50.6063 34.3357 50.6222 34.3263 50.6645 34.2962C50.7235 34.2525 50.754 34.226 50.7845 34.1994C50.7845 34.1994 50.8146 34.1853 50.8399 34.1724C50.883 34.15 50.8918 34.1352 50.8916 34.115C50.8916 34.115 50.8997 34.1154 50.9189 34.111C50.9607 34.0955 50.9733 34.0774 50.9759 34.0524C50.9759 34.0524 50.9779 34.0538 50.9982 34.0498C51.0585 34.0084 51.0984 33.9711 51.1383 33.9337C51.1383 33.9337 51.1622 33.9256 51.1951 33.9163C51.3331 33.8267 51.4382 33.7466 51.5434 33.6665C51.5434 33.6665 51.5292 33.6525 51.5606 33.6551C51.8572 33.4753 52.1434 33.4592 52.4611 33.4845C53.3768 33.5574 54.2957 33.5903 55.2127 33.649C55.6529 33.6772 56.0915 33.7281 56.5309 33.7687C57.3361 34.4108 58.0744 35.1174 58.6755 35.9603C59.5153 37.138 60.1172 38.421 60.3429 39.8551C60.5018 40.8644 60.0331 41.6245 59.252 42.2088C58.4766 42.7889 57.5767 43.0791 56.6352 43.2443C54.6013 43.6012 52.5901 43.473 50.6175 42.8791C49.5946 42.5711 48.629 42.1223 47.9121 41.2872C47.3201 40.5975 47.0764 39.8254 47.3716 38.9111C47.7237 37.8207 48.282 36.8516 49.0071 35.9241C49.0785 35.837 49.1186 35.777 49.1588 35.7171C49.185 35.6925 49.2112 35.6679 49.2675 35.6233C49.3152 35.5696 49.3329 35.536 49.3507 35.5023ZM55.1861 39.9304C55.5954 39.2315 55.3962 38.5766 54.6709 38.2304C54.3419 38.0733 54.0063 37.9274 53.6895 37.7482C53.4263 37.5993 53.3135 37.348 53.3914 37.047C53.4688 36.7483 53.705 36.612 53.9874 36.64C54.3203 36.673 54.6476 36.7671 54.9758 36.8412C55.0586 36.86 55.1357 36.9038 55.2167 36.9365C55.3635 36.5146 55.3103 36.3926 54.8512 36.2587C54.6172 36.1904 54.5615 36.0785 54.6119 35.8668C54.633 35.7782 54.6747 35.6819 54.6568 35.6001C54.6393 35.5198 54.5625 35.3987 54.5035 35.3938C54.4115 35.3861 54.2902 35.4398 54.2238 35.5085C54.17 35.5641 54.1587 35.6812 54.1633 35.7692C54.1788 36.0647 54.024 36.1446 53.756 36.1813C53.2942 36.2446 52.9476 36.4797 52.831 36.968C52.6857 37.5766 52.9481 38.0493 53.5989 38.3554C53.8973 38.4957 54.2016 38.6266 54.487 38.7901C54.7438 38.9373 54.8554 39.2104 54.7459 39.4677C54.6637 39.6606 54.4582 39.9008 54.2768 39.9303C53.9325 39.9862 53.5618 39.9314 53.2104 39.8727C53.0098 39.8392 52.8258 39.707 52.6349 39.6196C52.4676 39.9902 52.487 40.18 52.7896 40.2467C53.2954 40.3583 53.4549 40.6005 53.3122 41.0868C53.2968 41.1392 53.4079 41.2886 53.4584 41.2877C53.5533 41.286 53.6758 41.2293 53.7325 41.1543C53.787 41.0823 53.7806 40.9588 53.7871 40.857C53.803 40.608 53.8941 40.479 54.1791 40.4653C54.5644 40.4468 54.9108 40.2946 55.1861 39.9304Z" fill="#EBF7F9"/>
<path d="M52.0058 30.343C52.0796 30.3457 52.1533 30.3485 52.2739 30.3663C52.4441 30.3957 52.5675 30.4099 52.6908 30.4241C52.7131 30.4321 52.7353 30.4401 52.7898 30.4682C52.9393 30.5286 53.0566 30.5689 53.174 30.6093C53.174 30.6093 53.2013 30.6247 53.2271 30.6484C53.3173 30.7015 53.3817 30.7309 53.446 30.7603C53.446 30.7603 53.466 30.7739 53.4862 30.7987C53.5944 30.8787 53.6824 30.9339 53.7704 30.9891C53.7704 30.9891 53.7851 30.9863 53.7877 31.0102C53.8722 31.0588 53.9634 31.1202 54.0345 31.1021C54.4559 30.9953 54.8727 30.8701 55.291 30.751C55.3214 30.7484 55.3518 30.7457 55.4309 30.7413C55.7604 30.6986 56.0411 30.6577 56.3218 30.6167C56.4851 30.6186 56.6484 30.6205 56.8604 30.6382C57.0584 30.6793 57.2077 30.7046 57.357 30.73C57.382 30.7413 57.4069 30.7526 57.4571 30.791C57.4645 30.8927 57.4468 30.9674 57.429 31.0421C57.429 31.0421 57.4126 31.0609 57.3931 31.0835C57.367 31.1294 57.3604 31.1527 57.3538 31.176C57.3538 31.176 57.3414 31.198 57.3226 31.2199C57.2944 31.2642 57.285 31.2866 57.2756 31.309C57.2756 31.309 57.2819 31.3115 57.2596 31.3213C57.1822 31.4387 57.1271 31.5462 57.0721 31.6538C57.0721 31.6538 57.0587 31.6714 57.0379 31.6932C56.9941 31.7645 56.9712 31.8141 56.9483 31.8636C56.9372 31.8835 56.9261 31.9035 56.8939 31.9496C56.854 32.0079 56.8352 32.0402 56.8164 32.0725C56.8164 32.0725 56.8022 32.0957 56.783 32.1178C56.7566 32.1615 56.7495 32.1833 56.7424 32.205C56.7424 32.205 56.729 32.2285 56.71 32.2513C56.6828 32.2966 56.6746 32.3191 56.6664 32.3415C56.6664 32.3415 56.6529 32.3598 56.635 32.3828C56.6094 32.4295 56.6016 32.4534 56.5939 32.4772C56.5939 32.4772 56.5813 32.4965 56.5595 32.5194C56.5017 32.6067 56.4657 32.6712 56.4297 32.7357C56.4129 32.7661 56.3961 32.7965 56.3602 32.8535C56.3295 32.9004 56.318 32.9209 56.3065 32.9414C56.3065 32.9414 56.3021 32.9405 56.273 32.9412C55.9492 32.9236 55.6543 32.9076 55.3597 32.8863C54.3399 32.8123 53.3202 32.7365 52.3004 32.6614C52.3004 32.6614 52.2968 32.6365 52.2923 32.6011C52.2462 32.5028 52.2046 32.4399 52.1631 32.3769C52.1631 32.3769 52.1605 32.3565 52.1528 32.33C52.1281 32.2878 52.111 32.2722 52.0939 32.2565C52.0939 32.2565 52.0821 32.2545 52.0848 32.2349C52.0637 32.1836 52.04 32.1518 52.0163 32.1201C52.0125 32.1006 52.0047 32.0828 51.977 32.0374C51.9371 31.9776 51.9129 31.9473 51.8888 31.917C51.8888 31.917 51.8782 31.9183 51.8796 31.8922C51.79 31.7208 51.699 31.5755 51.6079 31.4301C51.6079 31.4301 51.6029 31.4054 51.5962 31.3739C51.5542 31.3036 51.519 31.2647 51.4837 31.2258C51.4837 31.2258 51.4755 31.242 51.476 31.2129C51.4538 31.1505 51.431 31.1172 51.4082 31.0839C51.4082 31.0839 51.4005 31.0597 51.3911 31.0279C51.3357 30.9283 51.2898 30.8605 51.2439 30.7927C51.2439 30.7927 51.2294 30.769 51.2148 30.7352C51.1617 30.6095 51.1231 30.5176 51.0845 30.4257C51.0999 30.4196 51.1154 30.4135 51.1819 30.4065C51.4217 30.3856 51.6103 30.3655 51.7989 30.3453C51.8296 30.347 51.8602 30.3486 51.9312 30.3517C51.9829 30.3498 51.9944 30.3464 52.0058 30.343Z" fill="#E8F6F9"/>
<path d="M51.6072 33.2128C51.6021 33.145 51.5971 33.0771 51.6117 32.9742C51.6535 32.9077 51.6757 32.8762 51.6979 32.8447C51.7615 32.8365 51.8251 32.8283 51.9383 32.8304C52.3837 32.8681 52.7792 32.8983 53.1751 32.9223C54.363 32.9941 55.5511 33.0636 56.7392 33.134C56.7883 33.2178 56.8375 33.3016 56.8767 33.4244C56.8667 33.4635 56.8601 33.4968 56.8601 33.4968C56.8601 33.4968 56.8693 33.5049 56.8468 33.5083C56.7942 33.5367 56.764 33.5618 56.7339 33.5868C56.6845 33.5885 56.6351 33.5902 56.5328 33.584C55.9831 33.5398 55.4867 33.4967 54.9896 33.4686C53.9269 33.4083 52.8638 33.3558 51.8009 33.3001C51.7782 33.2923 51.7555 33.2845 51.7034 33.2598C51.6517 33.2329 51.6295 33.2229 51.6072 33.2128Z" fill="#DDF5FA"/>
<path d="M51.8 33.325C52.8636 33.3559 53.9267 33.4084 54.9894 33.4686C55.4866 33.4968 55.9829 33.5399 56.508 33.5868C56.5346 33.6402 56.5326 33.683 56.5307 33.7473C56.0913 33.7281 55.6526 33.6772 55.2125 33.649C54.2955 33.5903 53.3766 33.5574 52.4608 33.4845C52.1432 33.4592 51.857 33.4753 51.5684 33.661C51.6298 33.5594 51.7145 33.4546 51.8 33.325Z" fill="#66B1C0"/>
<path d="M56.7296 33.1119C55.5512 33.0635 54.3631 32.9941 53.1751 32.9222C52.7793 32.8982 52.3838 32.8681 51.9624 32.8284C52.0473 32.7786 52.1578 32.7412 52.2844 32.6826C53.3202 32.7365 54.34 32.8123 55.3598 32.8863C55.6543 32.9076 55.9492 32.9236 56.2709 32.9419C56.4385 32.9912 56.5792 33.0406 56.7296 33.1119Z" fill="#64B1C1"/>
<path d="M55.2732 30.7368C54.8728 30.8702 54.456 30.9954 54.0346 31.1022C53.9635 31.1203 53.8723 31.0589 53.7803 31.0104C53.9449 30.9674 54.1217 30.9591 54.294 30.9266C54.6158 30.866 54.935 30.7913 55.2732 30.7368Z" fill="#64B1C1"/>
<path d="M56.301 30.6003C56.0411 30.6579 55.7603 30.6988 55.4521 30.7328C55.7099 30.6785 55.995 30.6311 56.301 30.6003Z" fill="#64B1C1"/>
<path d="M51.7787 30.3284C51.6104 30.3656 51.4217 30.3857 51.2051 30.3972C51.3708 30.3629 51.5646 30.3371 51.7787 30.3284Z" fill="#64B1C1"/>
<path d="M57.3483 30.7096C57.2079 30.7048 57.0585 30.6795 56.8911 30.6372C57.0285 30.6432 57.1839 30.6661 57.3483 30.7096Z" fill="#64B1C1"/>
<path d="M51.604 31.4563C51.6989 31.5755 51.7899 31.7209 51.8842 31.8897C51.7917 31.7696 51.6959 31.626 51.604 31.4563Z" fill="#64B1C1"/>
<path d="M51.5186 33.6609C51.4381 33.7464 51.333 33.8265 51.2051 33.9086C51.2862 33.8255 51.39 33.7405 51.5186 33.6609Z" fill="#66B1C0"/>
<path d="M49.9367 34.8862C49.8809 34.972 49.8009 35.0564 49.6992 35.1466C49.7559 35.0633 49.8342 34.9741 49.9367 34.8862Z" fill="#66B1C0"/>
<path d="M52.6764 30.4056C52.5672 30.41 52.4439 30.3958 52.3013 30.3642C52.4087 30.3603 52.5355 30.3736 52.6764 30.4056Z" fill="#64B1C1"/>
<path d="M57.0962 31.6505C57.1271 31.5463 57.1822 31.4388 57.2567 31.3196C57.2242 31.421 57.1723 31.534 57.0962 31.6505Z" fill="#64B1C1"/>
<path d="M53.1673 30.5868C53.0568 30.569 52.9395 30.5287 52.8076 30.4705C52.9155 30.4898 53.0379 30.527 53.1673 30.5868Z" fill="#64B1C1"/>
<path d="M53.7663 30.9651C53.6822 30.9339 53.5942 30.8786 53.4976 30.802C53.5801 30.8341 53.6713 30.8876 53.7663 30.9651Z" fill="#64B1C1"/>
<path d="M51.0713 30.4436C51.1232 30.5178 51.1618 30.6097 51.2045 30.7262C51.1584 30.6543 51.1082 30.5578 51.0713 30.4436Z" fill="#64B1C1"/>
<path d="M51.2451 30.8157C51.2899 30.8605 51.3358 30.9283 51.3836 31.0177C51.3391 30.9724 51.2926 30.9055 51.2451 30.8157Z" fill="#64B1C1"/>
<path d="M57.4516 31.0368C57.4465 30.9675 57.4643 30.8928 57.4771 30.7949C57.4728 30.8583 57.4736 30.9449 57.4516 31.0368Z" fill="#64B1C1"/>
<path d="M49.1349 35.7192C49.1186 35.7769 49.0785 35.8368 49.0171 35.9032C49.0342 35.847 49.0726 35.7843 49.1349 35.7192Z" fill="#66B1C0"/>
<path d="M56.4546 32.7317C56.4656 32.6713 56.5016 32.6068 56.557 32.5308C56.544 32.5887 56.5118 32.6582 56.4546 32.7317Z" fill="#64B1C1"/>
<path d="M53.4415 30.737C53.3818 30.731 53.3174 30.7016 53.2422 30.6533C53.2998 30.6608 53.3683 30.6873 53.4415 30.737Z" fill="#64B1C1"/>
<path d="M51.478 31.2483C51.5188 31.2647 51.554 31.3036 51.5898 31.363C51.551 31.3459 51.5117 31.3084 51.478 31.2483Z" fill="#64B1C1"/>
<path d="M52.1631 32.4009C52.2044 32.44 52.2459 32.503 52.2883 32.5892C52.2472 32.5499 52.2053 32.4873 52.1631 32.4009Z" fill="#64B1C1"/>
<path d="M49.656 35.1541C49.6462 35.1936 49.6142 35.2355 49.562 35.2832C49.5726 35.2448 49.6032 35.2006 49.656 35.1541Z" fill="#66B1C0"/>
<path d="M51.1148 33.9309C51.0985 33.9709 51.0586 34.0082 50.9976 34.0486C51.0147 34.0105 51.0529 33.9694 51.1148 33.9309Z" fill="#66B1C0"/>
<path d="M49.5186 35.293C49.5117 35.3354 49.4821 35.3805 49.4321 35.4319C49.4398 35.3907 49.4678 35.3432 49.5186 35.293Z" fill="#66B1C0"/>
<path d="M56.9712 31.8583C56.9712 31.8142 56.9941 31.7647 57.0354 31.7041C57.034 31.7464 57.014 31.7997 56.9712 31.8583Z" fill="#64B1C1"/>
<path d="M56.748 33.5995C56.7642 33.5618 56.7943 33.5368 56.8425 33.5044C56.8277 33.5354 56.7949 33.5738 56.748 33.5995Z" fill="#64B1C1"/>
<path d="M50.0386 34.8013C50.0358 34.8246 50.0157 34.8527 49.9775 34.8844C49.9801 34.8607 50.0007 34.8334 50.0386 34.8013Z" fill="#66B1C0"/>
<path d="M50.7613 34.1985C50.7541 34.2258 50.7236 34.2523 50.6733 34.2851C50.6817 34.2601 50.7099 34.2289 50.7613 34.1985Z" fill="#66B1C0"/>
<path d="M52.0142 32.1426C52.0397 32.1519 52.0634 32.1836 52.0907 32.2352C52.0669 32.2251 52.0396 32.1951 52.0142 32.1426Z" fill="#64B1C1"/>
<path d="M51.8853 31.9399C51.913 31.9473 51.9372 31.9776 51.9667 32.0271C51.9419 32.0185 51.9117 31.9907 51.8853 31.9399Z" fill="#64B1C1"/>
<path d="M49.3313 35.5076C49.3328 35.5358 49.315 35.5694 49.2789 35.6093C49.2776 35.5814 49.2949 35.5472 49.3313 35.5076Z" fill="#66B1C0"/>
<path d="M56.8371 32.0673C56.835 32.0402 56.8538 32.008 56.8897 31.9663C56.8905 31.992 56.8742 32.027 56.8371 32.0673Z" fill="#64B1C1"/>
<path d="M51.6755 32.8459C51.6755 32.8762 51.6533 32.9077 51.6143 32.9488C51.616 32.9213 51.6346 32.8843 51.6755 32.8459Z" fill="#64B1C1"/>
<path d="M51.4048 31.1069C51.4311 31.1173 51.4539 31.1506 51.4789 31.2043C51.4545 31.1931 51.4279 31.1615 51.4048 31.1069Z" fill="#64B1C1"/>
<path d="M57.3691 31.1659C57.3602 31.1531 57.3668 31.1297 57.3888 31.0955C57.3976 31.1082 57.3911 31.1317 57.3691 31.1659Z" fill="#64B1C1"/>
<path d="M51.9996 30.3332C51.9946 30.3467 51.9831 30.3501 51.9541 30.349C51.9554 30.3374 51.9742 30.3302 51.9996 30.3332Z" fill="#64B1C1"/>
<path d="M57.2927 31.3007C57.2849 31.2868 57.2943 31.2643 57.3197 31.2322C57.3271 31.2457 57.3185 31.2689 57.2927 31.3007Z" fill="#64B1C1"/>
<path d="M50.302 34.5564C50.308 34.5737 50.2926 34.5939 50.2602 34.623C50.2556 34.6077 50.2681 34.5835 50.302 34.5564Z" fill="#66B1C0"/>
<path d="M50.5686 34.3452C50.5734 34.3617 50.5586 34.3817 50.5257 34.4078C50.5214 34.3921 50.5351 34.3705 50.5686 34.3452Z" fill="#66B1C0"/>
<path d="M50.8802 34.1194C50.892 34.1351 50.8831 34.15 50.8518 34.1608C50.8438 34.1457 50.8539 34.133 50.8802 34.1194Z" fill="#66B1C0"/>
<path d="M50.9609 34.0569C50.9735 34.0773 50.9609 34.0954 50.9211 34.1075C50.9122 34.0877 50.9261 34.0721 50.9609 34.0569Z" fill="#66B1C0"/>
<path d="M56.8727 33.496C56.86 33.497 56.8666 33.4635 56.8769 33.45C56.893 33.4507 56.9003 33.4648 56.9036 33.4797C56.9044 33.4833 56.8917 33.4899 56.8727 33.496Z" fill="#64B1C1"/>
<path d="M51.6143 33.2318C51.6292 33.2227 51.6516 33.2328 51.6856 33.2573C51.672 33.2648 51.6468 33.2579 51.6143 33.2318Z" fill="#66B1C0"/>
<path d="M56.3257 32.9371C56.3178 32.9212 56.3293 32.9006 56.3561 32.8706C56.3627 32.8849 56.3539 32.9087 56.3257 32.9371Z" fill="#64B1C1"/>
<path d="M56.6106 32.4668C56.6016 32.4536 56.6094 32.4297 56.6323 32.3938C56.6408 32.4066 56.6341 32.4314 56.6106 32.4668Z" fill="#64B1C1"/>
<path d="M56.6818 32.332C56.6744 32.3193 56.6826 32.2968 56.7064 32.2644C56.7138 32.2771 56.7056 32.2996 56.6818 32.332Z" fill="#64B1C1"/>
<path d="M52.0947 32.2749C52.111 32.2724 52.1281 32.2881 52.1473 32.3218C52.1315 32.3242 52.1135 32.3087 52.0947 32.2749Z" fill="#64B1C1"/>
<path d="M56.7567 32.1957C56.7493 32.1835 56.7565 32.1617 56.779 32.1309C56.7867 32.1433 56.779 32.1647 56.7567 32.1957Z" fill="#64B1C1"/>
<path d="M55.171 39.9508C54.9107 40.2946 54.5643 40.4467 54.179 40.4653C53.894 40.479 53.8029 40.608 53.787 40.857C53.7805 40.9588 53.7869 41.0823 53.7324 41.1543C53.6757 41.2293 53.5532 41.286 53.4584 41.2877C53.4078 41.2886 53.2967 41.1392 53.3121 41.0868C53.4548 40.6005 53.2953 40.3583 52.7895 40.2467C52.4869 40.18 52.4675 39.9902 52.6348 39.6195C52.8257 39.707 53.0098 39.8392 53.2103 39.8727C53.5617 39.9314 53.9324 39.9862 54.2767 39.9303C54.4581 39.9008 54.6637 39.6606 54.7458 39.4677C54.8553 39.2104 54.7437 38.9373 54.4869 38.7901C54.2015 38.6266 53.8972 38.4957 53.5989 38.3554C52.948 38.0493 52.6856 37.5766 52.8309 36.968C52.9475 36.4797 53.2941 36.2445 53.756 36.1813C54.024 36.1446 54.1788 36.0646 54.1632 35.7692C54.1586 35.6812 54.1699 35.5641 54.2237 35.5085C54.2901 35.4398 54.4114 35.3861 54.5034 35.3938C54.5624 35.3987 54.6392 35.5198 54.6567 35.6C54.6746 35.6819 54.6329 35.7782 54.6118 35.8668C54.5614 36.0784 54.6172 36.1904 54.8511 36.2586C55.3102 36.3926 55.3634 36.5146 55.2166 36.9365C55.1356 36.9038 55.0585 36.8599 54.9757 36.8412C54.6475 36.7671 54.3202 36.673 53.9873 36.64C53.7049 36.612 53.4687 36.7483 53.3913 37.047C53.3134 37.348 53.4262 37.5993 53.6895 37.7482C54.0062 37.9274 54.3418 38.0733 54.6708 38.2304C55.3961 38.5766 55.5954 39.2315 55.171 39.9508Z" fill="#3CAABF"/>
</svg>
