<svg width="13" height="7" viewBox="0 0 13 7" fill="none" xmlns="http://www.w3.org/2000/svg">
<path d="M0 0.0788574H13V6.92097H0V0.0788574Z" fill="white"/>
<path d="M0 0.0788574H13V0.605184H0V0.0788574ZM0 1.13151H13V1.65784H0V1.13151ZM0 2.18412H13V2.71045H0V2.18412ZM0 3.23677H13V3.7631H0V3.23677ZM0 4.28938H13V4.81571H0V4.28938ZM0 5.34204H13V5.86836H0V5.34204ZM0 6.39465H13V6.92097H0V6.39465Z" fill="#B22234"/>
<path d="M0 0.0788574H5.2V3.76306H0V0.0788574Z" fill="#3C3B6E"/>
<path d="M0.245117 0.378022L0.369007 0.468025L0.321687 0.613669L0.445534 0.523665L0.569424 0.613669L0.522104 0.468025L0.645951 0.378022H0.492854L0.445534 0.232422L0.398214 0.378022H0.245117ZM1.10723 0.378022L1.23108 0.468025L1.18376 0.613669L1.30765 0.523665L1.43154 0.613669L1.38422 0.468025L1.50807 0.378022H1.35497L1.30765 0.232422L1.26033 0.378022H1.10723ZM1.96935 0.378022L2.0932 0.468025L2.04588 0.613669L2.16977 0.523665L2.29361 0.613669L2.24629 0.468025L2.37018 0.378022H2.21709L2.16977 0.232422L2.12245 0.378022H1.96935ZM2.83147 0.378022L2.95531 0.468025L2.90799 0.613669L3.03188 0.523665L3.15573 0.613669L3.10841 0.468025L3.2323 0.378022H3.07916L3.03188 0.232422L2.98456 0.378022H2.83147ZM3.69354 0.378022L3.81743 0.468025L3.77011 0.613669L3.89396 0.523665L4.01785 0.613669L3.97053 0.468025L4.09437 0.378022H3.94128L3.89396 0.232422L3.84664 0.378022H3.69354ZM4.55566 0.378022L4.6795 0.468025L4.63218 0.613669L4.75607 0.523665L4.87992 0.613669L4.8326 0.468025L4.95649 0.378022H4.80339L4.75607 0.232422L4.70875 0.378022H4.55566ZM0.676154 0.747525L0.800044 0.837529L0.752724 0.983128L0.876614 0.893125L1.00046 0.983128L0.95314 0.837529L1.07703 0.747525H0.923891L0.876614 0.601882L0.829294 0.747525H0.676154ZM1.53827 0.747525L1.66216 0.837529L1.61484 0.983128L1.73869 0.893125L1.86258 0.983128L1.81526 0.837529L1.9391 0.747525H1.78601L1.73869 0.601882L1.69137 0.747525H1.53827ZM2.40039 0.747525L2.52428 0.837529L2.47696 0.983128L2.6008 0.893125L2.72469 0.983128L2.67737 0.837529L2.80122 0.747525H2.64812L2.6008 0.601882L2.55348 0.747525H2.40039ZM3.2625 0.747525L3.38635 0.837529L3.33903 0.983128L3.46292 0.893125L3.58677 0.983128L3.53945 0.837529L3.66334 0.747525H3.51024L3.46292 0.601882L3.4156 0.747525H3.2625ZM4.12458 0.747525L4.24847 0.837529L4.20115 0.983128L4.32499 0.893125L4.44888 0.983128L4.40156 0.837529L4.52541 0.747525H4.37231L4.32499 0.601882L4.27772 0.747525H4.12458ZM0.245117 1.11699L0.369007 1.20699L0.321687 1.35263L0.445534 1.26263L0.569424 1.35263L0.522104 1.20699L0.645951 1.11699H0.492854L0.445534 0.971385L0.398214 1.11699H0.245117ZM1.10723 1.11699L1.23108 1.20699L1.18376 1.35263L1.30765 1.26263L1.43154 1.35263L1.38422 1.20699L1.50807 1.11699H1.35497L1.30765 0.971385L1.26033 1.11699H1.10723ZM1.96935 1.11699L2.0932 1.20699L2.04588 1.35263L2.16977 1.26263L2.29361 1.35263L2.24629 1.20699L2.37018 1.11699H2.21709L2.16977 0.971385L2.12245 1.11699H1.96935ZM2.83147 1.11699L2.95531 1.20699L2.90799 1.35263L3.03188 1.26263L3.15573 1.35263L3.10841 1.20699L3.2323 1.11699H3.07916L3.03188 0.971385L2.98456 1.11699H2.83147ZM3.69354 1.11699L3.81743 1.20699L3.77011 1.35263L3.89396 1.26263L4.01785 1.35263L3.97053 1.20699L4.09437 1.11699H3.94128L3.89396 0.971385L3.84664 1.11699H3.69354ZM4.55566 1.11699L4.6795 1.20699L4.63218 1.35263L4.75607 1.26263L4.87992 1.35263L4.8326 1.20699L4.95649 1.11699H4.80339L4.75607 0.971385L4.70875 1.11699H4.55566ZM0.686814 1.4877L0.81066 1.57771L0.763384 1.72331L0.887231 1.6333L1.01112 1.72331L0.963801 1.57766L1.08765 1.4877H0.934551L0.887231 1.34206L0.839911 1.4877H0.686814ZM1.54893 1.4877L1.67278 1.57771L1.62546 1.72331L1.74935 1.6333L1.87319 1.72331L1.82587 1.57766L1.94976 1.4877H1.79667L1.74935 1.34206L1.70203 1.4877H1.54893ZM2.41105 1.4877L2.53489 1.57771L2.48757 1.72331L2.61146 1.6333L2.73531 1.72331L2.68799 1.57766L2.81188 1.4877H2.65874L2.61146 1.34206L2.56414 1.4877H2.41105ZM3.27312 1.4877L3.39701 1.57771L3.34969 1.72331L3.47354 1.6333L3.59743 1.72331L3.55011 1.57766L3.67395 1.4877H3.52086L3.47354 1.34206L3.42622 1.4877H3.27312ZM4.13524 1.4877L4.25908 1.57771L4.21176 1.72331L4.33565 1.6333L4.4595 1.72331L4.41218 1.57766L4.53607 1.4877H4.38297L4.33565 1.34206L4.28833 1.4877H4.13524ZM0.258204 1.85409L0.382094 1.94405L0.334774 2.08969L0.458621 1.99969L0.582511 2.08969L0.535191 1.94405L0.659037 1.85409H0.505941L0.458621 1.70844L0.411301 1.85409H0.258204ZM1.12032 1.85409L1.24417 1.94405L1.19685 2.08969L1.32074 1.99969L1.44458 2.08969L1.39731 1.94405L1.52115 1.85409H1.36806L1.32074 1.70844L1.27342 1.85409H1.12032ZM1.98244 1.85409L2.10628 1.94405L2.05896 2.08969L2.18285 1.99969L2.3067 2.08969L2.25938 1.94405L2.38327 1.85409H2.23017L2.18285 1.70844L2.13553 1.85409H1.98244ZM2.84451 1.85409L2.9684 1.94405L2.92108 2.08969L3.04493 1.99969L3.16882 2.08969L3.1215 1.94405L3.24539 1.85409H3.09225L3.04493 1.70844L2.99765 1.85409H2.84451ZM3.70663 1.85409L3.83047 1.94405L3.7832 2.08969L3.90704 1.99969L4.03093 2.08969L3.98361 1.94405L4.10746 1.85409H3.95436L3.90704 1.70844L3.85972 1.85409H3.70663ZM4.56874 1.85409L4.69259 1.94405L4.64527 2.08969L4.76916 1.99969L4.89301 2.08969L4.84569 1.94405L4.96958 1.85409H4.81648L4.76916 1.70844L4.72184 1.85409H4.56874ZM0.266307 2.58131L0.390154 2.67131L0.342834 2.81695L0.466724 2.72695L0.590571 2.81695L0.543251 2.67131L0.667141 2.58131H0.514044L0.466724 2.43571L0.419404 2.58131H0.266307ZM1.12838 2.58131L1.25227 2.67131L1.20495 2.81695L1.3288 2.72695L1.45269 2.81695L1.40537 2.67131L1.52921 2.58131H1.37612L1.3288 2.43571L1.28148 2.58131H1.12838ZM1.9905 2.58131L2.11434 2.67131L2.06707 2.81695L2.19091 2.72695L2.3148 2.81695L2.26748 2.67131L2.39133 2.58131H2.23823L2.19091 2.43571L2.14359 2.58131H1.9905ZM2.85261 2.58131L2.97646 2.67131L2.92914 2.81695L3.05303 2.72695L3.17688 2.81695L3.1296 2.67131L3.25345 2.58131H3.10035L3.05303 2.43571L3.00571 2.58131H2.85261ZM3.71469 2.58131L3.83858 2.67131L3.79126 2.81695L3.9151 2.72695L4.03899 2.81695L3.99167 2.67131L4.11556 2.58131H3.96242L3.9151 2.43571L3.86783 2.58131H3.71469ZM4.5768 2.58131L4.70065 2.67131L4.65337 2.81695L4.77722 2.72695L4.90111 2.81695L4.85379 2.67131L4.97764 2.58131H4.82454L4.77722 2.43571L4.7299 2.58131H4.5768ZM0.255777 3.31711L0.379624 3.40711L0.332304 3.55275L0.456194 3.46275L0.580041 3.55275L0.532721 3.40711L0.656611 3.31711H0.503471L0.456194 3.1715L0.408874 3.31711H0.255777ZM1.11785 3.31711L1.24174 3.40711L1.19442 3.55275L1.31827 3.46275L1.44216 3.55275L1.39484 3.40711L1.51868 3.31711H1.36559L1.31827 3.1715L1.27095 3.31711H1.11785ZM1.97997 3.31711L2.10381 3.40711L2.05654 3.55275L2.18038 3.46275L2.30427 3.55275L2.25695 3.40711L2.3808 3.31711H2.2277L2.18038 3.1715L2.13306 3.31711H1.97997ZM2.84208 3.31711L2.96593 3.40711L2.91861 3.55275L3.0425 3.46275L3.16635 3.55275L3.11907 3.40711L3.24292 3.31711H3.08982L3.0425 3.1715L2.99518 3.31711H2.84208ZM3.70416 3.31711L3.82805 3.40711L3.78073 3.55275L3.90457 3.46275L4.02846 3.55275L3.98114 3.40711L4.10503 3.31711H3.95189L3.90457 3.1715L3.8573 3.31711H3.70416ZM4.56627 3.31711L4.69012 3.40711L4.64284 3.55275L4.76669 3.46275L4.89058 3.55275L4.84326 3.40711L4.96711 3.31711H4.81401L4.76669 3.1715L4.71937 3.31711H4.56627ZM0.689371 2.21406L0.813217 2.30406L0.765941 2.44966L0.889787 2.35966L1.01368 2.44966L0.966357 2.30406L1.0902 2.21406H0.937107L0.889787 2.06841L0.842467 2.21406H0.689371ZM1.55149 2.21406L1.67533 2.30406L1.62801 2.44966L1.7519 2.35966L1.87575 2.44966L1.82847 2.30406L1.95232 2.21406H1.79922L1.7519 2.06841L1.70458 2.21406H1.55149ZM2.4136 2.21406L2.53745 2.30406L2.49013 2.44966L2.61402 2.35966L2.73787 2.44966L2.69055 2.30406L2.81444 2.21406H2.66134L2.61402 2.06841L2.5667 2.21406H2.4136ZM3.27568 2.21406L3.39957 2.30406L3.35225 2.44966L3.47609 2.35966L3.59998 2.44966L3.55266 2.30406L3.67651 2.21406H3.52341L3.47609 2.06841L3.42877 2.21406H3.27568ZM4.13779 2.21406L4.26164 2.30406L4.21432 2.44966L4.33821 2.35966L4.46206 2.44966L4.41478 2.30406L4.53863 2.21406H4.38553L4.33821 2.06841L4.29089 2.21406H4.13779ZM0.686814 2.94869L0.810704 3.03869L0.763384 3.18433L0.887231 3.09433L1.01112 3.18433L0.963801 3.03869L1.08765 2.94869H0.934551L0.887231 2.80309L0.839911 2.94869H0.686814ZM1.54893 2.94869L1.67278 3.03869L1.62546 3.18433L1.74935 3.09433L1.87324 3.18433L1.82592 3.03869L1.94976 2.94869H1.79667L1.74935 2.80309L1.70203 2.94869H1.54893ZM2.41105 2.94869L2.53489 3.03869L2.48757 3.18433L2.61146 3.09433L2.73531 3.18433L2.68799 3.03869L2.81188 2.94869H2.65878L2.61146 2.80309L2.56414 2.94869H2.41105ZM3.27312 2.94869L3.39701 3.03869L3.34969 3.18433L3.47354 3.09433L3.59743 3.18433L3.55011 3.03869L3.67395 2.94869H3.52086L3.47354 2.80309L3.42622 2.94869H3.27312ZM4.13524 2.94869L4.25908 3.03869L4.21176 3.18433L4.33565 3.09433L4.4595 3.18433L4.41222 3.03869L4.53607 2.94869H4.38297L4.33565 2.80309L4.28833 2.94869H4.13524Z" fill="white"/>
</svg>
